<?xml version="1.0" encoding="utf-8"?>
<!-- Generator: Adobe Illustrator 24.3.0, SVG Export Plug-In . SVG Version: 6.00 Build 0)  -->
<svg version="1.1" id="Adomex" xmlns="http://www.w3.org/2000/svg" xmlns:xlink="http://www.w3.org/1999/xlink" x="0px" y="0px"
	 viewBox="0 0 566.9 256.1" style="enable-background:new 0 0 566.9 256.1;" xml:space="preserve">
<style type="text/css">
	.st0{fill:#00643D;}
	.st1{fill:#77B126;}
</style>
<g>
	<path class="st0" d="M283.5,29.4c0.2,0,1,0,1.1,0l2.2,122.4c-1.1,0.1-2.5,0.1-3.3,0.1c-0.8,0-1.9,0-3-0.1l1.8-122.4
		C282.4,29.4,283.4,29.4,283.5,29.4"/>
	<g>
		<path class="st1" d="M218.7,84.7c12-0.2,27.5,1.8,41.3,6.1c0-0.2-0.1-0.3-0.1-0.5c-22.6-12.5-35.3-24.4-41.8-33.8
			c8.2,0.2,23,1.4,42.2,8.8c0-0.2,0-0.2,0-0.4c-15.6-9.7-28-21.1-34.1-29.6c13.8,0.6,23.9,2.8,37.3,9c0-0.1,0-0.2,0.1-0.3
			c-11.2-7.4-19.4-16.1-25-24.2c7.8,0.2,18.4,2.9,30.3,7.3c0.1-0.1,0.1-0.1,0.1-0.3c-8.9-6.7-14.4-13-16.8-17
			c5.3,0.2,14.4,1.9,22.8,5c0.1-0.1,0.1-0.1,0.1-0.2c-3.6-3.1-7.1-8.3-8.1-10.6c4.6,0.5,7.5,1.1,13.9,3.2c0,0,0,0,0,0
			c2.4-2.6-0.8-7.4-5.7-7c-35.9,4.1-63.7,34.5-63.7,71.5c0,14,4,27,10.9,38c9,2.6,22.6,6.7,42.6,13.1c-0.1-0.2-0.1-0.4-0.2-0.6
			C238.6,107,225.4,93.7,218.7,84.7z"/>
	</g>
	<path class="st1" d="M348.5,84.7c-12-0.2-27.5,1.8-41.3,6.1c0-0.2,0.1-0.3,0.1-0.5c22.6-12.5,35.3-24.4,41.8-33.8
		c-8.2,0.2-23,1.4-42.2,8.8c0-0.2,0-0.2,0-0.4c15.6-9.7,28-21.1,34.1-29.6c-13.8,0.6-23.9,2.8-37.3,9c0-0.1,0-0.2-0.1-0.3
		c11.2-7.4,19.4-16.1,25-24.2c-7.8,0.2-18.4,2.9-30.3,7.3c-0.1-0.1-0.1-0.1-0.1-0.3c8.9-6.7,14.4-13,16.8-17
		c-5.3,0.2-14.4,1.9-22.8,5c-0.1-0.1-0.1-0.1-0.1-0.2c3.6-3.1,7.1-8.3,8.1-10.6c-4.6,0.5-7.5,1.1-13.9,3.2c0,0,0,0,0,0
		c-2.4-2.6,0.8-7.4,5.7-7c35.9,4.1,63.7,34.5,63.7,71.5c0,14-4,27-10.9,38c-9,2.6-22.6,6.7-42.6,13.1c0.1-0.2,0.1-0.4,0.2-0.6
		C328.6,107,341.9,93.7,348.5,84.7z"/>
	<g>
		<path class="st0" d="M37.7,179.1l-0.1-0.3h-1.9L0,254.3h11.2l11-23.2h28.4l11.1,23.2h11L37.7,179.1z M46.1,221.3H26.9l9.6-20.4
			L46.1,221.3z"/>
		<path class="st0" d="M163.4,196.5c-4-6.2-9.7-10.6-16.8-13.1c-4.9-1.7-12.8-2.6-23.4-2.6h-16.1v73.5H131c9,0,16.1-1.3,21.2-4
			c5.1-2.7,9.3-6.9,12.5-12.5c3.2-5.6,4.8-12.1,4.8-19.4C169.4,210,167.4,202.6,163.4,196.5z M116.9,190.8h3.4
			c9.9,0,17.1,0.7,21.3,1.9c5.5,1.7,9.8,4.8,12.9,9.3c3.1,4.5,4.7,10.1,4.7,16.5c0,6.1-1.4,11.4-4.3,15.6c-2.8,4.2-6.8,7.1-11.7,8.7
			c-3.6,1.2-10.2,1.7-19.8,1.7h-6.6V190.8z"/>
		<path class="st0" d="M269.1,189.5c-7.5-7.5-17-11.2-28.1-11.2c-6.9,0-13.4,1.7-19.3,5.2c-5.9,3.4-10.7,8.2-14.1,14.3
			c-3.4,6-5.2,12.7-5.2,19.8c0,10.6,3.8,19.8,11.3,27.3c7.5,7.5,16.9,11.3,27.8,11.3c10.8,0,20.1-3.8,27.6-11.3
			c7.5-7.5,11.3-16.8,11.3-27.6C280.4,206.3,276.6,197,269.1,189.5z M270,217.1c0,5.4-1.3,10.3-3.7,14.7c-2.5,4.4-6,7.9-10.4,10.4
			c-4.4,2.5-9.3,3.8-14.6,3.8c-7.8,0-14.6-2.8-20.1-8.3c-5.5-5.5-8.3-12.3-8.3-20.3c0-5.4,1.3-10.4,3.8-14.8
			c2.5-4.4,6-7.9,10.5-10.5c4.5-2.6,9.2-3.9,14.2-3.9c5.1,0,9.9,1.3,14.4,3.9c4.5,2.6,8.1,6.1,10.6,10.4
			C268.8,206.9,270,211.8,270,217.1z"/>
		<polygon class="st0" points="386,178.8 383.8,178.8 355.5,236.6 327,179.1 326.8,178.8 324.7,178.9 314,253.7 313.9,254.3 
			323.8,254.3 330.2,207.2 354.3,255.6 356.7,255.6 380.4,207.5 386.8,254.3 396.8,254.3 		"/>
		<polygon class="st0" points="478.3,190.8 478.3,180.8 434.9,180.8 434.9,254.3 478,254.3 478,244.3 445,244.3 445,219.7 
			478,219.7 478,209.8 445,209.8 445,190.8 		"/>
		<polygon class="st0" points="543.6,216.4 565.5,180.8 553.8,180.8 537.7,206.8 521.7,180.8 509.9,180.8 531.8,216.4 508.4,254.3 
			520.2,254.3 537.7,226 555.1,254.3 566.9,254.3 		"/>
	</g>
</g>
</svg>
