<?xml version="1.0" encoding="utf-8"?>
<!-- Generator: Adobe Illustrator 21.0.2, SVG Export Plug-In . SVG Version: 6.00 Build 0)  -->
<svg version="1.1" id="Layer_1" xmlns="http://www.w3.org/2000/svg" xmlns:xlink="http://www.w3.org/1999/xlink" x="0px" y="0px"
	 viewBox="0 0 104.4 198.5" style="enable-background:new 0 0 104.4 198.5;" xml:space="preserve">
<style type="text/css">
	.st0{fill:#4B4F4F;}
	.st1{fill:none;stroke:#FFFFFF;stroke-width:1.4731;stroke-miterlimit:10;}
	.st2{fill:#FFFFFF;}
</style>
<g>
	<polygon class="st0" points="0,0 0,198.5 52.2,169.7 104.4,198.5 104.4,0 	"/>
	<polyline class="st1" points="4.2,0 4.2,191.4 52.2,165 100.2,191.4 100.2,0 	"/>
	<g>
		<g>
			<path class="st2" d="M57.9,43.7c-14.1,0-25.6,11.5-25.6,25.6s11.5,25.6,25.6,25.6c14.1,0,25.6-11.5,25.6-25.6S72,43.7,57.9,43.7
				L57.9,43.7z M82.2,69.3c0,13.4-10.9,24.3-24.3,24.3c-13.4,0-24.3-10.9-24.3-24.3c0-13.4,10.9-24.3,24.3-24.3
				C71.3,44.9,82.2,55.9,82.2,69.3L82.2,69.3z"/>
			<path class="st2" d="M46.9,42c-14.4,0-26.1,11.7-26.1,26.1c0,14.4,11.7,26.1,26.1,26.1C61.3,94.2,73,82.5,73,68.1
				C73,53.7,61.3,42,46.9,42L46.9,42z M71.7,68.1c0,13.7-11.1,24.8-24.8,24.8c-13.7,0-24.8-11.1-24.8-24.8
				c0-13.7,11.1-24.8,24.8-24.8C60.6,43.3,71.7,54.4,71.7,68.1L71.7,68.1z"/>
			<path class="st2" d="M53.2,48.5c-13.6,0-24.6,11.1-24.6,24.6c0,13.6,11.1,24.6,24.6,24.6c13.6,0,24.6-11.1,24.6-24.6
				C77.9,59.6,66.8,48.5,53.2,48.5L53.2,48.5z M76.6,73.2c0,12.9-10.5,23.4-23.4,23.4c-12.9,0-23.4-10.5-23.4-23.4
				c0-12.9,10.5-23.4,23.4-23.4C66.1,49.8,76.6,60.3,76.6,73.2L76.6,73.2z"/>
			<path class="st2" d="M53.8,39.7C40.1,39.7,29,50.8,29,64.5c0,13.7,11.1,24.8,24.8,24.8c13.7,0,24.8-11.1,24.8-24.8
				C78.6,50.8,67.5,39.7,53.8,39.7L53.8,39.7z M77.3,64.5c0,13-10.5,23.5-23.5,23.5c-13,0-23.5-10.6-23.5-23.5
				c0-13,10.6-23.5,23.5-23.5C66.8,41,77.3,51.5,77.3,64.5L77.3,64.5z"/>
			<path class="st2" d="M80.6,68.7c0,11.6-9.4,21-21,21c-11.6,0-21-9.4-21-21c0-11.6,9.4-21,21-21C71.2,47.8,80.6,57.2,80.6,68.7
				L80.6,68.7z M59.6,88.5c10.9,0,19.8-8.9,19.8-19.8c0-10.9-8.9-19.8-19.8-19.8c-10.9,0-19.8,8.9-19.8,19.8
				C39.8,79.6,48.7,88.5,59.6,88.5L59.6,88.5z"/>
		</g>
		<g>
			<path class="st2" d="M24.1,129.4c-0.9,0-1.9-0.2-2.2-0.3v-2.2h1.2v1.1c0.3,0.1,0.7,0.2,1.1,0.2c1,0,1.4-0.3,1.4-0.9
				c0-0.6-0.5-0.9-1.2-1.1l-1-0.3c-1-0.4-1.6-1-1.6-2.2c0-1.3,1.2-2.3,3-2.3c0.7,0,1.6,0.1,2,0.2v2.1h-1.1v-1.1
				c-0.3-0.1-0.6-0.1-0.9-0.1c-0.9,0-1.3,0.3-1.3,0.9c0,0.5,0.3,0.7,1,0.9l0.9,0.3c1.1,0.4,1.8,1,1.8,2.2
				C27.3,128.5,26,129.4,24.1,129.4L24.1,129.4z"/>
			<path class="st2" d="M31.5,122.6c-0.2,0-0.3,0-0.6,0v5.4c0.2,0.1,0.4,0.1,0.7,0.1c1.3,0,1.9-0.8,1.9-2.7
				C33.6,123.4,32.6,122.6,31.5,122.6L31.5,122.6z M31.9,129.3c-0.4,0-0.7,0-0.9-0.1v1.7h1.1v1h-4v-1H29v-8.5h-1v-1h2.8
				c0.2,0,0.9-0.1,1.4-0.1c2.3,0,3.5,0.9,3.5,3.8C35.6,127.7,34.1,129.3,31.9,129.3L31.9,129.3z"/>
			<path class="st2" d="M39.8,122.5c-0.7,0-1.2,0.7-1.2,1.8H41C41,123.1,40.5,122.5,39.8,122.5L39.8,122.5z M38.7,125.4
				c0,1.3,0.9,2.6,2.5,2.6c0.5,0,1,0,1.5-0.1v1.1c-0.6,0.3-1.4,0.4-2.3,0.4c-2.4,0-3.8-1.4-3.8-4c0-2.4,1.3-4,3.4-4
				c2.2,0,3.1,1.2,3.1,4H38.7L38.7,125.4z"/>
			<path class="st2" d="M47.6,129.3c-2.2,0-3.5-1.2-3.5-3.9c0-2.5,1.5-4.1,3.8-4.1c0.6,0,1.4,0,1.8,0.2v2.2h-1.2v-1.1
				c-0.2-0.1-0.4-0.1-0.7-0.1c-1,0-1.8,0.8-1.8,2.7c0,1.8,1,2.8,2.3,2.8c0.6,0,1-0.1,1.4-0.2v1.1C49.2,129.2,48.5,129.3,47.6,129.3
				L47.6,129.3z"/>
			<path class="st2" d="M52.5,120.7c-0.7,0-1.2-0.6-1.2-1.2c0-0.7,0.5-1.2,1.2-1.2c0.7,0,1.3,0.5,1.3,1.2
				C53.8,120.1,53.2,120.7,52.5,120.7L52.5,120.7z M50.5,129.3v-1h1.1v-5.9h-1.1v-1h3.1v6.8h1v1H50.5L50.5,129.3z"/>
			<path class="st2" d="M59.4,125.9c-1.6,0-2,0.6-2,1.3c0,0.7,0.5,1.1,1.3,1.1c0.3,0,0.5,0,0.7-0.1V125.9L59.4,125.9z M59.7,129.3
				c-0.4,0-0.7,0.1-1.3,0.1c-1.6,0-3-0.3-3-2c0-1.6,1.3-2.5,4-2.5c0-1.1-0.2-1.6-0.5-1.9c-0.3-0.3-0.7-0.4-1.2-0.4
				c-0.2,0-0.4,0-0.6,0v1.2h-1.2v-2.2c0.5-0.1,1.4-0.2,2.4-0.2c2.3,0,3,1.1,3,2.7l0,4.2h1v1H59.7L59.7,129.3z"/>
			<polygon class="st2" points="62.7,129.3 62.7,128.3 63.9,128.3 63.9,119.5 62.7,119.5 62.7,118.6 65.9,118.6 65.9,128.3 
				67,128.3 67,129.3 62.7,129.3 			"/>
			<path class="st2" d="M69.6,120.7c-0.7,0-1.2-0.6-1.2-1.2c0-0.7,0.5-1.2,1.2-1.2c0.7,0,1.3,0.5,1.3,1.2
				C70.9,120.1,70.3,120.7,69.6,120.7L69.6,120.7z M67.6,129.3v-1h1.1v-5.9h-1.1v-1h3.1v6.8h1v1H67.6L67.6,129.3z"/>
			<path class="st2" d="M74.7,129.4c-0.9,0-1.9-0.2-2.2-0.3v-2.2h1.2v1.1c0.3,0.1,0.7,0.2,1.1,0.2c1,0,1.4-0.3,1.4-0.9
				c0-0.6-0.5-0.9-1.2-1.1l-1-0.3c-1-0.4-1.6-1-1.6-2.2c0-1.3,1.2-2.3,3-2.3c0.7,0,1.6,0.1,2,0.2v2.1h-1.1v-1.1
				c-0.3-0.1-0.6-0.1-0.9-0.1c-0.9,0-1.3,0.3-1.3,0.9c0,0.5,0.3,0.7,1,0.9l0.9,0.3c1.1,0.4,1.8,1,1.8,2.2
				C77.9,128.5,76.6,129.4,74.7,129.4L74.7,129.4z"/>
			<path class="st2" d="M81.8,129.3c-0.8,0-1.4-0.1-1.8-0.5c-0.5-0.5-0.5-1.1-0.5-2.1l0-4.1h-1.1v-1.1h1.1l0-1.5l2-0.2v1.7h1.8v1.1
				h-1.8l0,3.5c0,0.5-0.1,1.2,0.3,1.6c0.2,0.2,0.6,0.3,0.9,0.3c0.3,0,0.6,0,0.8-0.1v1.1C82.9,129.2,82.4,129.3,81.8,129.3
				L81.8,129.3z"/>
			<path class="st2" d="M23.7,110.4v4.1c0.3,0.1,0.7,0.1,1,0.1c1.2,0,2.1-0.6,2.1-2C26.7,111.1,25.6,110.4,23.7,110.4L23.7,110.4z
				 M24.2,105.7c-0.2,0-0.4,0-0.5,0v3.8c1.8,0,2.6-0.7,2.6-2C26.3,106.2,25.6,105.7,24.2,105.7L24.2,105.7z M24.9,115.5
				c-0.5,0-0.9,0-1.4,0H21v-0.9h1.1v-8.9h-1.2v-0.9h2.3c0.3,0,0.8,0,1,0c2.4,0,3.6,0.7,3.6,2.4c0,1.6-1.1,2.5-2.3,2.7
				c1.6,0.1,2.8,0.9,2.8,2.5C28.4,114.5,26.9,115.5,24.9,115.5L24.9,115.5z"/>
			<path class="st2" d="M34.3,109.7v-0.3c0-0.6-0.4-1.1-1-1.1c-0.2,0-0.3,0-0.5,0v6.3h1.2v0.9h-3.9v-0.9h1.2v-6.4h-1.2v-0.9h2.7
				c0.4,0,0.5,0,0.9,0c1.2,0,1.6,0.3,1.6,1.3v1H34.3L34.3,109.7z"/>
			<path class="st2" d="M40.1,108.3c-1.4,0-1.9,1.4-1.9,3.1c0,1.5,0.4,3.1,2,3.1c1.4,0,1.9-1.6,1.9-3.3
				C42.1,109.8,41.5,108.3,40.1,108.3L40.1,108.3z M40.1,115.7c-2.5,0-3.6-1.8-3.6-4.2c0-2.4,1.4-4.3,3.6-4.3c2.4,0,3.6,1.7,3.6,4
				C43.7,113.6,42.5,115.7,40.1,115.7L40.1,115.7z"/>
			<path class="st2" d="M55.2,115.5v-4.9c0-0.8-0.1-1.3-0.5-1.7c-0.5-0.5-1.3-0.6-1.9-0.6c-0.4,0-0.6,0-0.8,0
				c0.2,0.4,0.4,0.9,0.4,1.5v4.7h1.1v0.9h-2.6v-4.9c0-0.9-0.1-1.3-0.5-1.7c-0.4-0.4-1.3-0.6-2-0.6c-0.1,0-0.2,0-0.3,0v6.3h1.2v0.9
				h-3.9v-0.9h1.2v-6.4h-1.2v-0.9h2.4c0.4,0,0.8,0,1.3,0c0.9,0,1.6,0.1,2.3,0.4c0.7-0.3,1.5-0.5,2.5-0.5c0.9,0,1.8,0.3,2.3,0.8
				c0.5,0.6,0.7,1,0.7,1.8v4.7h1.1v0.9H55.2L55.2,115.5z"/>
			<path class="st2" d="M62.3,108.3c-1,0-1.5,0.9-1.5,1.9h2.9C63.7,109,63.1,108.3,62.3,108.3L62.3,108.3z M60.7,111.1
				c0,2.2,1,3.4,2.7,3.4c0.8,0,1.3-0.1,1.7-0.3v1c-0.6,0.2-1.4,0.4-2.2,0.4c-2.1,0-3.8-1.4-3.8-4.1c0-2.2,1-4.1,3.3-4.1
				c1.9,0,2.8,1,2.8,3.8H60.7L60.7,111.1z"/>
			<polygon class="st2" points="66.7,115.5 66.7,114.6 67.9,114.6 67.9,105.2 66.7,105.2 66.7,104.3 69.4,104.3 69.4,114.6 
				70.6,114.6 70.6,115.5 66.7,115.5 			"/>
			<path class="st2" d="M73.7,106.3c-0.6,0-1.1-0.5-1.1-1.1c0-0.6,0.5-1.1,1.1-1.1c0.6,0,1.1,0.5,1.1,1.1
				C74.7,105.9,74.3,106.3,73.7,106.3L73.7,106.3z M71.8,115.5v-0.9H73v-6.4h-1.2v-0.9h2.7v7.2h1.2v0.9H71.8L71.8,115.5z"/>
			<path class="st2" d="M81,111.8c-1.7,0-2.5,0.4-2.5,1.5c0,0.9,0.7,1.2,1.9,1.2c0.2,0,0.4,0,0.6-0.1V111.8L81,111.8z M81.3,115.5
				c-0.3,0-0.9,0.1-1.4,0.1c-2.2,0-3-0.8-3-2.1c0-2.1,2.3-2.5,4-2.5c0-1.2-0.1-1.8-0.5-2.1c-0.3-0.3-0.9-0.5-1.5-0.5
				c-0.1,0-0.4,0-0.5,0v1.3h-1v-2.2c0.5-0.1,1.2-0.2,2.1-0.2c1.9,0,3,0.8,3,2.5l0,4.8h1.1v0.9H81.3L81.3,115.5z"/>
		</g>
	</g>
</g>
</svg>
