<svg width="180" height="63" viewBox="0 0 180 63" xmlns="http://www.w3.org/2000/svg"><g fill="none" fill-rule="evenodd"><path fill="#000" d="M78.662 8.51v4.664h6.871v3.86h-6.87v6.273h9.428v3.86H74.347V4.65h13.424v3.86h-9.109M94.37 21.699c.8 1.158 2.175 1.93 3.74 1.93 2.334 0 4.091-1.801 4.091-4.247 0-2.251-1.566-4.278-3.995-4.278a4.756 4.756 0 0 0-3.835 1.93V21.7zm-4.154 5.468V4.328h4.155v8.363c1.215-.964 2.685-1.447 4.379-1.447 4.219 0 7.607 3.539 7.607 8.138 0 2.124-.768 4.054-1.982 5.47-1.374 1.608-3.547 2.637-5.849 2.637-1.565 0-3.036-.482-4.315-1.576v1.254h-3.995zM123.162 11.566v15.601h-3.995v-1.254c-1.214 1.094-2.685 1.576-4.186 1.576a6.772 6.772 0 0 1-5.274-2.51c-.99-1.221-1.566-2.83-1.566-5.146v-8.267h4.155v8.428c0 1.415.287 2.123.767 2.67.639.708 1.534.965 2.333.965 1.757 0 3.036-1.19 3.611-1.93V11.566h4.155M126.969 22.406c1.054.966 2.685 1.545 4.25 1.545 1.12 0 1.983-.547 1.983-1.32 0-2.347-7.51-1.51-7.51-6.53 0-2.99 2.875-4.857 5.943-4.857 2.014 0 4.22.773 5.242 1.577l-1.95 3.024c-.798-.58-1.854-1.062-2.972-1.062-1.15 0-2.11.45-2.11 1.254 0 2.027 7.511 1.223 7.511 6.627 0 2.992-2.908 4.825-6.167 4.825-2.142 0-4.411-.74-6.233-2.09l2.013-2.993M82.561 43.852c1.47 0 2.206-.354 2.717-.9.48-.515.735-1.158.735-1.898s-.255-1.416-.735-1.93c-.511-.547-1.247-.9-2.717-.9h-3.899v5.628h3.9zm-3.899 3.86v9.168h-4.315V34.363h8.406c2.876 0 4.57.707 5.817 2.026 1.118 1.158 1.758 2.895 1.758 4.665 0 1.769-.64 3.506-1.758 4.663-1.215 1.288-2.94 1.996-5.817 1.996h-4.09zM92.003 56.88h4.154V34.041h-4.154zM110.253 46.747a4.758 4.758 0 0 0-3.836-1.93c-2.429 0-3.995 2.027-3.995 4.279 0 2.444 1.758 4.246 4.091 4.246 1.566 0 2.94-.773 3.74-1.93v-4.665zm4.155 10.133h-3.996v-1.254c-1.278 1.093-2.749 1.576-4.314 1.576-2.3 0-4.475-1.03-5.85-2.638-1.213-1.415-1.98-3.345-1.98-5.468 0-4.6 3.387-8.139 7.606-8.139 1.758 0 3.324.579 4.538 1.576V41.28h3.996V56.88zM117.234 56.88V41.28h3.995v1.254c1.183-.964 2.653-1.576 4.378-1.576 2.142 0 4.092.965 5.37 2.51 1.023 1.222 1.598 2.797 1.598 5.468v7.945h-4.154v-8.267c0-1.544-.352-2.349-.927-2.927-.544-.547-1.374-.869-2.333-.869-1.758 0-3.196 1.126-3.771 1.93V56.88h-4.156M146.598 56.88c-.543.193-1.79.322-2.588.322-2.493 0-4.315-.837-5.37-2.252-.799-1.062-1.15-2.444-1.15-4.664v-5.469h-4.315V41.28h4.315v-4.343h4.155v4.343h5.113v3.538h-5.113v5.951c0 .966.159 1.544.51 1.962.417.483 1.088.773 2.11.773.607 0 1.407-.097 1.694-.161l.639 3.538M158.188 47.07c-.127-1.384-1.374-2.735-3.068-2.735-1.726 0-3.132 1.319-3.324 2.734h6.392zm3.868 7.334c-1.503 1.8-3.964 2.798-6.361 2.798-4.634 0-8.118-3.217-8.118-8.106 0-4.343 2.941-8.139 7.543-8.139 4.283 0 7.319 3.635 7.319 7.978 0 .418-.032.836-.096 1.19h-10.738c.223 2.187 1.981 3.7 4.187 3.7 1.757 0 3.164-.998 3.898-1.802l2.366 2.38zM164.6 56.88V41.28h3.996v1.254c1.181-.964 2.652-1.576 4.378-1.576 2.141 0 4.09.965 5.369 2.51 1.023 1.222 1.598 2.797 1.598 5.468v7.945h-4.155v-8.267c0-1.544-.351-2.349-.926-2.927-.544-.547-1.375-.869-2.334-.869-1.757 0-3.196 1.126-3.77 1.93V56.88H164.6"/><path d="M25.107 7.923c2.738-1.639 5.788-2.748 9.022-3.296 3.008 1.566 5.656 3.74 7.825 6.309a30.222 30.222 0 0 1 5.245.443c.16.028.32.06.48.09-1.688-2.747-3.767-5.006-6.175-7.018C39.485 2.763 37.242 1.3 34.818.178a29.872 29.872 0 0 0-7.63 1.96 30.404 30.404 0 0 0-6.362 3.52c.215.092.432.18.645.278a30.046 30.046 0 0 1 3.636 1.987" fill="#F9CA64"/><path d="M25.107 7.923a30.046 30.046 0 0 0-3.636-1.987c-.213-.098-.43-.186-.645-.278a29.808 29.808 0 0 0-4.36-1.498 30.669 30.669 0 0 0-3.953 3.558 30.412 30.412 0 0 0-7.976 17.098l.089.005c1.397.097 2.769.293 4.109.574A26.177 26.177 0 0 1 17.4 8.893a25.927 25.927 0 0 1 9.698 6.032 29.97 29.97 0 0 1 4.044-1.938 30.487 30.487 0 0 0-6.035-5.064" fill="#CAD266"/><path d="M55.738 19.122a30.368 30.368 0 0 0-2.38-5.982 29.878 29.878 0 0 0-5.68-1.67c-.16-.031-.319-.063-.48-.09a30.237 30.237 0 0 0-6.71-.406 29.984 29.984 0 0 0-13.39 3.95 30.62 30.62 0 0 0-11.973 12.587 30.139 30.139 0 0 1 3.72 2.049c4.092-8.08 12.236-13.816 21.863-14.32a25.75 25.75 0 0 1 9.592 1.316 26.219 26.219 0 0 1 2.252 8.84c1.305-.276 2.64-.47 4.002-.569.07-.005.142-.008.214-.012a30.726 30.726 0 0 0-1.03-5.693" fill="#93C881"/><path d="M4.64 29.102C17.29 30.125 27.414 40.28 28.484 53 15.833 51.976 5.709 41.82 4.639 29.102zm28.13 26.12s.01-1.205-.01-1.774c-.122-3.186-.874-6.69-2.118-9.547 0-.002.003-.003.003-.005A30.615 30.615 0 0 0 18.843 29.56a29.903 29.903 0 0 0-10.109-4.165 30.078 30.078 0 0 0-4.108-.574l-.09-.005a29.81 29.81 0 0 0-2.002-.077c-.728 0-1.448.034-2.163.085-.045.678-.076 1.36-.076 2.05 0 .75.037 1.493.09 2.23 1.09 15.08 13.115 27.144 28.113 28.18.016 0-.264.002-.248.003.013.001-.077.001.277.002v5.564h4.302l-.03-5.695h-.029V55.22z" fill="#009D58"/><path d="M32.813 52.99c1.07-12.674 11.133-22.802 23.726-23.88-1.07 12.675-11.133 22.803-23.726 23.88zm27.994-28.175a30.38 30.38 0 0 0-2.045-.078c-.67 0-1.334.032-1.994.078-.072.004-.143.007-.214.012-1.362.1-2.697.293-4.002.569-9.983 2.102-18.173 9.158-21.904 18.494l.002.011a30.467 30.467 0 0 1 2.09 9.107c.01.162-.003.333.007.494.031.569.023 1.72.023 1.72v2.05c14.853-1.105 26.913-13.144 27.995-28.176.053-.735.104-1.475.104-2.223 0-.692-.016-1.377-.062-2.058z" fill="#40B075"/></g></svg>