<?xml version="1.0" encoding="utf-8"?>
<!-- Generator: Adobe Illustrator 21.1.0, SVG Export Plug-In . SVG Version: 6.00 Build 0)  -->
<svg version="1.1" id="Ebene_1" xmlns="http://www.w3.org/2000/svg" xmlns:xlink="http://www.w3.org/1999/xlink" x="0px" y="0px"
	 viewBox="0 0 420.8 225.8" style="enable-background:new 0 0 420.8 225.8;" xml:space="preserve">
<style type="text/css">
	.st0{clip-path:url(#SVGID_2_);fill:#CC1719;}
	.st1{clip-path:url(#SVGID_2_);fill:none;stroke:#CC1719;stroke-width:2.519;stroke-miterlimit:10;}
	.st2{clip-path:url(#SVGID_2_);fill:#266B21;}
</style>
<g>
	<defs>
		<rect id="SVGID_1_" width="420.8" height="225.8"/>
	</defs>
	<clipPath id="SVGID_2_">
		<use xlink:href="#SVGID_1_"  style="overflow:visible;"/>
	</clipPath>
	<path class="st0" d="M418.4,5.6c-1.5-2.4-13.8-10.6-41.5,4.6c-16.3,9.8-27.9,20.7-41.2,37.6c-1.8,2.5-5.2,7.4-6.7,10.1
		c-1.3,2.3-3,4.7-2.8,7.2c-0.2,1.3,2.6,4.7,5.4,2.8c2.3-2.4,9.2-11,10.8-12.8c6.1-7.6,15.7-16.4,22.7-23.1
		c15.3-13.4,22.7-18.9,33.4-21c14-1.6,3,17.4-25.1,36.9c-14,9.4-37.2,25.1-37.6,25.5c-1.1,1-1.2,3.1-0.3,4.5c0.7,1.2,2.1,1.8,4,1.3
		c0,0,21.9-10.7,28.6-13.1c9.5-3.1,14.5-2.1,17,0.3c3.4,3.4,2,15.9-15.8,17.2c-0.9,0.1-1.9,0.2-2.8,0.2c0,0,0,0,0,0
		c-0.1,0-0.1,0-0.2,0c-13.3,0.5-22.9-3-25.3-0.1c-0.6,1.4,0.3,2.3,1.5,3.9c1,1.5,7.5,8.6,6.3,16.4c-1.2,3.7-5.6,3.5-7.8,2.1
		c-3.1-2-8.1-7.4-9.9-11.8c-0.6-1.6-1.9-2.3-3.2-1.6c-1,0.6-1.3,1.6-1.2,2.7c0.3,4.4,1.5,8.6,4,12.3c4,6.1,12.9,16.2,23.7,8.8
		c3.7-3.1,3.9-9.9,2.2-14.8c-2.1-5.9-4.4-9-4.6-9.7c0.6,0,8.2,0.9,11.8,1c3.2,0.1,6.5,0.3,9.5-0.4c8.5-1.3,13.6-4.7,18.2-9.4
		c2.8-2.9,4.6-6.3,5.2-10.3c0.6-3.6,0-8.9-2.1-11.4c-2.4-3.5-7.9-5.8-13.3-6c-1.5-0.1-5.8,0.1-5.9,0
		C376.1,55.1,427.6,22.1,418.4,5.6"/>
	<path class="st1" d="M418.4,5.6c-1.5-2.4-13.8-10.6-41.5,4.6c-16.3,9.8-27.9,20.7-41.2,37.6c-1.8,2.5-5.2,7.4-6.7,10.1
		c-1.3,2.3-3,4.7-2.8,7.2c-0.2,1.3,2.6,4.7,5.4,2.8c2.3-2.4,9.2-11,10.8-12.8c6.1-7.6,15.7-16.4,22.7-23.1
		c15.3-13.4,22.7-18.9,33.4-21c14-1.6,3,17.4-25.1,36.9c-14,9.4-37.2,25.1-37.6,25.5c-1.1,1-1.2,3.1-0.3,4.5c0.7,1.2,2.1,1.8,4,1.3
		c0,0,21.9-10.7,28.6-13.1c9.5-3.1,14.5-2.1,17,0.3c3.4,3.4,2,15.9-15.8,17.2c-0.9,0.1-1.9,0.2-2.8,0.2c0,0,0,0,0,0
		c-0.1,0-0.1,0-0.2,0c-13.3,0.5-22.9-3-25.3-0.1c-0.6,1.4,0.3,2.3,1.5,3.9c1,1.5,7.5,8.6,6.3,16.4c-1.2,3.7-5.6,3.5-7.8,2.1
		c-3.1-2-8.1-7.4-9.9-11.8c-0.6-1.6-1.9-2.3-3.2-1.6c-1,0.6-1.3,1.6-1.2,2.7c0.3,4.4,1.5,8.6,4,12.3c4,6.1,12.9,16.2,23.7,8.8
		c3.7-3.1,3.9-9.9,2.2-14.8c-2.1-5.9-4.4-9-4.6-9.7c0.6,0,8.2,0.9,11.8,1c3.2,0.1,6.5,0.3,9.5-0.4c8.5-1.3,13.6-4.7,18.2-9.4
		c2.8-2.9,4.6-6.3,5.2-10.3c0.6-3.6,0-8.9-2.1-11.4c-2.4-3.5-7.9-5.8-13.3-6c-1.5-0.1-5.8,0.1-5.9,0
		C376.1,55.1,427.6,22.1,418.4,5.6z"/>
	<path class="st2" d="M211.9,162.7c10.8,10.6,27.3,15.6,42.7,15.6c30.3,0,51-16.5,54.9-35c3.2-15.1-3.4-24.6-17.4-29.9l-13.7-5.2
		c-10.2-3.9-16.7-5.7-15.6-10.9c1-4.9,6.4-7.4,14.3-7.4c9,0,15.5,2.7,22.6,7.9l19.9-18.2c-9.1-9.9-23.4-14.6-37.3-14.6
		c-26.5,0-48.5,15.3-52.5,34c-3.4,15.8,5.9,25.7,18,30.4l13.9,5.7c9.5,3.7,15.3,5.4,14.2,10.6c-1,4.9-5.8,7.7-15.5,7.7
		c-9,0-18.9-4.4-26.2-10.6L211.9,162.7z M150,118.9l6.1-28.9h13.5c12,0,17.9,3.7,15.8,13.5c-2.1,9.8-9.3,15.5-22,15.5H150z
		 M105.6,176.4h32.2l7.4-34.6h15c25.4,0,51.1-11.6,56.8-38.3c5.9-27.6-14.7-36.3-40.9-36.3h-47.1L105.6,176.4z M8.8,176.4h80.4
		l5.1-24.2H46.1l4.1-19.5h34.7l5.1-24.2H55.4L59,91.3h46.4l5.1-24.2H32L8.8,176.4z"/>
	<path class="st2" d="M289.4,219.6h1.9l1.7-8c0.8-4,3.4-6.5,6.1-6.5c1.7,0,3.3,0.8,3.3,2.8c0,0.5-0.1,1.1-0.2,1.6l-2.2,10.1h1.9
		l2.2-10c0.2-0.7,0.2-1.4,0.2-1.8c0-3-2-4.2-4.7-4.2c-2.3,0-4.4,1.5-5.6,3.3H294l0.5-2.8h-1.8L289.4,219.6z M276.7,210.7
		c0.7-2.9,2.8-5.6,6-5.6c2.6,0,4.3,1.8,4.3,4.4c0,0.4,0,0.8,0,1.2H276.7z M288.7,212.3c0.1-0.9,0.2-1.8,0.2-2.7
		c0-3.6-2.2-6.1-5.9-6.1c-5.4,0-8.5,5-8.5,9.9c0,4.1,2.2,6.6,6.4,6.6c3.7,0,6.1-2,7.1-5.5H286c-0.7,2.3-2.6,3.9-5.1,3.9
		c-3.1,0-4.5-2.1-4.5-4.9c0-0.4,0-0.8,0.1-1.2H288.7z M259.4,214.5c-0.2,3.9,2.9,5.5,5.9,5.5c3,0,6.3-1.3,6.3-4.8
		c0-2.9-2.9-3.8-5.1-4.6c-1.8-0.7-3.3-1.4-3.3-2.9c0-2.2,2.2-2.7,3.9-2.7c2.2,0,3.8,1,3.7,3.4h1.9c0.1-3.6-2.3-5-5.6-5
		c-2.5,0-5.8,1.2-5.8,4.3c0,2.6,2.1,3.5,4.2,4.3c2.1,0.8,4.2,1.4,4.2,3.5c0,2-2.2,2.9-3.9,2.9c-2.2,0-4.5-0.9-4.4-3.9H259.4z
		 M242.9,219.6h1.9l1.7-8c0.8-4,3.4-6.5,6.1-6.5c1.7,0,3.3,0.8,3.3,2.8c0,0.5-0.1,1.1-0.2,1.6l-2.2,10.1h1.9l2.2-10
		c0.2-0.7,0.2-1.4,0.2-1.8c0-3-2-4.2-4.7-4.2c-2.3,0-4.4,1.5-5.5,3.3h-0.1l1.9-8.8h-1.9L242.9,219.6z M242.2,208.8
		c0.1-3.6-2.5-5.3-5.8-5.3c-5.4,0-8.5,5.2-8.5,10.1c0,3.8,2.2,6.5,6,6.5c3.8,0,6.1-1.9,7.3-5.5h-1.9c-0.8,2.3-2.6,3.9-5.2,3.9
		c-3,0-4.4-2.1-4.4-4.8c0-4.1,2.2-8.5,6.8-8.5c2.2,0,3.9,1.4,3.8,3.7H242.2z M215.5,208.6c0.4-2.6,2.5-3.5,4.9-3.5
		c1.5,0,3.3,0.4,3.3,2.2c0,2.1-0.6,2.8-1.9,3.1c-1.2,0.3-3,0.2-5,0.5c-2.8,0.5-5.4,1.5-5.4,4.8c0,3.1,2.2,4.3,5,4.3
		c2.2,0,4.3-1.1,5.4-2.9l0.1,0.1c0,0.3-0.1,0.6-0.1,0.8c0,1,0.6,1.7,1.7,1.7c0.5,0,1.2-0.1,1.6-0.2l0.3-1.5c-0.3,0-0.5,0.1-0.8,0.1
		c-0.5,0-1-0.1-1-0.6c0-0.9,0.3-1.8,1-5.3c0.3-1.4,1-3.8,1-5.3c0-2.8-3.3-3.5-5.4-3.5c-3.4,0-6.1,1.6-6.6,5.1H215.5z M222.5,213.9
		c-0.6,2.7-2.5,4.6-5.6,4.6c-1.8,0-3.5-0.8-3.5-2.8c0-3.3,3.8-3.4,6.2-3.6c1-0.1,2.8-0.1,3.5-0.9l0.1,0.1L222.5,213.9z M191.4,219.6
		h2.1l6.4-13.1h0.1l1.1,13.1h2.1l8.2-15.6h-2l-6.6,13.2h-0.1l-1.1-13.2h-2.2l-6.5,13.3h-0.1l-1.2-13.3h-2L191.4,219.6z M175.6,210.7
		c0.7-2.9,2.8-5.6,6-5.6c2.6,0,4.3,1.8,4.3,4.4c0,0.4,0,0.8,0,1.2H175.6z M187.6,212.3c0.1-0.9,0.2-1.8,0.2-2.7
		c0-3.6-2.2-6.1-5.9-6.1c-5.4,0-8.5,5-8.5,9.9c0,4.1,2.2,6.6,6.4,6.6c3.7,0,6.1-2,7.1-5.5H185c-0.7,2.3-2.6,3.9-5.1,3.9
		c-3.1,0-4.5-2.1-4.5-4.9c0-0.4,0-0.8,0.1-1.2H187.6z M172.4,204h-1.8l-0.7,3.2h-0.1c-0.4-2.5-2.8-3.7-5.1-3.7c-5,0-8,4.8-8,9.4
		c0,3.6,2,6.4,5.8,6.4c2.1,0,4.3-1.1,5.3-2.9l0.1,0.1c-0.7,2.7-1.3,7.8-6.1,7.8c-2.2,0-4.4-0.8-4.4-3.5h-1.9c0.1,3.7,2.8,5.1,6,5.1
		c4.8,0,6.7-2.4,7.8-7.9L172.4,204z M158.7,212.7c0-3.5,2.3-7.6,6.2-7.6c3.1,0,4.3,2,4.3,4.8c0,3.5-2.4,7.8-6.2,7.8
		C160,217.7,158.7,215.4,158.7,212.7 M139.7,205.6h2.8l-2.2,10.4c-0.2,0.7-0.2,1.3-0.2,1.6c0,1.9,1.5,2.2,2.9,2.2
		c0.6,0,1.3-0.1,1.9-0.1l0.3-1.7c-0.8,0.1-1.5,0.2-2.2,0.2c-0.7,0-1-0.5-1-1.1c0-0.5,0.1-0.8,0.2-1.5l2.2-10h3.2l0.3-1.6h-3.1l1-4.7
		h-1.9l-1,4.7H140L139.7,205.6z M122.6,219.6h1.9l1.2-5.7l3.3-2.8l4.2,8.5h2.1l-4.7-9.6l7.4-6h-2.5l-9.1,7.6l-0.1-0.1l2.9-13.6h-1.9
		L122.6,219.6z M111.8,219.6h1.9l1.8-8.2c0.6-2.9,2.5-5.7,5.9-5.8c0.4,0,0.7,0,1.1,0l0.4-1.9c-0.3,0-0.7,0-1,0
		c-2.8,0-4.5,1.6-5.7,3.8h-0.1l0.8-3.6h-1.7L111.8,219.6z M99.6,208.6c0.4-2.6,2.5-3.5,4.9-3.5c1.5,0,3.3,0.4,3.3,2.2
		c0,2.1-0.6,2.8-1.9,3.1c-1.2,0.3-3,0.2-5,0.5c-2.8,0.5-5.4,1.5-5.4,4.8c0,3.1,2.2,4.3,5,4.3c2.2,0,4.3-1.1,5.4-2.9l0.1,0.1
		c0,0.3-0.1,0.6-0.1,0.8c0,1,0.6,1.7,1.7,1.7c0.5,0,1.2-0.1,1.6-0.2l0.3-1.5c-0.3,0-0.5,0.1-0.8,0.1c-0.5,0-1-0.1-1-0.6
		c0-0.9,0.3-1.8,1-5.3c0.3-1.4,1-3.8,1-5.3c0-2.8-3.3-3.5-5.4-3.5c-3.4,0-6.1,1.6-6.6,5.1H99.6z M106.5,213.9
		c-0.6,2.7-2.5,4.6-5.6,4.6c-1.8,0-3.5-0.8-3.5-2.8c0-3.3,3.8-3.4,6.2-3.6c1-0.1,2.8-0.1,3.5-0.9l0.1,0.1L106.5,213.9z M70,219.6h2
		l4.1-19.9h0.1l3.5,19.9h2.1l12-19.6h0.1l-4.5,19.6h2L96,198h-3l-11.9,19.4L77.7,198h-3L70,219.6z M36,219.6h1.9l1.7-7.9
		c0.8-3.6,3.1-6.5,5.8-6.5c1.8,0,2.6,1.3,2.6,2.8c0,0.5-0.1,1-0.2,1.5l-2.2,10.2h1.9l1.5-7.2c0.9-4,2.4-7.3,5.7-7.3c2,0,3,1.1,3,2.7
		c0,0.5-0.1,1-0.2,1.6l-2.2,10.2h1.9l2.2-10.2c0.1-0.6,0.2-1.2,0.2-1.8c0-2.4-1.3-4.1-4.3-4.1c-2.3,0-4.3,1.4-5.5,3.3h-0.1
		c-0.2-2.2-1.6-3.3-3.8-3.3c-2.3,0-4.4,1.4-5.5,3.2l-0.1-0.1l0.6-2.7h-1.8L36,219.6z M23.3,210.7c0.7-2.9,2.8-5.6,6-5.6
		c2.6,0,4.3,1.8,4.3,4.4c0,0.4,0,0.8,0,1.2H23.3z M35.3,212.3c0.1-0.9,0.2-1.8,0.2-2.7c0-3.6-2.2-6.1-5.9-6.1c-5.4,0-8.5,5-8.5,9.9
		c0,4.1,2.2,6.6,6.4,6.6c3.7,0,6.1-2,7.1-5.5h-1.9c-0.7,2.3-2.6,3.9-5.1,3.9c-3.1,0-4.5-2.1-4.5-4.9c0-0.4,0-0.8,0.1-1.2H35.3z
		 M0,219.6h8.1c7.8,0,11.8-6.2,11.8-13c0-5.2-2-8.7-8.2-8.7h-7L0,219.6z M6.4,199.7h4.9c4.3,0,6.5,2.2,6.5,6.5c0,6-3,11.7-10.2,11.6
		H2.5L6.4,199.7z"/>
</g>
</svg>
