<svg width="181" height="65" xmlns="http://www.w3.org/2000/svg" xmlns:xlink="http://www.w3.org/1999/xlink">
    <defs>
        <path id="a" d="M.029.459h12.55v20.475H.03z"/>
    </defs>
    <g fill="none" fill-rule="evenodd">
        <g transform="translate(0 12.904)">
            <mask id="b" fill="#fff">
                <use xlink:href="#a"/>
            </mask>
            <path fill="#004D84" mask="url(#b)" d="M0 .459h12.321v4.645h-6.59v3.154h6.16v4.474h-6.16v3.556h6.848v4.646H0V.459"/>
        </g>
        <path d="M22.971 13.363h5.731v13.535c0 4.904-1.977 7.342-7.049 7.342-5.587 0-7.049-2.266-7.049-7.342V13.363h5.731v14.625c0 1.75.23 2.466 1.318 2.466 1.089 0 1.318-.716 1.318-2.466V13.363m8.243 20.475h5.73V25.78h1.061c1.003 0 1.576.316 1.576 2.065 0 1.004.086 2.036.086 3.04s.057 2.495.43 2.954h6.075v-.287a1.227 1.227 0 0 1-.602-.603c-.144-.286-.258-1.26-.258-2.408v-1.692c0-1.204-.029-2.58-.544-3.498-.545-.975-1.577-1.549-2.723-1.635v-.057c2.006-.287 3.41-1.664 3.41-4.933 0-3.413-1.69-5.362-5.645-5.362h-8.596v20.475zm5.73-16.346h.66c1.289 0 2.12.401 2.12 2.094 0 1.978-1.002 2.408-1.948 2.408h-.831v-4.502zM47.623 23.6c0 6.538 0 10.64 7.364 10.64s7.364-4.102 7.364-10.64c0-6.338 0-10.64-7.364-10.64s-7.364 4.302-7.364 10.64zm8.826 0c0 5.994-.23 6.854-1.462 6.854s-1.461-.86-1.461-6.853c0-5.994.23-6.854 1.461-6.854 1.232 0 1.462.86 1.462 6.854z" fill="#004D84"/>
        <path d="M74.79 22.579l.955-.027c.002.051.006.156.016.309.015.259.039.56.072.9.095.973.246 2.059.468 3.229.634 3.343 1.698 6.685 3.293 9.8a28.35 28.35 0 0 0 3.064 4.778c1.713 2.148 3.894 4.142 6.435 5.975 2.32 1.674 4.808 3.124 7.296 4.343.87.427 1.679.794 2.404 1.101a32.254 32.254 0 0 0 .901.366l-.334.896-.25-.098c-.2-.079-.43-.174-.69-.284a49.52 49.52 0 0 1-2.451-1.122c-2.534-1.242-5.068-2.718-7.435-4.427-2.606-1.88-4.85-3.932-6.623-6.153a29.302 29.302 0 0 1-3.167-4.939c-1.64-3.203-2.732-6.631-3.381-10.058a37.33 37.33 0 0 1-.48-3.315 25.793 25.793 0 0 1-.093-1.274z" fill="#004D84" fill-rule="nonzero"/>
        <path d="M69.16 49.148l-2.207-1.997 2.956.338c1.328.152 2.4.006 6.304-.73 2.302-.434 3.692-.647 5.206-.752 4.05-.28 7.267.512 9.882 2.855l.6.537-.427.682c-1.995 3.198-6.077 4.378-11.036 3.758-4.275-.535-8.744-2.4-11.277-4.691zm11.515 2.794c3.88.485 6.993-.258 8.683-2.202-2.06-1.528-4.585-2.048-7.808-1.825-1.419.098-2.75.302-4.984.723-1.745.329-2.954.546-3.889.674 2.246 1.284 5.173 2.276 7.998 2.63z" fill="#004D84" fill-rule="nonzero"/>
        <path fill="#004D84" d="M70.333 7.033l-.283.147-1.022-1.969.283-.146 1.022 1.968m3.049-1.338l-.299.112-.779-2.077.298-.112.78 2.077m3.188-.964l-.31.075-.525-2.155.31-.076.524 2.156m3.281-.574l-.317.037-.264-2.201.317-.039.264 2.203m17.614 1.241l.28.154-1.069 1.943-.28-.154 1.069-1.943m-3.257-1.525l.295.119-.827 2.058-.297-.12.829-2.057M90.79 2.75l.309.083-.577 2.142-.308-.082.577-2.143m-3.526-.704l.316.045-.316 2.195-.315-.045.315-2.195m23.172 16.805l.138.288-1.998.96-.138-.287 1.998-.961m-1.765-3.134l.172.268-1.87 1.193-.171-.268 1.87-1.193m-2.129-2.902l.203.247-1.713 1.408-.201-.246 1.71-1.409m-2.458-2.625l.231.22-1.533 1.604-.23-.22 1.532-1.604m-44.206 6.366l-.17.271-1.88-1.174.168-.27 1.882 1.173m1.943-2.705l-.2.249-1.726-1.392.2-.249 1.726 1.392m2.254-2.453l-.228.222-1.548-1.587.228-.223 1.548 1.588m48.808 14.594l.068.312-2.17.46-.065-.312 2.167-.46m-60.043 9.584l-.018-.333 2.212-.135.02.333-2.214.135m.445 3.55l-.057-.313 2.181-.394.057.313-2.181.394m16.085 20.932l-.282-.147 1.018-1.97.283.147-1.019 1.97m3.295 1.442l-.299-.11.776-2.078.299.11-.776 2.079m3.443 1.037l-.31-.075.522-2.156.31.075-.522 2.156m3.542.617l-.316-.038.26-2.203.316.037-.26 2.204m16.802-5.412l.28-.154 1.07 1.943-.28.154-1.07-1.943m-3.015 1.414l.295-.12.832 2.058-.296.12-.831-2.058m-3.162 1.044l.308-.083.578 2.141-.308.083-.578-2.141m-3.265.656l.316-.046.319 2.196-.316.046-.319-2.196M56.306 46.606l-.135-.288 2.006-.943.137.288-2.008.943m1.738 3.15l-.169-.27 1.879-1.176.17.27-1.88 1.176m2.102 2.92l-.2-.248 1.724-1.394.201.249-1.725 1.393m2.436 2.646l-.228-.223 1.546-1.59.228.223-1.546 1.59"/>
        <path d="M76.136 23.983l-.71.651-.645-.715c-.338-.374-.82-1.015-1.299-1.865-.87-1.543-1.369-3.18-1.291-4.846.074-1.586.668-3.1 1.603-4.506.592-.89 1.186-1.551 1.6-1.932l.71-.652.645.715c.338.374.82 1.015 1.3 1.865.87 1.543 1.368 3.179 1.29 4.845-.074 1.586-.668 3.101-1.603 4.508-.592.89-1.185 1.55-1.6 1.932zm.01-2.992c.759-1.14 1.23-2.341 1.285-3.537.059-1.258-.338-2.56-1.047-3.817a10.464 10.464 0 0 0-.413-.672c-.2.246-.398.513-.586.796-.76 1.14-1.23 2.341-1.286 3.536-.058 1.258.339 2.561 1.047 3.818.133.236.272.461.413.673.2-.247.398-.513.587-.797zM73.73 24.27l-.192.944-.941-.199a9.417 9.417 0 0 1-1.122-.33 11.73 11.73 0 0 1-2.398-1.16c-1.025-.653-1.884-1.452-2.517-2.415a7.734 7.734 0 0 1-.918-1.974c-.468-1.514-.53-3.091-.36-4.535.032-.268.064-.467.088-.585l.191-.944.942.199c.24.05.63.156 1.122.33.815.288 1.63.67 2.398 1.159 1.024.654 1.884 1.453 2.516 2.416.396.602.7 1.264.919 1.974.468 1.513.53 3.091.36 4.534a7.665 7.665 0 0 1-.088.585zm-2.097-4.555a5.832 5.832 0 0 0-.69-1.489c-.473-.72-1.136-1.337-1.947-1.854a9.763 9.763 0 0 0-1.872-.92c-.06 1.025.03 2.108.343 3.118.168.545.396 1.044.69 1.49.472.72 1.136 1.336 1.947 1.854.593.378 1.23.683 1.872.919.059-1.025-.03-2.107-.343-3.118zm.312 6.197l.4.876-.879.393a9.8 9.8 0 0 1-1.296.449c-1.616.452-3.294.597-4.897.237a7.316 7.316 0 0 1-.984-.294c-1.248-.471-2.343-1.284-3.294-2.335a12.05 12.05 0 0 1-1.363-1.837 9.005 9.005 0 0 1-.472-.867l-.4-.876.879-.394c.264-.118.71-.284 1.295-.448 1.616-.452 3.293-.596 4.896-.237.337.076.666.173.986.294 1.248.471 2.343 1.284 3.294 2.334.53.587.984 1.212 1.363 1.837.23.38.387.682.472.868zm-3.251-1.421c-.761-.841-1.616-1.476-2.553-1.83a5.41 5.41 0 0 0-.728-.216c-1.25-.28-2.627-.162-3.965.212l-.024.007c.285.442.615.88.987 1.291.761.842 1.616 1.476 2.552 1.83.234.088.477.16.727.216 1.25.28 2.628.162 3.966-.212l.025-.007c-.285-.442-.615-.88-.987-1.291zm2.692 3.962l.839.474-.48.835a8.8 8.8 0 0 1-.508.76c-.4.548-.87 1.094-1.406 1.607-1.084 1.034-2.305 1.8-3.663 2.172-.107.03-.214.056-.323.08-1.724.387-3.524.15-5.265-.472a10.235 10.235 0 0 1-1.522-.668l-.838-.474.48-.835a8.8 8.8 0 0 1 .508-.76c.4-.548.87-1.094 1.406-1.606 1.084-1.035 2.304-1.8 3.663-2.172a7.11 7.11 0 0 1 .322-.08c1.724-.388 3.525-.15 5.266.47.687.246 1.211.494 1.521.669zm-2.162 1.132c-1.431-.51-2.889-.702-4.206-.406a4.52 4.52 0 0 0-.236.059c-1.02.28-1.978.88-2.85 1.711-.356.34-.679.7-.966 1.065.083.032.168.064.255.095 1.431.51 2.889.703 4.206.407a5.81 5.81 0 0 0 .236-.059c1.02-.28 1.978-.88 2.85-1.712.355-.34.678-.7.965-1.065a10.632 10.632 0 0 0-.254-.095zm3.308 1.317l.957-.11.102.958a9.2 9.2 0 0 1 .02.25c.079 1.356-.068 2.942-.635 4.484a7.884 7.884 0 0 1-1.23 2.218c-.668.835-1.518 1.512-2.503 2.05-.846.462-1.744.798-2.64 1.03a9.62 9.62 0 0 1-1.232.246l-.956.11-.103-.958a5.604 5.604 0 0 1-.019-.25c-.08-1.357.068-2.944.635-4.486a7.893 7.893 0 0 1 1.23-2.217c.668-.835 1.518-1.512 2.504-2.05a11.539 11.539 0 0 1 2.64-1.03 9.59 9.59 0 0 1 1.23-.245zm-2.955 2.953c-.776.423-1.43.943-1.927 1.566a5.99 5.99 0 0 0-.93 1.684 9.135 9.135 0 0 0-.53 2.809 9.62 9.62 0 0 0 2.138-.84c.775-.424 1.428-.944 1.926-1.566a5.986 5.986 0 0 0 .93-1.685c.342-.93.498-1.909.53-2.807a9.622 9.622 0 0 0-2.137.839zm11.768-11.522c.775-.424 1.429-.944 1.927-1.568a5.981 5.981 0 0 0 .93-1.684c.342-.93.499-1.908.53-2.807a9.624 9.624 0 0 0-2.138.84c-.775.424-1.428.944-1.926 1.566a5.987 5.987 0 0 0-.929 1.685c-.342.93-.5 1.908-.53 2.807a9.617 9.617 0 0 0 2.136-.839zm-4.033 1.855c-.08-1.356.067-2.943.635-4.484.3-.817.706-1.563 1.23-2.218.667-.835 1.517-1.511 2.501-2.05a11.54 11.54 0 0 1 2.64-1.03 9.62 9.62 0 0 1 1.232-.246l.956-.11.103.958c.005.05.012.136.019.25.08 1.357-.067 2.943-.634 4.484a7.878 7.878 0 0 1-1.23 2.218c-.668.835-1.518 1.513-2.504 2.051-.845.462-1.743.797-2.64 1.03-.54.14-.969.215-1.23.245l-.957.11-.102-.958a5.602 5.602 0 0 1-.02-.25zm4.165 2.228c1.431.51 2.89.703 4.207.406a5.71 5.71 0 0 0 .234-.058c1.02-.28 1.978-.88 2.85-1.712.355-.34.678-.7.965-1.065a10.627 10.627 0 0 0-.254-.095c-1.433-.511-2.892-.703-4.211-.406a5.204 5.204 0 0 0-.232.058c-1.02.28-1.977.88-2.848 1.712-.356.34-.68.7-.966 1.065.083.032.168.064.255.095zm-2.014-.938c.4-.547.87-1.093 1.406-1.606 1.084-1.034 2.304-1.799 3.662-2.171.105-.03.21-.056.317-.08 1.726-.389 3.53-.152 5.272.47.687.246 1.211.494 1.521.669l.838.473-.48.836a8.798 8.798 0 0 1-.507.76c-.4.548-.87 1.094-1.406 1.606-1.084 1.035-2.305 1.8-3.663 2.173a7.11 7.11 0 0 1-.32.08c-1.725.387-3.526.15-5.268-.472a10.23 10.23 0 0 1-1.52-.668l-.839-.474.48-.835a8.8 8.8 0 0 1 .507-.76zm2.585 6.034c.761.841 1.616 1.476 2.553 1.83.234.088.477.16.728.216 1.25.28 2.626.162 3.963-.213l.025-.007a10.05 10.05 0 0 0-.987-1.291c-.76-.841-1.615-1.475-2.551-1.829a5.408 5.408 0 0 0-.73-.217c-1.249-.28-2.625-.162-3.963.213l-.025.007c.285.442.615.88.987 1.29zm-2.772-2.691a9.71 9.71 0 0 1 1.296-.448c1.615-.452 3.292-.597 4.895-.238.337.076.666.174.986.294 1.248.472 2.343 1.284 3.293 2.335a12.05 12.05 0 0 1 1.364 1.837c.23.38.387.681.471.867l.4.876-.878.393c-.264.119-.71.285-1.296.45-1.615.452-3.292.596-4.895.237a7.312 7.312 0 0 1-.986-.294c-1.248-.471-2.343-1.284-3.294-2.335a12.042 12.042 0 0 1-1.363-1.837 8.999 8.999 0 0 1-.472-.867l-.4-.877.879-.393zm-.405 7.634c.168.544.397 1.043.69 1.488.472.72 1.136 1.337 1.947 1.854.592.378 1.23.683 1.871.919.06-1.025-.03-2.109-.342-3.12a5.832 5.832 0 0 0-.69-1.488c-.473-.72-1.136-1.336-1.947-1.854a9.758 9.758 0 0 0-1.872-.919c-.06 1.026.03 2.109.343 3.12zm-.965-5.301c.24.05.63.156 1.123.33.815.288 1.63.669 2.398 1.158 1.024.654 1.883 1.452 2.516 2.415.396.602.699 1.264.918 1.973.469 1.514.53 3.093.36 4.536a7.667 7.667 0 0 1-.088.586l-.192.944-.941-.198a9.41 9.41 0 0 1-1.122-.33 11.708 11.708 0 0 1-2.397-1.159c-1.025-.654-1.884-1.452-2.517-2.416a7.739 7.739 0 0 1-.918-1.972c-.468-1.514-.53-3.093-.36-4.537a7.31 7.31 0 0 1 .088-.585l.19-.944.942.199zm-3.473.963l.709-.65.645.714c.338.374.82 1.014 1.3 1.864.87 1.544 1.369 3.18 1.29 4.847-.073 1.586-.667 3.101-1.603 4.507-.592.89-1.185 1.55-1.6 1.932l-.71.65-.645-.714c-.337-.374-.82-1.014-1.299-1.864-.87-1.543-1.369-3.18-1.29-4.846.073-1.586.667-3.101 1.603-4.508.591-.89 1.185-1.55 1.6-1.932zm-.01 2.992c-.76 1.14-1.23 2.341-1.286 3.537-.059 1.258.339 2.561 1.047 3.817.134.237.272.462.414.673.2-.247.398-.513.586-.796.759-1.141 1.23-2.342 1.285-3.538.06-1.258-.338-2.56-1.046-3.817a10.46 10.46 0 0 0-.414-.673c-.2.247-.398.513-.586.797z" fill="#004D84" fill-rule="nonzero"/>
        <path d="M69.801 48.439c4.683 4.236 17.045 7.255 20.863 1.135-6.247-5.596-15.714-.546-20.863-1.135" fill="#607EA8"/>
        <path d="M69.545 48.723l-.883-.8 1.182.136c1.412.161 2.498.013 6.475-.736 2.281-.43 3.654-.64 5.14-.744 3.91-.27 6.976.485 9.46 2.71l.24.215-.17.273c-1.854 2.97-5.719 4.088-10.48 3.493-4.165-.521-8.524-2.34-10.964-4.547zm11.06 3.788c4.34.543 7.822-.401 9.555-2.868-2.265-1.901-5.06-2.549-8.65-2.3-1.446.1-2.796.306-5.05.731-2.985.563-4.376.794-5.505.81 2.413 1.765 6.107 3.184 9.65 3.627z" fill="#FFFFFE" fill-rule="nonzero"/>
        <path d="M75.49 23.279s2.743-2.521 2.895-5.78c.152-3.26-2.344-6.025-2.344-6.025s-2.744 2.52-2.896 5.779c-.152 3.26 2.345 6.026 2.345 6.026" fill="#607EA8"/>
        <path d="M75.748 23.56l-.283.26-.259-.285a9.263 9.263 0 0 1-.39-.482c-.284-.38-.569-.809-.835-1.28-.821-1.458-1.29-2.994-1.218-4.538.069-1.469.626-2.89 1.508-4.216a11.69 11.69 0 0 1 1.374-1.694c.064-.064.11-.108.137-.133l.284-.26.258.286a9.259 9.259 0 0 1 .39.482c.284.379.57.808.835 1.28.821 1.457 1.29 2.993 1.218 4.536-.069 1.47-.626 2.89-1.508 4.217a11.691 11.691 0 0 1-1.374 1.695c-.064.063-.11.108-.137.132zm-.089-1.007c.329-.365.657-.783.964-1.244.812-1.22 1.32-2.516 1.38-3.828.065-1.38-.363-2.783-1.12-4.125a10.918 10.918 0 0 0-.869-1.312 10.93 10.93 0 0 0-1.106 1.4c-.812 1.22-1.32 2.514-1.381 3.827-.065 1.38.363 2.783 1.12 4.126a10.923 10.923 0 0 0 .87 1.312c.045-.049.093-.1.142-.156z" fill="#FFFFFE" fill-rule="nonzero"/>
        <path d="M72.794 24.08s.74-3.653-1.053-6.379c-1.79-2.727-5.435-3.495-5.435-3.495s-.74 3.653 1.052 6.378c1.792 2.727 5.436 3.496 5.436 3.496" fill="#607EA8"/>
        <path d="M73.168 24.156l-.077.377-.376-.08a5.745 5.745 0 0 1-.297-.073 10.7 10.7 0 0 1-.753-.236 11.15 11.15 0 0 1-2.28-1.102c-.96-.613-1.761-1.357-2.346-2.247a7.163 7.163 0 0 1-.85-1.829c-.44-1.425-.5-2.927-.338-4.298.03-.25.06-.435.08-.538l.077-.378.377.08c.057.012.158.036.297.074.227.062.48.14.752.236a11.15 11.15 0 0 1 2.28 1.101c.961.613 1.762 1.358 2.347 2.248.365.555.645 1.168.85 1.828.44 1.426.5 2.927.338 4.298a7.34 7.34 0 0 1-.081.539zm-.678-.629c.15-1.273.095-2.674-.31-3.982a6.402 6.402 0 0 0-.758-1.634c-.52-.793-1.243-1.464-2.118-2.023a10.397 10.397 0 0 0-2.685-1.206l-.01.076c-.15 1.274-.094 2.674.31 3.982.184.594.435 1.142.759 1.634.52.793 1.243 1.465 2.118 2.023a10.397 10.397 0 0 0 2.685 1.206l.009-.076z" fill="#FFFFFE" fill-rule="nonzero"/>
        <path d="M71.076 26.309s-1.547-3.39-4.597-4.542c-3.051-1.151-6.45.37-6.45.37s1.547 3.39 4.597 4.542c3.051 1.152 6.45-.37 6.45-.37" fill="#607EA8"/>
        <path d="M71.424 26.15l.16.35-.352.158a6.129 6.129 0 0 1-.335.134c-.262.098-.557.195-.88.286-1.534.429-3.121.565-4.62.23-.31-.07-.612-.16-.906-.271-1.155-.436-2.177-1.195-3.071-2.184a11.482 11.482 0 0 1-1.625-2.328 5.367 5.367 0 0 1-.114-.23l-.16-.35.352-.157a6.13 6.13 0 0 1 .335-.135c.261-.097.557-.194.88-.285 1.533-.428 3.12-.565 4.617-.23.311.07.614.16.908.272 1.155.436 2.178 1.195 3.072 2.182a11.473 11.473 0 0 1 1.625 2.329c.056.107.093.185.114.229zm-1.094-.412a10.716 10.716 0 0 0-1.211-1.632c-.819-.904-1.745-1.592-2.775-1.98a5.982 5.982 0 0 0-.806-.24c-1.356-.305-2.823-.179-4.244.219a10.43 10.43 0 0 0-.732.233 10.725 10.725 0 0 0 1.425 2.002c.818.904 1.744 1.592 2.774 1.981.26.098.528.178.804.24 1.356.304 2.824.178 4.245-.22.267-.075.513-.154.733-.234a11.004 11.004 0 0 0-.213-.369z" fill="#FFFFFE" fill-rule="nonzero"/>
        <path d="M70.917 29.285s-3.244-1.832-6.388-.97c-3.145.863-5.001 4.094-5.001 4.094s3.243 1.832 6.388.97c3.144-.863 5-4.094 5-4.094" fill="#607EA8"/>
        <path d="M71.104 28.952l.336.19-.192.334a10.109 10.109 0 0 1-.473.708 11.57 11.57 0 0 1-1.34 1.53c-1.02.973-2.161 1.689-3.419 2.034a6.539 6.539 0 0 1-.296.074c-1.602.36-3.3.136-4.948-.453-.38-.135-.728-.281-1.036-.427a6.619 6.619 0 0 1-.396-.2l-.335-.19.192-.334a10.108 10.108 0 0 1 .473-.708 11.57 11.57 0 0 1 1.34-1.53c1.02-.973 2.161-1.688 3.418-2.033.098-.027.197-.052.297-.074 1.602-.36 3.3-.136 4.948.452.38.136.728.281 1.036.427.187.089.321.159.395.2zm-1.688.093c-1.524-.544-3.084-.75-4.524-.426-.088.02-.175.042-.262.065-1.122.308-2.158.958-3.093 1.85a10.811 10.811 0 0 0-1.46 1.724c.283.133.603.266.952.391 1.524.544 3.084.75 4.524.426.088-.02.175-.041.262-.065 1.121-.308 2.158-.957 3.093-1.85a10.812 10.812 0 0 0 1.46-1.724 10.63 10.63 0 0 0-.952-.39z" fill="#FFFFFE" fill-rule="nonzero"/>
        <path d="M72.641 31.851s-3.7.425-5.737 2.973c-2.038 2.548-1.642 6.254-1.642 6.254s3.7-.425 5.738-2.973c2.037-2.548 1.641-6.254 1.641-6.254" fill="#607EA8"/>
        <path d="M72.598 31.472l.382-.044.041.383c.005.042.01.117.017.222.076 1.285-.065 2.797-.6 4.252a7.314 7.314 0 0 1-1.14 2.059c-.617.77-1.407 1.4-2.33 1.905-.8.437-1.655.757-2.51.978-.298.077-.576.137-.827.181a5.912 5.912 0 0 1-.325.05l-.383.044-.04-.383a5.078 5.078 0 0 1-.018-.223c-.075-1.285.065-2.798.601-4.254a7.317 7.317 0 0 1 1.14-2.057c.616-.771 1.407-1.401 2.33-1.905.8-.437 1.655-.757 2.509-.977a10.486 10.486 0 0 1 1.153-.231zm-.962.971c-.797.206-1.593.504-2.334.908-.839.458-1.55 1.025-2.1 1.712a6.558 6.558 0 0 0-1.019 1.844c-.464 1.26-.608 2.584-.565 3.726.2-.038.418-.087.65-.147a10.22 10.22 0 0 0 2.334-.909c.839-.458 1.55-1.025 2.1-1.711a6.555 6.555 0 0 0 1.019-1.845c.463-1.259.607-2.583.565-3.725-.2.039-.418.087-.65.147z" fill="#FFFFFE" fill-rule="nonzero"/>
        <path d="M78.28 24.336s-.395-3.706 1.643-6.253c2.038-2.548 5.736-2.973 5.736-2.973s.397 3.706-1.642 6.253c-2.036 2.548-5.736 2.973-5.736 2.973" fill="#607EA8"/>
        <path d="M79.286 23.745a10.217 10.217 0 0 0 2.333-.908c.839-.459 1.551-1.026 2.1-1.713a6.55 6.55 0 0 0 1.02-1.845c.464-1.258.607-2.583.565-3.724-.2.038-.418.086-.65.147a10.21 10.21 0 0 0-2.335.909c-.838.458-1.55 1.025-2.098 1.71a6.556 6.556 0 0 0-1.02 1.846c-.463 1.259-.607 2.583-.565 3.724.2-.038.418-.086.65-.146zm-1.402.41c-.075-1.285.065-2.798.6-4.253a7.315 7.315 0 0 1 1.14-2.058c.617-.77 1.407-1.4 2.329-1.904.8-.438 1.655-.757 2.51-.979.298-.077.576-.137.827-.181.152-.027.263-.043.325-.05l.383-.044.04.383c.005.042.012.118.018.223.076 1.285-.064 2.797-.6 4.252a7.31 7.31 0 0 1-1.14 2.058c-.617.771-1.408 1.402-2.33 1.906-.801.437-1.655.756-2.51.977a10.85 10.85 0 0 1-.826.181 5.91 5.91 0 0 1-.326.05l-.382.044-.041-.383a5.077 5.077 0 0 1-.017-.222z" fill="#FFFFFE" fill-rule="nonzero"/>
        <path d="M79.784 26.715s1.856-3.23 5-4.093c3.145-.862 6.387.97 6.387.97s-1.855 3.231-5 4.094c-3.145.862-6.387-.97-6.387-.97" fill="#607EA8"/>
        <path d="M81.284 26.956c1.525.544 3.086.75 4.526.426.087-.02.174-.042.26-.065 1.121-.308 2.158-.957 3.093-1.85a10.808 10.808 0 0 0 1.459-1.724 10.624 10.624 0 0 0-.95-.391c-1.526-.545-3.089-.75-4.53-.425-.086.02-.172.04-.257.064-1.122.308-2.158.957-3.093 1.85a10.81 10.81 0 0 0-1.459 1.724c.283.133.602.266.951.39zm-1.708-.632a11.567 11.567 0 0 1 1.688-2.036c1.02-.974 2.162-1.69 3.419-2.034a6.54 6.54 0 0 1 .291-.073c1.604-.362 3.304-.138 4.954.45.38.136.728.282 1.036.428.187.088.321.158.395.2l.336.19-.192.334a10.105 10.105 0 0 1-.473.708c-.382.521-.83 1.042-1.34 1.53-1.02.973-2.161 1.689-3.419 2.033a6.538 6.538 0 0 1-.294.074c-1.602.36-3.3.137-4.95-.452a11.37 11.37 0 0 1-1.036-.427 6.615 6.615 0 0 1-.395-.2l-.335-.19.192-.334c.022-.039.063-.107.123-.201z" fill="#FFFFFE" fill-rule="nonzero"/>
        <path d="M79.666 29.694s3.4-1.522 6.45-.37c3.05 1.152 4.597 4.541 4.597 4.541s-3.4 1.523-6.45.37c-3.05-1.151-4.597-4.541-4.597-4.541" fill="#607EA8"/>
        <path d="M80.412 30.264c.338.557.742 1.114 1.211 1.633.818.904 1.745 1.592 2.775 1.981.26.098.53.178.806.24 1.355.304 2.822.177 4.242-.22.267-.075.513-.155.734-.234a10.715 10.715 0 0 0-1.424-2.002c-.819-.904-1.745-1.592-2.775-1.98a5.98 5.98 0 0 0-.806-.24c-1.356-.304-2.822-.178-4.243.22a9.868 9.868 0 0 0-.733.233c.063.116.134.24.213.37zm-.567-1.054c.262-.097.557-.195.88-.285 1.533-.429 3.12-.565 4.617-.23.311.07.615.16.909.27 1.154.437 2.177 1.196 3.07 2.184a11.472 11.472 0 0 1 1.625 2.328c.056.107.094.185.114.23l.16.35-.351.157a6.13 6.13 0 0 1-.336.134c-.261.098-.557.195-.88.286-1.532.429-3.12.566-4.616.23a6.74 6.74 0 0 1-.908-.27c-1.156-.436-2.178-1.196-3.072-2.184a11.474 11.474 0 0 1-1.625-2.328 5.363 5.363 0 0 1-.114-.23l-.16-.35.352-.157a6.13 6.13 0 0 1 .335-.135z" fill="#FFFFFE" fill-rule="nonzero"/>
        <path d="M77.71 32.089s3.644.767 5.435 3.494c1.792 2.726 1.052 6.38 1.052 6.38s-3.644-.768-5.435-3.495c-1.792-2.727-1.052-6.379-1.052-6.379" fill="#607EA8"/>
        <path d="M78.014 32.64c-.15 1.275-.095 2.676.31 3.985.183.594.434 1.14.757 1.633.521.793 1.244 1.464 2.119 2.023a10.39 10.39 0 0 0 2.684 1.205l.009-.077c.15-1.274.096-2.675-.309-3.983a6.403 6.403 0 0 0-.758-1.633c-.52-.793-1.243-1.464-2.118-2.022a10.391 10.391 0 0 0-2.685-1.206l-.01.076zm.071-.851c.228.061.48.14.753.236.777.274 1.553.637 2.28 1.1.96.613 1.762 1.357 2.347 2.248a7.18 7.18 0 0 1 .849 1.827c.44 1.426.5 2.928.338 4.3-.03.25-.06.435-.081.538l-.077.378-.376-.08a5.741 5.741 0 0 1-.297-.073 10.26 10.26 0 0 1-.752-.237 11.143 11.143 0 0 1-2.28-1.1c-.96-.613-1.761-1.358-2.346-2.248a7.168 7.168 0 0 1-.85-1.827c-.44-1.426-.5-2.929-.338-4.3.03-.251.06-.435.08-.538l.077-.377.376.079c.057.012.158.036.297.074z" fill="#FFFFFE" fill-rule="nonzero"/>
        <path d="M75.079 32.822s-2.743 2.52-2.896 5.78c-.152 3.26 2.345 6.024 2.345 6.024s2.744-2.52 2.896-5.779c.152-3.26-2.345-6.025-2.345-6.025" fill="#607EA8"/>
        <path d="M74.82 32.54l.284-.26.258.285a9.255 9.255 0 0 1 .39.482c.285.38.57.809.835 1.28.822 1.457 1.29 2.994 1.218 4.538-.068 1.47-.625 2.89-1.508 4.216a11.683 11.683 0 0 1-1.374 1.694c-.063.064-.11.109-.137.133l-.283.26-.258-.285a9.256 9.256 0 0 1-.39-.482c-.285-.38-.57-.809-.835-1.28-.822-1.457-1.29-2.994-1.218-4.537.068-1.47.625-2.89 1.508-4.217a11.688 11.688 0 0 1 1.374-1.694c.063-.064.11-.109.136-.133zm.09 1.007c-.329.366-.658.783-.964 1.244-.812 1.22-1.32 2.515-1.381 3.828-.065 1.38.363 2.784 1.12 4.126a10.915 10.915 0 0 0 .87 1.312l.142-.156c.329-.365.657-.783.964-1.243.812-1.22 1.32-2.516 1.38-3.829.065-1.38-.362-2.784-1.12-4.126a10.914 10.914 0 0 0-.869-1.312l-.143.156z" fill="#FFFFFE" fill-rule="nonzero"/>
        <path d="M75.02 33.515c2.79.136 5.147-2.135 5.262-5.073.116-2.94-2.052-5.432-4.843-5.57-2.792-.137-5.148 2.135-5.264 5.075-.116 2.939 2.053 5.431 4.844 5.568" fill="#FFFFFE"/>
        <path d="M75 33.897c-3.004-.148-5.33-2.821-5.207-5.965.125-3.148 2.656-5.59 5.665-5.442 3.005.148 5.33 2.822 5.206 5.967-.124 3.146-2.655 5.587-5.663 5.44zm4.9-5.47c.108-2.734-1.902-5.046-4.48-5.173-2.575-.126-4.755 1.976-4.863 4.708-.108 2.733 1.903 5.045 4.481 5.171 2.575.126 4.755-1.976 4.863-4.706z" fill="#004D84" fill-rule="nonzero"/>
        <path fill="#004D84" d="M82.499 4.046h1.696V.197h-1.696zm17.951 5.99l2.241-3.129-1.378-.99-2.241 3.13 1.379.99m9.628 13.96l3.619-1.304-.575-1.597-3.619 1.303.575 1.598M66.136 55.595l-2.139 3.2 1.41.944 2.14-3.199-1.41-.945M56.35 41.463l-3.59 1.377.607 1.586 3.592-1.378-.607-1.586M67.675 8.539l-2.217-3.146-1.387.978 2.217 3.146 1.387-.978M82.499 65h1.696v-3.85h-1.696zm15.118-36.122h6.046l-4.326 20.474h-7.393l-4.298-20.474h6.19l1.861 15.83h.058l1.862-15.83m7.326 0h12.322v4.645h-6.591v3.154h6.16v4.474h-6.16v3.557h6.848v4.644h-12.58V28.878m14.518 20.474h5.731V28.878h-5.73zm8.158-20.474h5.731v15.83h6.246v4.644h-11.977V28.878m13.458 20.474h5.73V28.878h-5.73zm17.441-20.474h5.387v20.474h-6.132l-3.18-12.617h-.058v12.617h-5.216V28.878h6.22l2.921 12.503h.058V28.878m15.206 9.32h7.02v11.154h-3.983l-.144-1.663h-.058c-.974 1.807-2.55 2.065-4.21 2.065-5.819 0-5.99-5.104-5.99-10.61 0-5.851.315-10.669 7.307-10.669 5.673 0 6.906 2.84 6.906 6.94h-5.388v-.831c0-1.52-.343-2.322-1.46-2.322-1.375 0-1.463 1.29-1.463 2.523v8.43c0 1.263.116 2.754 1.49 2.754 1.375 0 1.605-1.06 1.605-2.581v-1.405h-1.632v-3.785"/>
    </g>
</svg>
