<?xml version="1.0" encoding="utf-8"?>
<!-- Generator: Adobe Illustrator 26.4.1, SVG Export Plug-In . SVG Version: 6.00 Build 0)  -->
<svg version="1.1" id="Laag_1" xmlns="http://www.w3.org/2000/svg" xmlns:xlink="http://www.w3.org/1999/xlink" x="0px" y="0px"
	 viewBox="0 0 510.24 153.07" style="enable-background:new 0 0 510.24 153.07;" xml:space="preserve">
<style type="text/css">
	.st0{fill:#E1251B;}
	.st1{fill:#4C9C2E;}
	.st2{fill-rule:evenodd;clip-rule:evenodd;fill:#4C9C2E;}
</style>
<g>
	<g>
		<path class="st0" d="M210.83,149.47c-5.3,0-9.6-4.3-9.6-9.6V70.35c0-5.3,4.3-9.6,9.6-9.6c5.3,0,9.6,4.3,9.6,9.6v69.52
			C220.43,145.17,216.13,149.47,210.83,149.47z"/>
		<path class="st0" d="M46,61.36H34.91V42.21c0-4.12,3.36-7.48,7.48-7.48h5.42c5.3,0,9.6-4.3,9.6-9.6s-4.3-9.6-9.6-9.6h-5.42
			c-14.71,0-26.69,11.97-26.69,26.69v19.15h-2.77c-4.99,0-9.04,4.05-9.04,9.04c0,4.99,4.05,9.04,9.04,9.04h2.77v60.43
			c0,5.3,4.3,9.6,9.6,9.6s9.6-4.3,9.6-9.6V79.43H46c4.99,0,9.04-4.05,9.04-9.04C55.04,65.4,50.99,61.36,46,61.36z"/>
		<path class="st1" d="M495.73,61.36h-11.09V42.21c0-4.12,3.36-7.48,7.48-7.48h5.42c5.3,0,9.6-4.3,9.6-9.6s-4.3-9.6-9.6-9.6h-5.42
			c-14.71,0-26.69,11.97-26.69,26.69v19.15h-2.77c-4.99,0-9.04,4.05-9.04,9.04c0,4.99,4.05,9.04,9.04,9.04h2.77v60.43
			c0,5.3,4.3,9.6,9.6,9.6s9.6-4.3,9.6-9.6V79.43h11.09c4.99,0,9.04-4.05,9.04-9.04C504.77,65.4,500.72,61.36,495.73,61.36z"/>
		<path class="st0" d="M266.34,61.36h-5.01v-22.3c0-5.3-4.3-9.6-9.6-9.6s-9.6,4.3-9.6,9.6v22.3h-4.99c-4.99,0-9.04,4.05-9.04,9.04
			c0,4.99,4.05,9.04,9.04,9.04h4.99v60.43c0,5.3,4.3,9.6,9.6,9.6s9.6-4.3,9.6-9.6V79.43h5.01c4.99,0,9.04-4.05,9.04-9.04
			C275.38,65.4,271.33,61.36,266.34,61.36z"/>
		<path class="st0" d="M110.9,67.64c-0.51-5.28-5.64-8.16-10.92-7.65c-8.34,0.8-15.44,4.73-21.43,10.8v-0.46c0-5.3-4.3-9.6-9.6-9.6
			s-9.6,4.3-9.6,9.6v69.52c0,5.3,4.3,9.6,9.6,9.6s9.6-4.3,9.6-9.6v-31.75c0.44-5.65,1.7-12.1,4.29-16.96
			c4.55-8.53,11.98-12.31,19.42-13.03C107.54,77.62,111.41,72.92,110.9,67.64z"/>
		<path class="st1" d="M409.23,150.84c-25.08,0-45.48-20.4-45.48-45.48s20.4-45.48,45.48-45.48s45.48,20.4,45.48,45.48
			S434.31,150.84,409.23,150.84z M409.23,79.34c-14.35,0-26.03,11.68-26.03,26.03s11.68,26.03,26.03,26.03s26.03-11.68,26.03-26.03
			S423.58,79.34,409.23,79.34z"/>
		<path class="st0" d="M151.5,150.87c-20.36,0-36.92-16.56-36.92-36.92V69.72c0-5.3,4.3-9.6,9.6-9.6s9.6,4.3,9.6,9.6v44.23
			c0,9.77,7.95,17.72,17.72,17.72c9.77,0,17.72-7.95,17.72-17.72V69.94c0-5.3,4.3-9.6,9.6-9.6c5.3,0,9.6,4.3,9.6,9.6v44.01
			C188.43,134.3,171.86,150.87,151.5,150.87z"/>
		<path class="st1" d="M318.66,60.11c-6.42,0-12.45,1.65-17.72,4.54v-41.6c0-5.3-4.3-9.6-9.6-9.6c-5.3,0-9.6,4.3-9.6,9.6v73.98
			v41.65v1.18c0,5.3,4.3,9.6,9.6,9.6c5.3,0,9.6-4.3,9.6-9.6v-1.18V97.04c0-9.77,7.95-17.72,17.72-17.72
			c9.77,0,17.72,7.95,17.72,17.72v42.82c0,5.3,4.3,9.6,9.6,9.6s9.6-4.3,9.6-9.6V97.04C355.58,76.68,339.02,60.11,318.66,60.11z"/>
		<path class="st2" d="M210.9,15.25c11.54,11.54,15.04,20.93,8.23,27.73c-6.25,6.25-16.19,3.3-27.73-8.23S178.3,6.08,180.26,4.11
			C182.78,1.6,199.36,3.72,210.9,15.25z"/>
		<path class="st2" d="M410.43,15.25c-11.54,11.54-15.04,20.93-8.23,27.73c6.25,6.25,16.19,3.3,27.73-8.23s13.1-28.67,11.14-30.64
			C438.55,1.6,421.97,3.72,410.43,15.25z"/>
		<path class="st1" d="M394.97,60.3c-3.02,0-5.66-2.81-7.37-5.56c-7.03-11.29-16.26-19.55-27.51-26.67
			c-4.22-2.67-5.47-8.25-2.8-12.47c2.67-4.22,8.25-5.47,12.47-2.8c13.53,8.57,22.18,17.87,30.65,31.46
			c2.64,4.24,5.62,10.25-0.13,14.36C398.85,59.63,396.6,60.3,394.97,60.3z"/>
	</g>
</g>
</svg>
