<?xml version="1.0" encoding="UTF-8"?><svg id="Laag_2" xmlns="http://www.w3.org/2000/svg" viewBox="0 0 269.32 141.6"><defs><style>.cls-1{fill:none;stroke:#50a026;stroke-miterlimit:2;stroke-width:2.66px;}.cls-2{fill:#c1002b;}.cls-3{fill:#50a026;}</style></defs><g id="Laag_1-2"><path class="cls-3" d="m160.25,58.72l-2.02-2.88c11.96-8.28,25.9-14.32,40.72-15.14,14.56-.99,30.44,3.86,39.97,15.82,1.05,1.25,1.76,2.73,2.57,4.13l.59,1.06c.06.74.27-.91.21,1.79l-.32.57-1.37,2.04c-1.93,2.62-4.29,4.84-6.9,6.67-5.21,3.72-11.5,5.44-17.66,5.63,6.32-.79,12.42-3.19,17.05-7.37,2.33-2.04,4.29-4.48,5.79-7.11.28-.08.92-2.63.74-.68l-1.3-1.89c-.79-1.31-1.83-2.44-2.87-3.55-8.79-10.4-23.31-14.67-36.88-13.59-13.77.93-26.92,6.6-38.3,14.49"/><path class="cls-3" d="m148.04,45.09l-3.36-1.04c4.05-13.16,11.8-25.59,23.25-33.74,5.68-4.07,12.19-6.98,18.99-8.55,3.4-.79,6.86-1.28,10.34-1.43,1.74-.17,3.47-.11,5.2-.06l2.6.06h.06c-1.44-1.38,1.99,1.87,1.63,1.55v.09s.03.18.03.18l.03.33.05.66.08,1.31c-.25,11.77-2.98,24.57-11.81,32.57,8.17-9.08,9.31-22.04,8.25-33.51l-.09-1.17v-.03s0-.02,0-.02c-.35-.35,3.08,2.94,1.62,1.55h-.08s-.15,0-.15,0h-.3s-3.04-.08-3.04-.08c-1.62-.1-3.24.03-4.85.14-3.23.17-6.45.66-9.56,1.49-6.25,1.55-12.19,4.3-17.38,8.11-10.46,7.61-17.66,19.18-21.48,31.6"/><path class="cls-3" d="m.01,57.65s21.23-.19,30.06.64"/><path class="cls-1" d="m.01,57.65s21.23-.19,30.06.64"/><path class="cls-2" d="m183.01,83.02l1.67-3.1c16.84,6.87,33.97,15.3,49.15,26.08,7.65,5.37,14.92,11.3,21.63,17.82,3.34,3.27,6.6,6.64,9.63,10.22l2.25,2.69,1.11,1.36.55.68.07.08.02.02c.6-.47-5.09,4.21-2.69,2.22l-.02-.03-.11-.12-.27-.28c-1.52-1.47-3.31-2.85-5.17-4.04-12.84-8.89-29.29-11.93-45.2-12.15,16.39-.88,33.81.87,48.47,10.13.97.7,1.93,1.4,2.84,2.19l1.36,1.22c.23.24.43.43.68.71l.05.05.02.03c-1.21,1,2.74-2.2-2.7,2.25l-.07-.08-.13-.16-.27-.33c-1.42-1.75-2.84-3.5-4.34-5.19-2.97-3.39-6.08-6.67-9.36-9.77-6.51-6.26-13.59-11.92-21-17.1-14.92-10.44-31-18.35-48.17-25.4"/><path class="cls-3" d="m168.02,58.66c.59-.36,1.18-.47,1.58.21.28.46.19.95-.14,1.33h0c.54-.16.99-.04,1.29.48.34.57.18,1.27-.63,1.76l-1.33.8c-.58-1.19-1.34-2.56-2.09-3.79l1.31-.78m0,2.28l.74-.45c.77-.46.72-1.05.51-1.39-.31-.51-.74-.38-1.18-.12l-.87.52.79,1.44Zm1,1.8l.86-.51c.67-.4.8-.92.51-1.41-.25-.42-.72-.54-1.3-.18l-.92.55.86,1.55Z"/><path class="cls-3" d="m173.79,58.42c.38.7.54,1.74-.58,2.35-.85.46-1.66.18-2.11-.66-.49-.91-.33-1.82.62-2.33.84-.45,1.62-.19,2.07.64m-2.34,1.51c.35.64.95.95,1.63.58.77-.42.77-1.18.39-1.88-.38-.69-.91-.99-1.65-.58-.7.38-.8,1.08-.36,1.88Z"/><path class="cls-3" d="m177.16,56.78c.35.72.46,1.76-.68,2.32-.87.42-1.66.1-2.08-.76-.45-.93-.25-1.83.72-2.3.86-.41,1.63-.12,2.04.74m-2.41,1.4c.32.65.9,1,1.6.66.79-.38.82-1.15.48-1.86-.35-.71-.87-1.03-1.63-.66-.71.34-.85,1.04-.45,1.87Z"/><path class="cls-3" d="m177.89,55.49v-.02c.03-.44.32-.85.76-1.03.43-.18.89-.14,1.15.25h.01c.03-.5.32-.86.8-1.05.52-.21,1.02-.12,1.24.44.16.39.36,1.16.81,2.26l-.37.15c-.25-.72-.5-1.55-.75-2.15-.15-.36-.43-.57-.93-.36-.34.14-.58.46-.6.83-.02.46.26,1.07.73,2.31l-.37.15c-.26-.7-.5-1.48-.74-2.06-.16-.38-.45-.65-.98-.43-.28.12-.49.4-.55.72-.09.48.35,1.58.69,2.42l-.38.16c-.32-1-.7-2.02-1.08-3.02l.35-.14.2.58"/><path class="cls-3" d="m183.43,56.08c-.38-1.39-.81-2.77-1.26-4.14l.39-.13c.33,1.2.81,2.77,1.25,4.14l-.38.13m1.17-3.79c-.29.6-.61,1.2-.89,1.81.68.41,1.38.8,2.07,1.17l-.45.16c-.65-.43-1.34-.79-2.01-1.19.28-.59.58-1.17.83-1.79l.46-.16Z"/><path class="cls-3" d="m189.19,53.95h.01c.15-1.02.31-2.05.43-3.08l.38-.1c-.18,1.16-.38,2.31-.53,3.46l-.46.13c-.48-.84-.97-1.68-1.47-2.49h-.01c-.09.97-.18,1.97-.25,2.96l-.46.13c-.63-.94-1.3-1.85-1.95-2.78l.38-.1c.56.85,1.14,1.68,1.72,2.49h.01c.1-1.01.2-2.02.28-3.04l.41-.11,1.51,2.55"/><path class="cls-3" d="m191.11,52.05c0,.07.02.16.04.25.15.78.7,1.18,1.49,1.03.32-.06.62-.22.9-.38v.35c-.27.14-.56.25-1,.34-.94.19-1.58-.31-1.78-1.29-.18-.94.18-1.81,1.18-2.01.82-.16,1.39.19,1.56,1.02l.04.2-2.43.48m2-.65c-.12-.6-.49-.93-1.07-.81-.62.12-.97.59-.95,1.21l2.02-.4Z"/><path class="cls-3" d="m194.39,53.22c-.11-1.44-.27-2.87-.45-4.3l.4-.06c.09,1.24.27,2.87.45,4.3l-.4.06m1.86-3.5c-.4.53-.82,1.07-1.22,1.61.59.53,1.2,1.04,1.81,1.54l-.48.07c-.56-.54-1.17-1.03-1.75-1.55.39-.53.79-1.04,1.15-1.6l.48-.07Z"/><path class="cls-3" d="m197.36,51.06c0,.07,0,.16,0,.25.07.79.56,1.25,1.37,1.19.32-.03.64-.14.93-.27l-.03.35c-.29.11-.6.19-1.04.22-.96.08-1.54-.49-1.62-1.48-.08-.95.38-1.77,1.4-1.86.83-.07,1.36.34,1.43,1.19l.02.21-2.47.2m2.06-.42c-.05-.61-.38-.98-.97-.93-.63.05-1.03.47-1.09,1.1l2.05-.17Z"/><path class="cls-3" d="m200.87,49.94h.01c.19-.43.49-.64.98-.66.08,0,.17,0,.26.03l.02.34c-.12-.03-.25-.06-.38-.05-.45.02-.84.39-.88,1.07-.03.55-.02,1.12,0,1.67v.26s-.39.01-.39.01c.01-.94.04-1.95,0-3.2h.38s0,.54,0,.54"/><path class="cls-3" d="m203.18,49.35c-.08,1.06-.12,2.13-.14,3.2h-.42c.07-1.06.14-2.13.15-3.2h.41m-.41-.73v-.39s.47,0,.47,0v.39s-.47,0-.47,0Z"/><path class="cls-3" d="m204.74,49.4c-.14,1.43-.23,3.45-.33,3.93-.13.6-.53.78-1.09.76-.25,0-.5-.06-.75-.12l-.02-.35c.22.09.4.15.74.16.68.02.76-.46.82-1.05.07-.65.19-2.23.23-3.35l.4.02m-.39-.75l.03-.39.46.02-.03.39-.46-.02Z"/><path class="cls-3" d="m205.27,54.03c.15-.82.46-3.08.6-4.45.46-.07.92-.11,1.43-.06.93.09,1.48.63,1.38,1.68-.09.95-.63,1.75-1.67,1.65-.51-.05-.89-.31-1.08-.81h-.01c-.07.58-.19,1.43-.25,2.04l-.41-.04m.77-2.76c-.08.79.39,1.23.96,1.29.83.08,1.23-.68,1.3-1.4.08-.78-.29-1.29-1.08-1.36-.34-.03-.67,0-1,.08-.05.38-.12.76-.18,1.4Z"/><path class="cls-3" d="m210,50.5h.02c.27-.38.61-.53,1.09-.44.08.01.16.04.25.08l-.04.33c-.11-.05-.23-.1-.36-.13-.44-.08-.9.21-1.08.87-.14.53-.24,1.09-.33,1.63l-.04.25-.4-.07c.2-.92.43-1.9.64-3.14l.37.06-.12.54"/><path class="cls-3" d="m214.4,52.41c-.19.77-.76,1.66-2,1.36-.95-.23-1.35-.98-1.13-1.9.24-1.01.97-1.57,2.02-1.32.93.22,1.33.94,1.11,1.87m-2.75-.44c-.17.71.06,1.34.82,1.52.86.21,1.36-.37,1.55-1.14.19-.77-.02-1.34-.84-1.54-.77-.18-1.32.26-1.53,1.16Z"/><path class="cls-3" d="m217.18,54.38h-.02c-.38.42-.88.54-1.46.34-.8-.28-1.05-1.04-.79-1.81.29-.84,1.06-1.64,2.55-1.12.16.06.38.17.58.28l.37-1.06.39.14c-.54,1.35-1.11,2.79-1.54,4.04l-.37-.13.28-.68m.19-2.32c-.98-.34-1.76.05-2.09,1-.2.58-.05,1.2.6,1.42.39.14.77.05,1.1-.22.31-.25.44-.51.94-1.91-.17-.12-.36-.22-.56-.29Z"/><path class="cls-3" d="m220.6,56h-.02c-.41.38-.94.33-1.44.09-.63-.3-1-.77-.67-1.47.22-.46.71-1.31,1.03-1.97l.36.17c-.36.61-.87,1.55-1.02,1.89-.26.55,0,.9.52,1.15.63.3,1.16.1,1.54-.47.18-.27.62-1.16.88-1.67l.36.17c-.5.92-1.01,1.81-1.49,2.84l-.34-.16.29-.56"/><path class="cls-3" d="m224.9,55.97c-.19-.22-.39-.43-.63-.58-.75-.46-1.44-.05-1.85.63-.42.69-.31,1.3.39,1.73.22.13.48.2.73.27l-.23.26c-.25-.08-.49-.19-.72-.33-.85-.52-1.02-1.29-.51-2.13.5-.83,1.3-1.3,2.3-.7.25.15.47.33.67.55l-.15.29"/><path class="cls-3" d="m226.81,57.23l.18-.22-.75-.54.41-.53-.33-.15-.38.47-.33-.24-.18.22.33.23c-.6.77-1.16,1.42-1.4,1.74-.31.44-.29.73.16,1.05.15.11.31.19.48.25l.22-.22c-.16-.05-.32-.11-.46-.21-.31-.22-.19-.5,0-.75.41-.57.88-1.1,1.3-1.65l.74.53"/><path class="cls-3" d="m226.81,58.71c-.05.05-.11.11-.18.18-.52.59-.51,1.28.1,1.81.24.21.55.36.84.48l-.27.22c-.28-.13-.55-.3-.88-.59-.72-.63-.71-1.45-.06-2.19.63-.72,1.54-.96,2.31-.29.63.55.7,1.22.14,1.85l-.14.15-1.86-1.63m1.74,1.18c.4-.46.44-.95,0-1.34-.48-.42-1.06-.41-1.54-.02l1.55,1.36Z"/><path class="cls-3" d="m230.02,60.66h.02c.55-.17,1.02.07,1.4.51.44.51.61,1.08.04,1.57-.38.33-1.2.93-1.77,1.42l-.27-.31c.57-.42,1.39-1.07,1.81-1.43.27-.24.27-.69-.16-1.18-.42-.48-1.03-.51-1.6-.13-.52.34-.97.76-1.45,1.14l-.27-.31c.85-.65,1.7-1.29,2.51-1.99l.26.3-.53.4"/><path class="cls-3" d="m43.98,58.97h-1.3l.18-3.39h6.18c-.18,1.95-.44,7.06-.46,7.68-1.83.3-3.73.48-6.06.48-1.36,0-7.82,0-7.82-6.32,0-2.83,1.6-7.5,8.85-7.5,1.66,0,3.29.22,4.93.52l.12,3.81c-1.31-.48-2.73-.72-4.15-.72-2.57,0-4.53,1.32-4.53,4.03,0,1.69,1.02,2.69,2.69,2.69.44,0,.86-.06,1.28-.14l.08-1.14"/><path class="cls-3" d="m59.81,60.41l-1.38,3.07h-5.68c1.7-2.85,5.36-9.59,7.12-13.3h6.2c1.54,4.47,3.17,8.91,4.9,13.3h-5.46c-.26-1.04-.62-2.05-.98-3.07h-4.73m3.89-3.39l-.98-3.25-.04.04-1.44,3.21h2.45Z"/><path class="cls-3" d="m80.95,53.57c-.22,3.31-.32,6.62-.36,9.91h-5.09c.56-4.41.68-8.85.68-13.3h7.96c1.67,0,5.16.22,5.16,3.69,0,1.87-.94,3.15-2.65,3.91.6,1.93,1.33,3.81,1.99,5.7h-5.44c-.58-2.53-1.16-5.04-1.85-7.54.28.06.58.08.86.08.94,0,2.13-.28,2.13-1.41,0-1.06-1.16-1.04-2.19-1.04h-1.2"/><path class="cls-3" d="m94.74,63.48c.24-2.19.64-5.98.64-13.3h8c3.55,0,5.72,2.21,5.72,6.16,0,4.19-2.49,7.14-6.68,7.14h-7.68m5.18-3.55c.26.04.54.06.8.06,1.7,0,3.15-.7,3.15-3.59,0-1.81-.84-2.73-2.67-2.73-.34,0-.66.02-1,.08l-.28,6.18Z"/><path class="cls-3" d="m126.91,53.75c-1.26-.06-2.49-.08-3.75-.08h-2.75l-.1,1.42h2.06c1.1,0,2.21-.06,3.31-.08l-.22,3.57h-5.4l-.1,1.42c3.31,0,4.8-.08,6.66-.18l-.24,3.67h-11.82c.36-2.45.82-9.89.76-13.3h11.81l-.2,3.57"/><path class="cls-3" d="m132.87,63.48c.28-2.49.74-8.47.74-13.3h6.1c1.28,2.49,2.47,5,3.57,7.46h.04c.16-2.41.26-4.92.28-7.46h4.71c-.4,4.43-.68,8.87-.8,13.3h-5.96c-1.28-2.43-2.61-4.89-3.67-7.28h-.04c-.04,1.3-.22,3.79-.24,7.28h-4.73"/><path class="cls-2" d="m84.4,75.59c.17.06.36.1.55.1.72,0,1.33-.32,1.33-1.14,0-.76-.49-.91-1.16-.91-.34,0-.68.06-1,.09-.17,2.71-.3,5.25-.3,9.32h-4.6c.23-1.89.57-8.05.57-12.63h7.52c2.05,0,3.69,1.34,3.69,3.84,0,2.84-2.1,4.45-4.81,4.45-.36,0-.72-.04-1.04-.09l-.74-3.03"/><path class="cls-2" d="m110.41,83.06h-10.7c.51-4.19.76-8.41.8-12.63h5.06c-.13,1.46-.51,7.05-.53,9.32h1.93c1.23,0,2.46-.04,3.69-.08l-.25,3.39"/><path class="cls-2" d="m124.18,80.14l-1.31,2.92h-5.4c1.61-2.71,5.1-9.11,6.76-12.63h5.89c1.46,4.24,3.01,8.47,4.66,12.63h-5.19c-.25-.98-.59-1.95-.93-2.92h-4.49m3.69-3.22l-.93-3.09-.04.04-1.36,3.05h2.33Z"/><path class="cls-2" d="m142.88,83.06c.26-2.37.7-8.05.7-12.63h5.8c1.21,2.37,2.35,4.75,3.39,7.08h.04c.15-2.29.25-4.68.27-7.08h4.47c-.38,4.2-.64,8.43-.76,12.63h-5.66c-1.21-2.31-2.48-4.64-3.49-6.91h-.04c-.04,1.23-.21,3.6-.23,6.91h-4.49"/><path class="cls-2" d="m178.78,73.85c-1.14-.08-2.14-.12-3.9-.12-.25,2.71-.38,5.44-.44,9.32h-5.02c.36-3.09.55-6.17.57-9.32-2.92,0-3.29.08-3.92.12l.11-3.43h12.73l-.13,3.43"/></g></svg>