<svg xmlns="http://www.w3.org/2000/svg" xmlns:xlink="http://www.w3.org/1999/xlink" width="161.907" height="58.708" viewBox="0 0 161.907 58.708"><defs><clipPath id="a"><rect width="161.907" height="58.708" fill="none"/></clipPath></defs><path d="M61,1.161H86.42V11.173H71.732v3.762H86.42v6.3H71.732V25H86.42v9.964H61ZM59.836,0V36.125H87.581V23.839H72.892V22.4H87.581V13.773H72.892V12.334H87.581V0Z" transform="translate(-25.107)" fill="#006837"/><g clip-path="url(#a)"><path d="M138.816,62.076a2.383,2.383,0,0,1-2.063-1.008l-1.008-1.459a11.135,11.135,0,0,0,6.343-10.379c0-7.552-5.585-12.088-12.644-12.088H110.409V73.712h12.442V61.576l4.731,7.454c1.966,3.119,5.141,4.682,9.469,4.682h5.336V62.076Zm-11.588-8.614h-4.377V47.973h4.377a2.753,2.753,0,0,1,2.973,2.772A2.716,2.716,0,0,1,127.228,53.462Z" transform="translate(-46.326 -15.585)" fill="none" stroke="#006837" stroke-miterlimit="10" stroke-width="1"/><path d="M11.6,18.078h7.95V11.092H10.181C4.1,11.092,0,14.8,0,22.054c0,7.289,4.1,10.9,10.181,10.9h8.913V22.415H12.532V26H11.6c-2.77,0-4.158-1.324-4.158-3.946q0-3.975,4.158-3.975" transform="translate(0 -4.654)" fill="#4d9149"/><path d="M51.909,26a1.424,1.424,0,0,1-1.233-.6l-.6-.872a6.658,6.658,0,0,0,3.792-6.206c0-4.515-3.34-7.228-7.56-7.228H34.924V32.957h7.439V25.7l2.829,4.457a6.2,6.2,0,0,0,5.661,2.8h3.19V26ZM44.98,20.849H42.363V17.568H44.98a1.646,1.646,0,0,1,1.778,1.658,1.624,1.624,0,0,1-1.778,1.624" transform="translate(-14.654 -4.654)" fill="#4d9149"/><path d="M166.292,32.958h-6.837l-6.264-9.819v9.819h-7.138V11.092h6.807l6.295,9.547V11.092h7.138Z" transform="translate(-61.282 -4.654)" fill="#4d9149"/><path d="M130.355,18.064H121.19v1.623h9.165v4.657H121.19v1.623h9.165v6.942H113.768V11.092h16.587Z" transform="translate(-47.736 -4.654)" fill="#4d9149"/><path d="M48.413,57.755h6.135V50.769H43.262A5.128,5.128,0,0,0,37.9,55.857a5.564,5.564,0,0,0,1.412,3.7l4.158,5.088a.733.733,0,0,1,.179.453.6.6,0,0,1-.661.573H36.126v6.958H48.143A5.106,5.106,0,0,0,53.5,67.575a6.042,6.042,0,0,0-1.413-3.734l-4.157-5.093a.64.64,0,0,1-.179-.419.581.581,0,0,1,.661-.573" transform="translate(-15.158 -21.302)" fill="#4d9149"/><path d="M177.565,72.635h-9.758l-7.018-21.866H169.4l3.524,13.463,3.524-13.463h8.1Z" transform="translate(-67.465 -21.302)" fill="#4d9149"/><rect width="7.439" height="21.866" transform="translate(118.26 29.467)" fill="#4d9149"/><path d="M235.427,57.757h-5.241q-4.156,0-4.156,3.976c0,2.62,1.385,3.946,4.156,3.946h5.241v6.957h-6.656c-6.084,0-10.18-3.614-10.18-10.9,0-7.259,4.1-10.963,10.18-10.963h6.656Z" transform="translate(-91.718 -21.302)" fill="#4d9149"/><path d="M266.962,57.741H257.8v1.623h9.165v4.657H257.8v1.623h9.165v6.942H250.375V50.769h16.587Z" transform="translate(-105.054 -21.302)" fill="#4d9149"/></g></svg>