<svg id="Laag_1" data-name="Laag 1" xmlns="http://www.w3.org/2000/svg" viewBox="0 0 489.14 143.85"><defs><style>.cls-1{fill:#004831;}.cls-2{fill:#76b82a;}</style></defs><title>logo</title><path class="cls-1" d="M281.48,95.45a2.64,2.64,0,0,1,.88-2.25,3.85,3.85,0,0,1,2.37-.66,6.09,6.09,0,0,1,1.9.27q.83.27,1,.36v30.56h-6.19Z" transform="translate(-58.7 -50.23)"/><path class="cls-1" d="M308.86,123.74v-13q0-5.63-4.91-5.63a8.45,8.45,0,0,0-4.18.86v17.8h-6V102l1-.45a19.66,19.66,0,0,1,2.2-.75,28.14,28.14,0,0,1,3.16-.68,24.72,24.72,0,0,1,3.95-.29,14.31,14.31,0,0,1,4.37.63,9.53,9.53,0,0,1,3.39,1.86,8.24,8.24,0,0,1,2.18,3,10.36,10.36,0,0,1,.77,4.11v14.3Z" transform="translate(-58.7 -50.23)"/><path class="cls-1" d="M327.31,105.76v10a3.34,3.34,0,0,0,.88,2.7,3.53,3.53,0,0,0,2.28.7,4.37,4.37,0,0,0,1.17-.16,6.82,6.82,0,0,0,1-.36,5,5,0,0,0,.75-.41l.34-.25,2.22,3.81-.55.5a7,7,0,0,1-1.34.86,11.76,11.76,0,0,1-2.13.82,10.24,10.24,0,0,1-2.84.36q-4.1,0-5.93-2.22a8.76,8.76,0,0,1-1.84-5.77V105.76h-1.41a2.54,2.54,0,0,1-2-.68,2.87,2.87,0,0,1-.58-1.91,4.86,4.86,0,0,1,.26-1.66l.34-.93h3.41v-4a2.42,2.42,0,0,1,.85-2.13,3.91,3.91,0,0,1,2.26-.59,6.9,6.9,0,0,1,1.81.23c.56.15.9.26,1,.32v6.17h4.57a2.54,2.54,0,0,1,2,.68,2.87,2.87,0,0,1,.58,1.91,4.86,4.86,0,0,1-.26,1.66l-.34.93Z" transform="translate(-58.7 -50.23)"/><path class="cls-1" d="M358.78,108.76a8.35,8.35,0,0,1-.36,2.54,4.73,4.73,0,0,1-1.15,1.93,5.19,5.19,0,0,1-2.09,1.23,10.37,10.37,0,0,1-3.22.43h-8.53a5.28,5.28,0,0,0,2,3.15,7,7,0,0,0,4.4,1.29,15.73,15.73,0,0,0,4.2-.43,13.21,13.21,0,0,0,1.81-.61l1.62,4.49a3.32,3.32,0,0,1-.73.36,13.65,13.65,0,0,1-1.73.57q-1.09.3-2.58.55a20.37,20.37,0,0,1-3.33.25,14.69,14.69,0,0,1-4.72-.73,9.94,9.94,0,0,1-6.25-6,14.55,14.55,0,0,1-.9-5.36,15.22,15.22,0,0,1,.83-5.18,11.67,11.67,0,0,1,2.35-4,10.39,10.39,0,0,1,3.65-2.56,13.1,13.1,0,0,1,9-.2,9,9,0,0,1,3.12,1.93,8,8,0,0,1,1.9,2.86A9.38,9.38,0,0,1,358.78,108.76Zm-5.63-.54a4.45,4.45,0,0,0-.23-1.36,3.75,3.75,0,0,0-.75-1.32,3.91,3.91,0,0,0-1.37-1,5.07,5.07,0,0,0-2.09-.39,4.43,4.43,0,0,0-2.39.64,5.89,5.89,0,0,0-1.71,1.59,7.06,7.06,0,0,0-1,2.09,7.55,7.55,0,0,0-.34,2.18h7.64q1.41,0,1.84-.61A3.24,3.24,0,0,0,353.15,108.21Z" transform="translate(-58.7 -50.23)"/><path class="cls-1" d="M373.28,105.08a7.86,7.86,0,0,0-2.77.39,10.75,10.75,0,0,0-1.37.61v17.66h-6V102.58c.11-.09.43-.29.94-.59a13.35,13.35,0,0,1,2-.93,22.83,22.83,0,0,1,2.92-.86,16.06,16.06,0,0,1,3.63-.39,13.53,13.53,0,0,1,2.26.18,7.82,7.82,0,0,1,1.88.55,3.36,3.36,0,0,1,1.28,1,2.27,2.27,0,0,1,.47,1.45,3.66,3.66,0,0,1-.47,2,8,8,0,0,1-.81,1.09,1.59,1.59,0,0,0-.56-.3q-.43-.16-1-.32a8.9,8.9,0,0,0-1.22-.25A9.32,9.32,0,0,0,373.28,105.08Z" transform="translate(-58.7 -50.23)"/><path class="cls-1" d="M396.57,123.74v-13q0-5.63-4.91-5.63a8.45,8.45,0,0,0-4.18.86v17.8h-6V102l1-.45a19.66,19.66,0,0,1,2.2-.75,28.14,28.14,0,0,1,3.16-.68,24.72,24.72,0,0,1,3.95-.29,14.31,14.31,0,0,1,4.37.63,9.53,9.53,0,0,1,3.39,1.86,8.24,8.24,0,0,1,2.18,3,10.36,10.36,0,0,1,.77,4.11v14.3Z" transform="translate(-58.7 -50.23)"/><path class="cls-1" d="M427.47,123.56a9.45,9.45,0,0,1-.94.18q-.81.14-2.15.27t-3.18.25q-1.84.11-4,.11a19.7,19.7,0,0,1-5.19-.57,8.57,8.57,0,0,1-3.22-1.57,5.15,5.15,0,0,1-1.64-2.34,9.18,9.18,0,0,1-.45-2.93,9.53,9.53,0,0,1,.55-3.41,5.28,5.28,0,0,1,1.79-2.38,8.43,8.43,0,0,1,3.18-1.38,21,21,0,0,1,4.72-.45q1.92,0,3.2.11t1.49.16v-.73a4,4,0,0,0-1.37-3.27,6.53,6.53,0,0,0-4.22-1.14,9.24,9.24,0,0,0-2.26.25,8.73,8.73,0,0,0-2.88,1.27q-.49.34-.79.52a3.22,3.22,0,0,1-1.07-1.16,3.45,3.45,0,0,1-.47-1.79,2.54,2.54,0,0,1,.6-1.7,4.26,4.26,0,0,1,1.6-1.14,9,9,0,0,1,2.3-.61,19.34,19.34,0,0,1,2.67-.18,22,22,0,0,1,4.76.48,9.63,9.63,0,0,1,3.71,1.63,7.57,7.57,0,0,1,2.41,3.09,12,12,0,0,1,.85,4.83Zm-5.89-10a3,3,0,0,0-.51-.09l-.94-.09-1.22-.07-1.34,0a9.84,9.84,0,0,0-2.56.27,3.76,3.76,0,0,0-1.51.75,2.39,2.39,0,0,0-.73,1.14,4.9,4.9,0,0,0-.19,1.39,4.36,4.36,0,0,0,.17,1.23,2.27,2.27,0,0,0,.7,1.07,4,4,0,0,0,1.49.77,8.71,8.71,0,0,0,2.5.29,18.73,18.73,0,0,0,2.69-.16q1.07-.16,1.45-.25Z" transform="translate(-58.7 -50.23)"/><path class="cls-1" d="M440,105.76v10a3.34,3.34,0,0,0,.88,2.7,3.53,3.53,0,0,0,2.28.7,4.37,4.37,0,0,0,1.17-.16,6.82,6.82,0,0,0,1-.36,5,5,0,0,0,.75-.41l.34-.25,2.22,3.81-.55.5a7,7,0,0,1-1.34.86,11.76,11.76,0,0,1-2.13.82,10.24,10.24,0,0,1-2.84.36q-4.1,0-5.93-2.22a8.76,8.76,0,0,1-1.84-5.77V105.76h-1.41a2.54,2.54,0,0,1-2-.68,2.87,2.87,0,0,1-.58-1.91,4.86,4.86,0,0,1,.26-1.66l.34-.93H434v-4a2.42,2.42,0,0,1,.85-2.13,3.91,3.91,0,0,1,2.26-.59,6.9,6.9,0,0,1,1.81.23c.56.15.9.26,1,.32v6.17h4.57a2.54,2.54,0,0,1,2,.68,2.87,2.87,0,0,1,.58,1.91,4.86,4.86,0,0,1-.26,1.66l-.34.93Z" transform="translate(-58.7 -50.23)"/><path class="cls-1" d="M457.87,93.73a3.44,3.44,0,0,1-1,2.47,3.19,3.19,0,0,1-2.39,1,3.14,3.14,0,0,1-2.35-1,3.44,3.44,0,0,1-1-2.47,3.36,3.36,0,0,1,1-2.45,3.18,3.18,0,0,1,2.35-1,3.23,3.23,0,0,1,2.39,1A3.36,3.36,0,0,1,457.87,93.73Zm-6.32,9.58a2.42,2.42,0,0,1,.85-2.13,3.9,3.9,0,0,1,2.26-.59,6.9,6.9,0,0,1,1.81.23c.56.15.9.26,1,.32v22.61h-6Z" transform="translate(-58.7 -50.23)"/><path class="cls-1" d="M485.7,112.16a13.83,13.83,0,0,1-.83,4.84,11.43,11.43,0,0,1-2.39,3.9,11.55,11.55,0,0,1-3.73,2.63,12.62,12.62,0,0,1-9.73,0,11.55,11.55,0,0,1-3.73-2.63,11.42,11.42,0,0,1-2.39-3.9,14.46,14.46,0,0,1,0-9.67,11.42,11.42,0,0,1,2.39-3.9,11.56,11.56,0,0,1,3.73-2.63,12.62,12.62,0,0,1,9.73,0,11.56,11.56,0,0,1,3.73,2.63,11.43,11.43,0,0,1,2.39,3.9A13.83,13.83,0,0,1,485.7,112.16Zm-6.06,0a11,11,0,0,0-.36-2.88,6.62,6.62,0,0,0-1.11-2.32,5.54,5.54,0,0,0-1.81-1.54,5.68,5.68,0,0,0-5,0,5.53,5.53,0,0,0-1.81,1.54,6.59,6.59,0,0,0-1.11,2.32,11.64,11.64,0,0,0,0,5.77,6.58,6.58,0,0,0,1.11,2.32,5.51,5.51,0,0,0,1.81,1.54,5.68,5.68,0,0,0,5,0,5.52,5.52,0,0,0,1.81-1.54,6.61,6.61,0,0,0,1.11-2.32A11,11,0,0,0,479.64,112.16Z" transform="translate(-58.7 -50.23)"/><path class="cls-1" d="M505.28,123.74v-13q0-5.63-4.91-5.63a8.45,8.45,0,0,0-4.18.86v17.8h-6V102l1-.45a19.66,19.66,0,0,1,2.2-.75,28.14,28.14,0,0,1,3.16-.68,24.72,24.72,0,0,1,3.95-.29,14.31,14.31,0,0,1,4.37.63,9.53,9.53,0,0,1,3.39,1.86,8.24,8.24,0,0,1,2.18,3,10.36,10.36,0,0,1,.77,4.11v14.3Z" transform="translate(-58.7 -50.23)"/><path class="cls-1" d="M536.18,123.56a9.45,9.45,0,0,1-.94.18q-.81.14-2.15.27t-3.18.25q-1.84.11-4,.11a19.7,19.7,0,0,1-5.19-.57,8.57,8.57,0,0,1-3.22-1.57,5.15,5.15,0,0,1-1.64-2.34,9.18,9.18,0,0,1-.45-2.93,9.53,9.53,0,0,1,.55-3.41,5.28,5.28,0,0,1,1.79-2.38,8.43,8.43,0,0,1,3.18-1.38,21,21,0,0,1,4.72-.45q1.92,0,3.2.11t1.49.16v-.73a4,4,0,0,0-1.37-3.27,6.53,6.53,0,0,0-4.22-1.14,9.24,9.24,0,0,0-2.26.25A8.73,8.73,0,0,0,519.6,106q-.49.34-.79.52a3.22,3.22,0,0,1-1.07-1.16,3.45,3.45,0,0,1-.47-1.79,2.54,2.54,0,0,1,.6-1.7,4.26,4.26,0,0,1,1.6-1.14,9,9,0,0,1,2.3-.61,19.34,19.34,0,0,1,2.67-.18,22,22,0,0,1,4.76.48,9.63,9.63,0,0,1,3.71,1.63,7.57,7.57,0,0,1,2.41,3.09,12,12,0,0,1,.85,4.83Zm-5.89-10a3,3,0,0,0-.51-.09l-.94-.09-1.22-.07-1.34,0a9.84,9.84,0,0,0-2.56.27,3.76,3.76,0,0,0-1.51.75,2.39,2.39,0,0,0-.73,1.14,4.9,4.9,0,0,0-.19,1.39,4.36,4.36,0,0,0,.17,1.23,2.27,2.27,0,0,0,.7,1.07,4,4,0,0,0,1.49.77,8.71,8.71,0,0,0,2.5.29,18.73,18.73,0,0,0,2.69-.16q1.07-.16,1.45-.25Z" transform="translate(-58.7 -50.23)"/><path class="cls-1" d="M541.87,93a2.42,2.42,0,0,1,.85-2.13,3.91,3.91,0,0,1,2.26-.59,6.87,6.87,0,0,1,1.81.23c.56.15.9.26,1,.32v32.92h-6Z" transform="translate(-58.7 -50.23)"/><path class="cls-1" d="M293.09,134.32a16.61,16.61,0,0,1,1.94.11,11.6,11.6,0,0,1,1.77.34,8.22,8.22,0,0,1,3.05,1.48,8.8,8.8,0,0,1,2.13,2.41,10.94,10.94,0,0,1,1.24,3,13.71,13.71,0,0,1,.41,3.31,13.43,13.43,0,0,1-.58,3.9,8.79,8.79,0,0,1-1.94,3.41,9.7,9.7,0,0,1-3.63,2.41,15.32,15.32,0,0,1-5.68.91,21.19,21.19,0,0,1-2.77-.16,13,13,0,0,1-1.49-.25v10.31h-6.06V137.86q0-3.54,3.46-3.54Zm4.27,10.53a6.55,6.55,0,0,0-.68-2.84,3.74,3.74,0,0,0-2.18-2,5.7,5.7,0,0,0-1.34-.34,11.29,11.29,0,0,0-1.6-.11h-4V150q.34.09,1.3.25a13.52,13.52,0,0,0,2.2.16,8.34,8.34,0,0,0,3.14-.5,5.1,5.1,0,0,0,1.92-1.29,4.49,4.49,0,0,0,1-1.79A7.3,7.3,0,0,0,297.35,144.85Z" transform="translate(-58.7 -50.23)"/><path class="cls-1" d="M307.7,134.77a2.42,2.42,0,0,1,.85-2.13,3.91,3.91,0,0,1,2.26-.59,6.87,6.87,0,0,1,1.81.23c.56.15.9.26,1,.32v32.92h-6Z" transform="translate(-58.7 -50.23)"/><path class="cls-1" d="M338.93,165.33a9.45,9.45,0,0,1-.94.18q-.81.14-2.15.27t-3.18.25q-1.84.11-4,.11a19.7,19.7,0,0,1-5.19-.57,8.57,8.57,0,0,1-3.22-1.57,5.15,5.15,0,0,1-1.64-2.34,9.18,9.18,0,0,1-.45-2.93,9.53,9.53,0,0,1,.55-3.41,5.28,5.28,0,0,1,1.79-2.38,8.43,8.43,0,0,1,3.18-1.38,21,21,0,0,1,4.72-.45q1.92,0,3.2.11t1.49.16v-.73a4,4,0,0,0-1.37-3.27,6.53,6.53,0,0,0-4.22-1.14,9.24,9.24,0,0,0-2.26.25,8.73,8.73,0,0,0-2.88,1.27q-.49.34-.79.52a3.22,3.22,0,0,1-1.07-1.16,3.45,3.45,0,0,1-.47-1.79,2.54,2.54,0,0,1,.6-1.7,4.26,4.26,0,0,1,1.6-1.14,9,9,0,0,1,2.3-.61,19.34,19.34,0,0,1,2.67-.18,22,22,0,0,1,4.76.48,9.63,9.63,0,0,1,3.71,1.63,7.57,7.57,0,0,1,2.41,3.09,12,12,0,0,1,.85,4.83Zm-5.89-10a3,3,0,0,0-.51-.09l-.94-.09-1.22-.07-1.34,0a9.84,9.84,0,0,0-2.56.27,3.76,3.76,0,0,0-1.51.75,2.39,2.39,0,0,0-.73,1.14,4.9,4.9,0,0,0-.19,1.39,4.36,4.36,0,0,0,.17,1.23,2.27,2.27,0,0,0,.7,1.07,4,4,0,0,0,1.49.77,8.71,8.71,0,0,0,2.5.29,18.73,18.73,0,0,0,2.69-.16q1.07-.16,1.45-.25Z" transform="translate(-58.7 -50.23)"/><path class="cls-1" d="M359.58,165.51v-13q0-5.63-4.91-5.63a8.45,8.45,0,0,0-4.18.86v17.8h-6V143.76l1-.45a19.66,19.66,0,0,1,2.2-.75,28.14,28.14,0,0,1,3.16-.68,24.72,24.72,0,0,1,3.95-.29,14.31,14.31,0,0,1,4.37.63,9.53,9.53,0,0,1,3.39,1.86,8.24,8.24,0,0,1,2.18,3,10.36,10.36,0,0,1,.77,4.11v14.3Z" transform="translate(-58.7 -50.23)"/><path class="cls-1" d="M378,147.53v10a3.34,3.34,0,0,0,.88,2.7,3.53,3.53,0,0,0,2.28.7,4.37,4.37,0,0,0,1.17-.16,6.82,6.82,0,0,0,1-.36,5,5,0,0,0,.75-.41l.34-.25,2.22,3.81-.55.5a7,7,0,0,1-1.34.86,11.76,11.76,0,0,1-2.13.82,10.24,10.24,0,0,1-2.84.36q-4.1,0-5.93-2.22a8.76,8.76,0,0,1-1.84-5.77V147.53h-1.41a2.54,2.54,0,0,1-2-.68,2.87,2.87,0,0,1-.58-1.91,4.86,4.86,0,0,1,.26-1.66l.34-.93h3.41v-4a2.42,2.42,0,0,1,.85-2.13,3.91,3.91,0,0,1,2.26-.59,6.9,6.9,0,0,1,1.81.23c.56.15.9.26,1,.32v6.17h4.57a2.54,2.54,0,0,1,2,.68,2.87,2.87,0,0,1,.58,1.91,4.86,4.86,0,0,1-.26,1.66l-.34.93Z" transform="translate(-58.7 -50.23)"/><path class="cls-1" d="M419.6,134.32a2.91,2.91,0,0,1,2.26.73,3.06,3.06,0,0,1,.64,2.09,5.79,5.79,0,0,1-.28,1.86,6.17,6.17,0,0,1-.45,1.09h-9.56v25.42H406V140.08h-6.79a2.91,2.91,0,0,1-2.26-.73,3.06,3.06,0,0,1-.64-2.09,5.77,5.77,0,0,1,.28-1.86,6,6,0,0,1,.45-1.09Z" transform="translate(-58.7 -50.23)"/><path class="cls-1" d="M431.91,146.85a7.86,7.86,0,0,0-2.77.39,10.75,10.75,0,0,0-1.37.61v17.66h-6V144.35c.11-.09.43-.29.94-.59a13.35,13.35,0,0,1,2-.93,22.83,22.83,0,0,1,2.92-.86,16.06,16.06,0,0,1,3.63-.39,13.53,13.53,0,0,1,2.26.18,7.82,7.82,0,0,1,1.88.55,3.36,3.36,0,0,1,1.28,1,2.27,2.27,0,0,1,.47,1.45,3.66,3.66,0,0,1-.47,2,8,8,0,0,1-.81,1.09,1.59,1.59,0,0,0-.56-.3q-.43-.16-1-.32a8.9,8.9,0,0,0-1.22-.25A9.32,9.32,0,0,0,431.91,146.85Z" transform="translate(-58.7 -50.23)"/><path class="cls-1" d="M459.26,165.33a9.45,9.45,0,0,1-.94.18q-.81.14-2.15.27T453,166q-1.84.11-4,.11a19.7,19.7,0,0,1-5.19-.57,8.57,8.57,0,0,1-3.22-1.57,5.15,5.15,0,0,1-1.64-2.34,9.18,9.18,0,0,1-.45-2.93,9.53,9.53,0,0,1,.55-3.41,5.28,5.28,0,0,1,1.79-2.38,8.43,8.43,0,0,1,3.18-1.38,21,21,0,0,1,4.72-.45q1.92,0,3.2.11t1.49.16v-.73a4,4,0,0,0-1.37-3.27,6.53,6.53,0,0,0-4.22-1.14,9.24,9.24,0,0,0-2.26.25,8.73,8.73,0,0,0-2.88,1.27q-.49.34-.79.52a3.22,3.22,0,0,1-1.07-1.16,3.45,3.45,0,0,1-.47-1.79,2.54,2.54,0,0,1,.6-1.7,4.26,4.26,0,0,1,1.6-1.14,9,9,0,0,1,2.3-.61,19.34,19.34,0,0,1,2.67-.18,22,22,0,0,1,4.76.48,9.63,9.63,0,0,1,3.71,1.63,7.57,7.57,0,0,1,2.41,3.09,12,12,0,0,1,.85,4.83Zm-5.89-10a3,3,0,0,0-.51-.09l-.94-.09-1.22-.07-1.34,0a9.84,9.84,0,0,0-2.56.27,3.76,3.76,0,0,0-1.51.75,2.39,2.39,0,0,0-.73,1.14,4.9,4.9,0,0,0-.19,1.39,4.36,4.36,0,0,0,.17,1.23,2.27,2.27,0,0,0,.7,1.07,4,4,0,0,0,1.49.77,8.71,8.71,0,0,0,2.5.29,18.73,18.73,0,0,0,2.69-.16q1.07-.16,1.45-.25Z" transform="translate(-58.7 -50.23)"/><path class="cls-1" d="M486,165.51l-1,.16q-.75.11-1.86.2l-2.52.18q-1.41.09-2.94.09-7,0-10.5-3.43t-3.5-9.51a13.88,13.88,0,0,1,.81-4.95,10.54,10.54,0,0,1,2.2-3.59,9.29,9.29,0,0,1,3.2-2.2,10,10,0,0,1,3.86-.75,8.2,8.2,0,0,1,2.6.39,8.34,8.34,0,0,1,1.94.91,7,7,0,0,1,1.22,1,5.67,5.67,0,0,1,.51.59v-9.81a2.42,2.42,0,0,1,.85-2.13,3.91,3.91,0,0,1,2.26-.59,6.86,6.86,0,0,1,1.81.23c.56.15.9.26,1,.32Zm-16.17-11.62a10.06,10.06,0,0,0,.41,2.93,6.58,6.58,0,0,0,1.24,2.34,5.47,5.47,0,0,0,2.13,1.54,8,8,0,0,0,3.09.54,14.67,14.67,0,0,0,2.22-.14,4.29,4.29,0,0,0,1.11-.27v-7.95a7.22,7.22,0,0,0-1.24-4.31,4.27,4.27,0,0,0-3.71-1.72,4.49,4.49,0,0,0-3.86,1.93A8.57,8.57,0,0,0,469.79,153.89Z" transform="translate(-58.7 -50.23)"/><path class="cls-1" d="M512.1,150.53a8.35,8.35,0,0,1-.36,2.54,4.73,4.73,0,0,1-1.15,1.93,5.19,5.19,0,0,1-2.09,1.23,10.37,10.37,0,0,1-3.22.43h-8.53a5.28,5.28,0,0,0,2,3.15,7,7,0,0,0,4.4,1.29,15.73,15.73,0,0,0,4.2-.43,13.21,13.21,0,0,0,1.81-.61l1.62,4.49a3.32,3.32,0,0,1-.73.36,13.65,13.65,0,0,1-1.73.57q-1.09.3-2.58.55a20.37,20.37,0,0,1-3.33.25,14.69,14.69,0,0,1-4.72-.73,9.94,9.94,0,0,1-6.25-6,14.55,14.55,0,0,1-.9-5.36,15.22,15.22,0,0,1,.83-5.18,11.67,11.67,0,0,1,2.35-4,10.39,10.39,0,0,1,3.65-2.56,13.1,13.1,0,0,1,9-.2,9,9,0,0,1,3.12,1.93,8,8,0,0,1,1.9,2.86A9.38,9.38,0,0,1,512.1,150.53Zm-5.63-.54a4.45,4.45,0,0,0-.23-1.36,3.75,3.75,0,0,0-.75-1.32,3.91,3.91,0,0,0-1.37-1,5.07,5.07,0,0,0-2.09-.39,4.43,4.43,0,0,0-2.39.64,5.89,5.89,0,0,0-1.71,1.59,7.06,7.06,0,0,0-1,2.09,7.55,7.55,0,0,0-.34,2.18h7.64q1.41,0,1.84-.61A3.24,3.24,0,0,0,506.47,150Z" transform="translate(-58.7 -50.23)"/><path class="cls-2" d="M195.07,138.58c0,18.27,10.93,29.64,27.34,29.64,17.84,0,29.78-13.52,26.62-29.06,0,0-4.46,5.32-11.37,5.32-7.63,0-12.66-6.33-12.66-14V117.14c14-.14,22.88-10.36,22.88-23.74H225V60.64c-18,0-29.93,10.65-29.93,28.78ZM98.18,165.45c0,18.42,12.37,28.63,29.93,28.63V136.71c0-13.81,8.34-21.44,23.74-21.44,1.87,3.74,4.46,9.64,4.46,15.25,0,8.2-5.47,13.67-13.24,13.67a14.06,14.06,0,0,1-8.06-2.45,19.45,19.45,0,0,0-1.73,8.34c0,13.09,11.22,18.13,22,18.13,18.27,0,31.37-14.39,31.37-36,0-26.33-19.42-41.72-42.3-41.72-22,0-46.19,14.24-46.19,46.33ZM58.7,70.81A17.17,17.17,0,0,0,75.53,88.22c8.92,0,16.69-7.48,16.69-18.13,0-6.62-2.88-15.11-5.76-19.86C73.95,49.95,58.7,57.14,58.7,70.81Zm0,65.9c0,18.42,12.37,28.63,29.93,28.63V93.4H58.7Z" transform="translate(-58.7 -50.23)"/></svg>