<?xml version="1.0" encoding="utf-8"?>
<!-- Generator: Adobe Illustrator 25.2.1, SVG Export Plug-In . SVG Version: 6.00 Build 0)  -->
<svg version="1.1" id="Laag_1" xmlns="http://www.w3.org/2000/svg" xmlns:xlink="http://www.w3.org/1999/xlink" x="0px" y="0px"
	 viewBox="0 0 330.6 115" style="enable-background:new 0 0 330.6 115;" xml:space="preserve">
<style type="text/css">
	.st0{fill:#80C41C;}
	.st1{fill:#01673D;}
	.st2{fill:#FFFFFF;}
</style>
<g>
	<g>
		<path class="st0" d="M309.9,57.5c14.4-7.5,18.2-16.6,18.2-16.6s-9-5.5-26.2-2.4c8.3-15.5,6.1-26.2,6.1-26.2s-10.3,0.8-22.4,13.1
			c-2.7-16.2-10.2-22.7-10.2-22.7s-7.5,6.5-10.2,22.6c-12-12.2-22.3-13.1-22.3-13.1s-2.5,10.5,6,26.2c-17.2-3-26.2,2.5-26.2,2.5
			s3.8,9.1,18.2,16.6c-14.4,7.5-18.2,16.6-18.2,16.6s9,5.5,26.2,2.5c-8.3,15.5-6.1,26.2-6.1,26.2s10.3-0.8,22.3-13.1
			c2.7,16.2,10.2,22.7,10.2,22.7s7.5-6.5,10.2-22.7c12,12.2,22.3,13.1,22.3,13.1s2.5-10.5-6-26.2c17.2,3,26.2-2.5,26.2-2.5
			S324.3,65,309.9,57.5"/>
		<path class="st1" d="M314,57.5c12.2-7.3,15.7-15.4,15.9-15.8l0.7-1.6l-1.5-0.9c-0.5-0.3-8.6-5-23.7-3.3c6.5-14,4.7-23.6,4.6-24.1
			l-0.4-1.7l-1.8,0.1c-0.5,0-9.8,0.9-20.9,11.1c-3.2-14-9.8-19.8-10.2-20.2L275.4,0l-1.3,1.1c-0.4,0.3-7,6.2-10.2,20.1
			c-11.1-10.1-20.4-11-20.9-11.1l-1.7-0.1l-0.4,1.7c-0.1,0.5-2.2,9.9,4.4,24.1c-15.1-1.7-23.2,3-23.7,3.3l-1.5,0.9l0.7,1.6
			c0.2,0.5,3.7,8.5,15.9,15.8c-12.2,7.3-15.7,15.4-15.9,15.8l-0.7,1.6l1.5,0.9c0.5,0.3,8.6,5,23.7,3.3c-6.5,14-4.6,23.6-4.5,24.1
			l0.4,1.7l1.8-0.1c0.5,0,9.8-0.9,20.9-11.1c3.2,14,9.8,19.8,10.2,20.2l1.3,1.1l1.3-1.1c0.4-0.3,7-6.2,10.2-20.2
			c11.1,10.1,20.4,11,20.9,11.1l1.7,0.1l0.4-1.7c0.1-0.5,2.2-9.9-4.4-24.1c15.1,1.7,23.2-3,23.7-3.3l1.5-0.9l-0.7-1.6
			C329.7,72.8,326.2,64.8,314,57.5 M325.3,41.8c-1.7,2.7-6.2,8.4-15.4,13.4c-3.7-1.9-8.1-3.6-13.2-5.1c2.7-3.4,4.8-6.7,6.5-9.9
			C314.7,38.4,322.1,40.5,325.3,41.8 M292.7,61.8l-3.1,0.8l2,2.4c2.5,3,4.5,5.9,6.3,8.6c-3.3-0.8-6.9-1.9-10.8-3.5l-2.9-1.2l0.2,3.1
			c0.3,4.8,0.2,9.1-0.2,13c-2.3-2.7-4.7-5.9-7.1-9.6l-1.7-2.7l-1.7,2.7c-2.4,3.7-4.7,6.9-7.1,9.6c-0.4-3.8-0.5-8.1-0.2-13l0.2-3.1
			l-2.9,1.2c-3.9,1.5-7.4,2.7-10.8,3.5c1.7-2.8,3.8-5.7,6.3-8.6l2-2.4l-3.1-0.8c-4.8-1.2-9-2.7-12.6-4.3c3.6-1.6,7.8-3.1,12.6-4.3
			l3.1-0.8l-2-2.4c-2.5-3-4.5-5.9-6.3-8.6c3.3,0.8,6.9,1.9,10.8,3.5l2.9,1.2l-0.2-3.1c-0.3-4.8-0.2-9.2,0.2-13
			c2.4,2.7,4.7,5.9,7.1,9.6l1.7,2.7l1.7-2.7c2.4-3.7,4.7-6.9,7.1-9.6c0.4,3.8,0.5,8.1,0.2,13l-0.2,3.1l2.9-1.2
			c3.9-1.5,7.4-2.7,10.8-3.5c-1.7,2.8-3.8,5.6-6.2,8.6l-2,2.4l3.1,0.8c4.8,1.2,9,2.7,12.6,4.3C301.7,59.1,297.5,60.6,292.7,61.8
			 M306.2,14.6c0.2,3.5-0.3,11.6-5.7,22.1c-3.7,0.7-7.7,1.8-12,3.3c0.2-5.3-0.1-9.9-0.7-14C295.8,18.1,302.9,15.4,306.2,14.6
			 M275.4,5.6c2.1,2.5,6.1,8.5,8,19.1c-2.6,2.8-5.3,6.1-8,10.1c-2.7-4-5.4-7.3-8.1-10.1C269.3,14.1,273.3,8.1,275.4,5.6 M244.2,14.5
			c3.1,0.7,10.4,3.3,18.8,11.5c-0.6,4.1-0.9,8.7-0.7,14c-4.4-1.6-8.4-2.6-12-3.3C244.5,25.5,244.1,17.1,244.2,14.5 M225.6,41.8
			c3.2-1.3,10.7-3.3,22.1-1.5c1.8,3.1,3.9,6.4,6.6,9.9c-5.1,1.5-9.5,3.2-13.3,5.1C231.7,50.1,227.3,44.5,225.6,41.8 M225.6,73.2
			c1.7-2.7,6.2-8.4,15.4-13.4c3.7,1.9,8.1,3.6,13.2,5.1c-2.7,3.4-4.8,6.7-6.6,9.9C236.2,76.5,228.7,74.4,225.6,73.2 M244.6,100.4
			c-0.2-3.5,0.3-11.6,5.7-22.1c3.7-0.7,7.7-1.8,12-3.3c-0.2,5.3,0.1,9.9,0.7,14C255,96.9,247.9,99.6,244.6,100.4 M275.4,109.4
			c-2.1-2.5-6.1-8.5-8-19.1c2.6-2.8,5.4-6.1,8-10.1c2.7,4,5.4,7.3,8.1,10.1C281.5,100.9,277.5,106.9,275.4,109.4 M306.6,100.5
			c-3.1-0.7-10.4-3.3-18.8-11.5c0.6-4.1,0.9-8.7,0.7-14c4.4,1.6,8.4,2.6,12.1,3.3C306.4,89.5,306.7,97.9,306.6,100.5 M303.2,74.7
			c-1.8-3.1-3.9-6.4-6.6-9.9c5.1-1.5,9.5-3.2,13.3-5.1c9.3,5.1,13.7,10.7,15.4,13.4C322.1,74.4,314.6,76.5,303.2,74.7"/>
	</g>
	<path class="st2" d="M296.6,59c-1.7-0.3-3.9-0.6-6-0.8c0-0.3,0-0.7,0-1c2-0.2,4.3-0.5,6-0.8c11.1-1.8,10.9-2.9,10.8-3.8
		c-0.1-0.9-0.3-2.1-11.4-0.3c-1.7,0.3-4,0.7-6,1.1c-0.1-0.3-0.2-0.6-0.3-0.9c1.9-0.8,4-1.8,5.5-2.6c3.9-2,8.7-4.7,9.1-6
		c0.1-0.3,0.1-0.7-0.1-1c-0.1-0.3-0.4-0.5-0.7-0.6c-1.4-0.5-7,2.2-10.2,3.9c-2.3,1.2-4.1,2.2-5.4,3c-0.2-0.3-0.4-0.5-0.6-0.8
		c1.2-1,2.6-2.4,4.5-4.2c7.9-7.9,7.1-8.8,6.4-9.4c-0.2-0.2-0.6-0.4-0.9-0.4c-1.5,0-6,4.3-8.5,6.8c-1.4,1.4-3,3.1-4.2,4.5
		c-0.3-0.2-0.5-0.4-0.8-0.6c0.8-1.3,1.8-3.1,3-5.5c5.1-10,4.1-10.5,3.2-11c-0.3-0.2-0.6-0.2-1-0.1c-1.4,0.5-4.4,5.9-6,9.1
		c-0.8,1.6-1.8,3.7-2.6,5.6c-0.1,0-0.2-0.1-0.2-0.1c-0.2-0.1-0.5-0.2-0.7-0.2c0.5-2,0.9-4.4,1.2-6.1c0.6-3.6,1.4-9.7,0.5-10.9
		c-0.2-0.3-0.5-0.5-0.8-0.5c-0.3-0.1-0.7,0-0.9,0.2c-1.2,0.9-2.3,7-2.9,10.5c-0.3,1.7-0.6,4-0.8,6.1c-0.3,0-0.7,0-1,0
		c-0.2-2.1-0.5-4.4-0.8-6.1c-0.7-4.3-1.8-9.7-2.9-10.5c-0.3-0.2-0.6-0.3-0.9-0.2c-0.3,0.1-0.6,0.2-0.8,0.5
		c-0.9,1.2-0.1,7.3,0.5,10.9c0.3,1.7,0.7,4,1.1,6c-0.3,0.1-0.6,0.2-0.9,0.3c-0.6-1.4-1.4-3.2-2.6-5.5c-5.1-10-6.1-9.5-7-9
		c-0.8,0.4-1.9,1,3.2,11c1.2,2.3,2.1,4,2.9,5.3c-0.3,0.2-0.5,0.4-0.8,0.6c-1.3-1.5-2.9-3.2-4.1-4.4c-2.5-2.5-7-6.8-8.5-6.8
		c-0.3,0-0.7,0.1-0.9,0.4c-0.2,0.2-0.4,0.6-0.4,0.9c0,1.5,4.3,6,6.8,8.5c1.2,1.2,2.8,2.7,4.3,4.1c-0.2,0.3-0.4,0.5-0.6,0.8
		c-1.3-0.8-3-1.7-5.2-2.8c-10-5.1-10.5-4.1-11-3.2c-0.2,0.3-0.2,0.6-0.1,1c0.4,1.3,5.2,4,9.1,6c2.2,1.1,3.9,1.9,5.3,2.5
		c-0.1,0.2-0.1,0.3-0.2,0.5c-0.1,0.1-0.1,0.3-0.1,0.4c-1.5-0.3-3.3-0.7-5.7-1.1c-3.6-0.6-9.7-1.4-10.9-0.5c-0.3,0.2-0.5,0.5-0.5,0.8
		c-0.1,0.9-0.3,2.1,10.8,3.8c2.4,0.4,4.2,0.6,5.7,0.8c0,0.3,0,0.7,0,1c-1.5,0.1-3.3,0.4-5.7,0.8c-11.1,1.8-10.9,2.9-10.8,3.8
		c0.1,0.3,0.2,0.6,0.5,0.8c1.2,0.9,7.3,0.1,10.9-0.5c1.6-0.3,3.7-0.6,5.6-1c0.1,0.3,0.2,0.7,0.3,1c-1.7,0.7-3.5,1.6-5.1,2.4
		c-3.2,1.6-8.7,4.6-9.1,6c-0.1,0.3-0.1,0.7,0.1,1c0.2,0.3,0.4,0.5,0.7,0.6c1.3,0.4,6.3-1.9,10.2-3.9c2.1-1.1,3.7-1.9,4.9-2.7
		c0.2,0.3,0.4,0.6,0.6,0.9c-1.4,1.3-2.9,2.7-4.1,3.8c-7.9,7.9-7.1,8.8-6.4,9.4c0.7,0.7,1.5,1.5,9.4-6.5c1.1-1.1,2.6-2.6,3.8-4
		c0.3,0.2,0.6,0.4,0.9,0.6c-0.7,1.3-1.6,2.9-2.6,4.9c-1.6,3.2-4.3,8.8-3.8,10.2c0.1,0.3,0.3,0.6,0.6,0.7c0.3,0.2,0.6,0.2,1,0.1
		c1.4-0.5,4.4-5.9,6-9.1c1-2,1.8-3.7,2.4-5c0.1,0,0.1,0,0.2,0.1c0.3,0.1,0.6,0.2,0.8,0.3c-0.4,1.9-0.8,3.9-1,5.5
		c-1.8,11.1-0.6,11.3,0.3,11.4c0.3,0.1,0.7,0,0.9-0.2c1.2-0.9,2.3-7,2.9-10.5c0.2-1.6,0.5-3.6,0.7-5.5c0.4,0,0.7,0,1.1,0
		c0.2,1.9,0.5,4,0.7,5.6c0.6,3.6,1.7,9.7,2.9,10.5c0.3,0.2,0.6,0.3,0.9,0.2c0.9-0.1,2.1-0.3,0.3-11.4c-0.4-2.3-0.7-4.1-1-5.6
		c0.3-0.1,0.7-0.2,1-0.3c0.6,1.3,1.4,3,2.5,5.1c1.6,3.2,4.6,8.7,6,9.1c0.3,0.1,0.7,0.1,1-0.1c0.8-0.4,1.9-1-3.2-11
		c-1.1-2.1-2-3.8-2.7-5c0.3-0.2,0.6-0.4,0.8-0.6c1.3,1.5,2.8,3,4,4.2c2.5,2.5,7,6.8,8.5,6.8c0.3,0,0.7-0.1,0.9-0.4
		c0.2-0.2,0.4-0.6,0.4-0.9c0-1.5-4.3-6-6.8-8.5c-1.2-1.2-2.7-2.7-4.2-4c0.2-0.3,0.4-0.6,0.6-0.8c1.3,0.8,3,1.7,5.1,2.8
		c3.2,1.6,8.8,4.3,10.2,3.8c0.3-0.1,0.6-0.3,0.7-0.6c0.2-0.3,0.2-0.6,0.1-1c-0.5-1.4-5.9-4.4-9.1-6c-1.5-0.8-3.5-1.7-5.4-2.5
		c0.1-0.3,0.2-0.6,0.3-1c1.5,0.3,3.4,0.7,5.9,1.1c3.6,0.6,9.7,1.4,10.9,0.5c0.3-0.2,0.5-0.5,0.5-0.8c0.1-0.3,0-0.7-0.2-0.9
		C306.3,60.7,301,59.7,296.6,59"/>
	<path class="st1" d="M285.7,56.2c-0.1-0.4-0.7-2-0.7-2l0,0c0,0-0.5-1.6-0.7-2c-0.4-1.2-0.7-2.4-1-2.7c-0.7-0.7-2,0.3-2.1,1.7
		c-0.1,1,0.3,3.1,0.3,3.1l-5.4,1.8l-0.1-5.8c0,0,2.1-0.4,3-0.8c1.3-0.6,1.8-2.1,0.9-2.5c-0.4-0.2-1.6-0.1-2.9-0.1
		c-0.4,0-2.2,0-2.2,0l0,0c0,0-1.7,0-2.2,0c-1.2,0-2.5,0-2.9,0.2c-0.9,0.5-0.3,2,1,2.5c0.9,0.4,3,0.7,3,0.7l0.1,5.8l-5.4-1.7
		c0,0,0.3-2.1,0.2-3.1c-0.2-1.4-1.4-2.4-2.1-1.7c-0.3,0.3-0.6,1.5-1,2.7c-0.1,0.4-0.6,2.1-0.6,2.1l0,0c0,0-0.5,1.7-0.6,2.1
		c-0.4,1.2-0.8,2.4-0.7,2.8c0.2,1,1.8,0.9,2.7-0.1c0.7-0.8,1.6-2.7,1.6-2.7l5.5,1.7l-3.3,4.6c0,0-1.9-0.9-2.9-1.2
		c-1.4-0.3-2.7,0.6-2.2,1.5c0.2,0.4,1.3,1,2.3,1.8c0.3,0.2,1.8,1.3,1.8,1.3l0,0c0,0,1.4,1,1.8,1.3c1,0.7,2,1.5,2.4,1.6
		c1,0.1,1.4-1.4,0.7-2.6c-0.5-0.9-2-2.4-2-2.4l3.3-4.6l3.4,4.6c0,0-1.5,1.5-2,2.4c-0.7,1.2-0.3,2.7,0.8,2.6c0.4-0.1,1.4-0.9,2.4-1.6
		c0.3-0.2,1.7-1.3,1.7-1.3l0,0c0,0,1.4-1,1.7-1.3c1-0.8,2.1-1.4,2.2-1.8c0.4-0.9-0.9-1.8-2.3-1.5c-1,0.2-2.9,1.2-2.9,1.2l-3.4-4.6
		l5.3-1.8c0,0,1,1.9,1.7,2.6c1,1,2.5,1.1,2.7,0.1C286.6,58.6,286.1,57.4,285.7,56.2 M275,57.4L275,57.4L275,57.4L275,57.4L275,57.4z
		"/>
	<path class="st1" d="M82.7,40.5c-0.4,0-0.9,0-1.4-0.1v7.8H77V26c1.8-0.1,3.8-0.1,6-0.1c5.5,0,8.5,2.5,8.5,6.9
		C91.4,37.1,88.1,40.5,82.7,40.5 M82.8,29.4c-0.5,0-1,0-1.5,0v7.4c0.4,0.1,0.9,0.1,1.3,0.1c2.6,0,4.4-1.5,4.4-3.9
		C87,30.8,85.7,29.4,82.8,29.4"/>
	<path class="st1" d="M98.8,48.2h-4.2V27.4c-0.8-0.1-1.9-0.3-2.9-0.3v-2.6c2.1-0.3,4.6-0.4,7.1-0.3V48.2z"/>
	<path class="st1" d="M112.1,48.3c0-1,0-1.9,0.2-2.8l0,0c-0.8,1.8-2.8,3.1-5.2,3.1c-3,0-4.7-1.7-4.7-4.3c0-3.9,3.9-6,9.5-6v-0.9
		c0-1.7-0.8-2.6-3.2-2.6c-1.5,0-3.5,0.5-4.8,1.3l-0.4-3.5c1.6-0.6,3.8-1,5.9-1c5.3,0,6.8,2.1,6.8,5.7V45c0.8,0.1,1.9,0.3,2.9,0.3V48
		C116.8,48.2,114.3,48.3,112.1,48.3 M111.8,41c-4.4,0-5.4,1.3-5.4,2.6c0,1.1,0.7,1.7,1.9,1.7c2.1,0,3.5-2,3.5-4V41z"/>
	<path class="st1" d="M126.3,34.8L126.3,34.8c1-1.9,2.9-3.3,5.6-3.3c3.7,0,4.9,2.4,4.9,5.2v11.5h-4.2V37.8c0-1.7-0.5-2.7-2-2.7
		c-2.1,0-3.8,2.4-3.8,5.3v7.9h-4.2V35.1c-0.8-0.1-1.9-0.3-2.9-0.3v-2.6c2.1-0.3,4.6-0.4,6.8-0.3C126.6,32.6,126.5,33.9,126.3,34.8"
		/>
	<path class="st1" d="M146.9,48.6c-3.6,0-4.7-1.3-4.7-5.1v-8.3h-2.8v-3.3h2.8v-5l4.2-1.1v6.2h4v3.3h-4v7.2c0,2.1,0.5,2.7,1.9,2.7
		c0.7,0,1.4-0.1,2-0.3v3.4C149.3,48.4,148,48.6,146.9,48.6"/>
	<path class="st1" d="M156.9,29.8c-1.4,0-2.6-1.2-2.6-2.6c0-1.4,1.2-2.5,2.6-2.5c1.4,0,2.6,1.1,2.6,2.5
		C159.5,28.6,158.3,29.8,156.9,29.8 M159,48.2h-4.2V35.1c-0.8-0.1-1.9-0.3-2.9-0.3v-2.6c2.1-0.3,4.6-0.4,7-0.3V48.2z"/>
	<path class="st1" d="M170,48.6c-4.6,0-7.6-2.4-7.6-8.2c0-5.1,3.4-8.8,8.4-8.8c4.6,0,7.6,2.6,7.6,8.2
		C178.4,44.9,174.9,48.6,170,48.6 M170.4,35.1c-1.9,0-3.7,1.4-3.7,4.8s1.2,5.1,3.7,5.1c2.1,0,3.7-1.7,3.7-5
		C174,36.8,172.9,35.1,170.4,35.1"/>
	<path class="st1" d="M186.3,34.8L186.3,34.8c1-1.9,2.9-3.3,5.6-3.3c3.7,0,4.9,2.4,4.9,5.2v11.5h-4.2V37.8c0-1.7-0.5-2.7-2-2.7
		c-2.1,0-3.8,2.4-3.8,5.3v7.9h-4.2V35.1c-0.8-0.1-1.9-0.3-2.9-0.3v-2.6c2.1-0.3,4.6-0.4,6.8-0.3C186.5,32.6,186.5,33.9,186.3,34.8"
		/>
	<path class="st1" d="M197.3,68.7v-4.6c0-1.2-0.5-2.1-2-2.1c-1.1,0-1.9,0.6-2.3,1.5l0,0c0.1-0.4,0.1-1,0.1-1.4h-1.2v6.6h1.2v-3.2
		c0-1.5,0.8-2.6,1.9-2.6c0.9,0,1.1,0.5,1.1,1.5v4.3H197.3z M189,64.5h-3.1c0.1-1,0.7-1.6,1.6-1.6C188.4,62.8,189,63.5,189,64.5
		 M190.2,64.7c0-1.5-0.8-2.8-2.6-2.8c-1.9,0-2.9,1.5-2.9,3.4c0,2.3,1.1,3.4,3.1,3.4c0.8,0,1.6-0.1,2.2-0.4l-0.1-1
		c-0.5,0.3-1.2,0.4-1.9,0.4c-1.4,0-2.1-0.8-2.1-2.5h4.3C190.2,65.1,190.2,64.9,190.2,64.7 M183.6,68.6v-1c-0.3,0.1-0.6,0.1-0.9,0.1
		c-0.7,0-0.9-0.3-0.9-1.4V63h1.8v-0.9h-1.8v-2.5l-1.2,0.3v2.1h-1.4V63h1.4v3.8c0,1.4,0.4,2,1.8,2C182.7,68.8,183.2,68.7,183.6,68.6
		 M178.2,68.7v-4.6c0-1.2-0.5-2.1-2-2.1c-1.1,0-1.9,0.6-2.3,1.5l0,0c0.1-0.4,0.1-1,0.1-1.4h-1.2v6.6h1.2v-3.2c0-1.5,0.8-2.6,1.9-2.6
		c0.9,0,1.1,0.5,1.1,1.5v4.3H178.2z M169.3,65.8c0,1-0.7,2.1-1.8,2.1c-0.6,0-1-0.4-1-0.9c0-0.6,0.5-1.3,2.8-1.3V65.8z M170.5,68.7
		c0-0.6,0-1.3,0-1.9v-2.6c0-1.3-0.5-2.2-2.4-2.2c-0.9,0-1.7,0.2-2.3,0.5l0.1,1c0.6-0.3,1.4-0.5,2-0.5c1.1,0,1.4,0.5,1.4,1.4v0.5
		c-2.5,0-4,0.9-4,2.4c0,1,0.7,1.6,1.8,1.6c1.1,0,1.9-0.6,2.2-1.4h0c-0.1,0.4-0.1,0.8-0.1,1.3H170.5z M163.6,59h-1.2v9.7h1.2V59z
		 M159.5,65.2c0,1.9-0.8,2.6-2.1,2.6c-0.5,0-0.8-0.1-1.2-0.2v-2.2c0-1.2,0.6-2.5,1.8-2.5C159,62.9,159.5,63.8,159.5,65.2
		 M160.7,65.1c0-2-0.9-3.1-2.4-3.1c-1,0-1.8,0.6-2.2,1.5l0,0c0.1-0.4,0.1-1,0.1-1.3h-1.1v9.9h1.2v-3.3c0.4,0.1,0.7,0.1,1.1,0.1
		C159.5,68.7,160.7,67.4,160.7,65.1 M149.9,68.7v-4.6c0-1.2-0.5-2.1-2-2.1c-1.1,0-1.9,0.6-2.3,1.5l0,0c0.1-0.4,0.1-1,0.1-1.4h-1.2
		v6.6h1.2v-3.2c0-1.5,0.8-2.6,1.9-2.6c0.9,0,1.1,0.5,1.1,1.5v4.3H149.9z M141.6,64.5h-3.1c0.1-1,0.7-1.6,1.6-1.6
		C141.1,62.8,141.6,63.5,141.6,64.5 M142.8,64.7c0-1.5-0.8-2.8-2.6-2.8c-1.9,0-2.9,1.5-2.9,3.4c0,2.3,1.1,3.4,3.1,3.4
		c0.8,0,1.6-0.1,2.2-0.4l-0.1-1c-0.5,0.3-1.2,0.4-1.9,0.4c-1.4,0-2.1-0.8-2.1-2.5h4.3C142.8,65.1,142.8,64.9,142.8,64.7 M132.7,68.7
		v-4.6c0-1.2-0.5-2.1-2-2.1c-1.1,0-1.9,0.6-2.3,1.5l0,0c0.1-0.4,0.1-1,0.1-1.4h-1.2v6.6h1.2v-3.2c0-1.5,0.8-2.6,1.9-2.6
		c0.9,0,1.1,0.5,1.1,1.5v4.3H132.7z M124.4,64.5h-3.1c0.1-1,0.7-1.6,1.6-1.6C123.8,62.8,124.4,63.5,124.4,64.5 M125.6,64.7
		c0-1.5-0.8-2.8-2.6-2.8c-1.9,0-2.9,1.5-2.9,3.4c0,2.3,1.1,3.4,3.1,3.4c0.8,0,1.6-0.1,2.2-0.4l-0.1-1c-0.5,0.3-1.2,0.4-1.9,0.4
		c-1.4,0-2.1-0.8-2.1-2.5h4.3C125.6,65.1,125.6,64.9,125.6,64.7 M118.3,68.7v-4.6c0-1.5-0.7-2.2-2-2.2c-1.3,0-2,0.9-2.3,1.5
		c-0.1-0.5-0.4-1.5-1.8-1.5c-1.1,0-1.9,0.6-2.3,1.5l0,0c0.1-0.4,0.1-1,0.1-1.4h-1.2v6.6h1.2v-3.1c0-1.5,0.8-2.6,1.8-2.6
		c0.9,0,1.1,0.7,1.1,1.5v4.2h1.2v-3.1c0-1.6,0.9-2.6,1.8-2.6c0.9,0,1.1,0.6,1.1,1.5v4.2H118.3z M106,64.5h-3.1
		c0.1-1,0.7-1.6,1.6-1.6C105.4,62.8,106,63.5,106,64.5 M107.2,64.7c0-1.5-0.8-2.8-2.6-2.8c-1.9,0-2.9,1.5-2.9,3.4
		c0,2.3,1.1,3.4,3.1,3.4c0.8,0,1.6-0.1,2.2-0.4l-0.1-1c-0.5,0.3-1.2,0.4-1.9,0.4c-1.4,0-2.1-0.8-2.1-2.5h4.3
		C107.2,65.1,107.2,64.9,107.2,64.7 M99.3,65.3c0,1.7-0.8,2.5-1.8,2.5c-1.2,0-1.9-0.9-1.9-2.5c0-1.6,0.9-2.4,1.9-2.4
		C98.7,63,99.3,63.8,99.3,65.3 M100.6,65.3c0-2.4-1.3-3.3-3-3.3c-2,0-3.2,1.5-3.2,3.5c0,2.3,1.2,3.4,3,3.4
		C99.3,68.8,100.6,67.3,100.6,65.3 M92.7,59h-1.2v9.7h1.2V59z M88.6,65.2c0,1.9-0.8,2.6-2.1,2.6c-0.5,0-0.8-0.1-1.2-0.2v-2.2
		c0-1.1,0.6-2.5,1.8-2.5C88.1,62.9,88.6,63.8,88.6,65.2 M89.9,65.1c0-2-0.9-3.1-2.4-3.1c-1,0-1.8,0.5-2.2,1.5l0,0
		c0.1-0.3,0.1-0.8,0.1-1.2V59h-1.2v9.5c0.7,0.2,1.4,0.3,2.3,0.3C88.5,68.8,89.9,67.4,89.9,65.1 M79,68.7v-4.6c0-1.2-0.5-2.1-2-2.1
		c-1.1,0-1.9,0.6-2.3,1.5l0,0c0.1-0.4,0.1-1,0.1-1.4h-1.1v6.6h1.2v-3.2c0-1.5,0.8-2.6,1.9-2.6c0.9,0,1.1,0.5,1.1,1.5v4.3H79z
		 M71.4,62.1h-1.2v6.6h1.2V62.1z M71.6,60.2c0-0.4-0.4-0.8-0.8-0.8S70,59.8,70,60.2c0,0.4,0.4,0.8,0.8,0.8S71.6,60.6,71.6,60.2
		 M63.9,65.3c0,1.2-0.6,2.5-1.8,2.5c-1,0-1.5-0.8-1.5-2.2c0-1.9,0.8-2.7,2.1-2.7c0.4,0,0.8,0,1.2,0.1V65.3z M65.1,68.7V59h-1.2v3.1
		c-0.4,0-0.8-0.1-1.1-0.1c-2.1,0-3.4,1.4-3.4,3.7c0,1.9,0.8,3.1,2.4,3.1c1,0,1.8-0.6,2.2-1.5l0,0c-0.1,0.4-0.1,1-0.1,1.3H65.1z
		 M57.7,68.7v-4.6c0-1.2-0.5-2.1-2-2.1c-1.1,0-1.9,0.6-2.3,1.5l0,0c0.1-0.4,0.1-1,0.1-1.4h-1.1v6.6h1.2v-3.2c0-1.5,0.8-2.6,1.9-2.6
		c0.9,0,1.1,0.5,1.1,1.5v4.3H57.7z M49.4,64.5h-3.1c0.1-1,0.7-1.6,1.6-1.6C48.8,62.8,49.4,63.5,49.4,64.5 M50.6,64.7
		c0-1.5-0.8-2.8-2.6-2.8c-1.9,0-2.9,1.5-2.9,3.4c0,2.3,1.1,3.4,3.1,3.4c0.8,0,1.6-0.1,2.2-0.4l-0.1-1c-0.5,0.3-1.2,0.4-1.9,0.4
		c-1.4,0-2.1-0.8-2.1-2.5h4.3C50.6,65.1,50.6,64.9,50.6,64.7 M42.2,65.3c0,1.2-0.6,2.5-1.8,2.5c-1,0-1.5-0.8-1.5-2.2
		c0-1.9,0.8-2.7,2.1-2.7c0.4,0,0.8,0,1.2,0.1V65.3z M43.4,68.7V59h-1.2v3.1C41.8,62,41.4,62,41,62c-2.1,0-3.4,1.4-3.4,3.7
		c0,1.9,0.8,3.1,2.4,3.1c1,0,1.8-0.6,2.2-1.5l0,0c-0.1,0.4-0.1,1-0.1,1.3H43.4z M36,68.7v-4.6c0-1.2-0.5-2.1-2-2.1
		c-1.1,0-1.9,0.6-2.3,1.5l0,0c0.1-0.4,0.1-1,0.1-1.4h-1.2v6.6h1.2v-3.2c0-1.5,0.8-2.6,1.9-2.6c0.9,0,1.1,0.5,1.1,1.5v4.3H36z
		 M28.4,62.1h-1.2v6.6h1.2V62.1z M28.6,60.2c0-0.4-0.4-0.8-0.8-0.8c-0.4,0-0.8,0.3-0.8,0.8c0,0.4,0.4,0.8,0.8,0.8
		C28.2,61,28.6,60.6,28.6,60.2 M24.2,65.2c0,1.9-0.8,2.6-2.1,2.6c-0.5,0-0.8-0.1-1.2-0.2v-2.2c0-1.1,0.6-2.5,1.8-2.5
		C23.8,62.9,24.2,63.8,24.2,65.2 M25.5,65.1c0-2-0.9-3.1-2.4-3.1c-1,0-1.8,0.5-2.2,1.5l0,0c0.1-0.3,0.1-0.8,0.1-1.2V59h-1.2v9.5
		c0.7,0.2,1.3,0.3,2.3,0.3C24.2,68.8,25.5,67.4,25.5,65.1 M18.4,62c-1.3-0.1-2,0.8-2.3,1.7h0c0.1-0.5,0.1-1.2,0.1-1.6h-1.2v6.6h1.2
		V66c0-2.1,0.7-3.1,2.1-2.9L18.4,62z M12.1,64.5H9c0.1-1,0.7-1.6,1.6-1.6C11.6,62.8,12.1,63.5,12.1,64.5 M13.3,64.7
		c0-1.5-0.8-2.8-2.6-2.8c-1.9,0-2.9,1.5-2.9,3.4c0,2.3,1.1,3.4,3.1,3.4c0.8,0,1.6-0.1,2.2-0.4l-0.1-1c-0.5,0.3-1.2,0.4-1.9,0.4
		c-1.4,0-2.1-0.8-2.1-2.5h4.3C13.3,65.1,13.3,64.9,13.3,64.7 M7.9,59.7H6.6l-2.1,5.7c-0.3,0.7-0.5,1.3-0.6,1.9h0
		c-0.2-0.7-0.4-1.3-0.6-1.9l-2-5.7H0l3.2,8.9h1.4L7.9,59.7z"/>
</g>
</svg>
