<?xml version="1.0" encoding="UTF-8"?> <svg xmlns="http://www.w3.org/2000/svg" width="324" height="150" viewBox="0 0 324 150" fill="none"><g clip-path="url(#clip0)"><path d="M1.90716 76.1648C5.14849 83.4262 11.4621 85.526 16.9971 85.3021V103.298H20.661V84.812C22.5098 84.4152 24.258 83.6429 25.7976 82.5428C30.2582 79.027 33.9885 72.6431 33.7591 66.253C33.6022 61.7389 31.3447 57.5454 28.4112 54.1507L17.8543 61.6602L19.5021 68.5888L30.3669 63.9718L19.828 70.9003V74.1982L29.045 73.8715L20.16 75.5234L19.828 78.8213L24.1075 80.1223H19.828L20.4014 85.1024L18.8683 85.5139L18.5605 80.0678L9.65738 76.8365L18.645 77.8592L18.2345 72.3284L3.01779 72.8609L17.8241 70.4404L16.6953 64.8129L4.35778 61.0006L16.2125 62.9068L14.4862 56.8616L5.91506 52.1417C3.82661 56.075 -3.39847 64.2743 1.90716 76.1648ZM16.2064 56.7104L17.4136 60.45L28.369 54.1386C26.0165 51.4237 23.1947 49.1565 20.0393 47.446L16.2064 56.7104ZM6.03578 51.8997L13.961 55.1068L9.27107 43.0045C8.43543 46.0527 7.35342 49.0276 6.03578 51.8997ZM9.29522 42.9258L15.3916 56.5591L16.297 54.302L20.0151 47.4097C19.816 47.3129 19.6168 47.1979 19.4115 47.1072C17.3472 46.1269 9.55476 42 9.55476 42C9.55476 42 9.45819 42.351 9.29522 42.9258Z" fill="#00AEEF"></path><path d="M95.4894 104.291V102.693H96.7992V102.657C95.7369 102.13 95.2661 100.89 95.2661 99.5587C95.2661 96.5754 97.6261 95.0929 100.36 95.0929C103.095 95.0929 105.394 96.5573 105.394 99.5223C105.416 100.129 105.289 100.732 105.025 101.278C104.761 101.825 104.368 102.298 103.879 102.657V102.693H108.877V104.291H95.4894ZM96.6966 99.7886C96.6966 101.925 98.5074 102.748 100.318 102.748C102.232 102.748 103.988 101.888 103.988 99.722C103.988 97.5557 102.135 96.8114 100.246 96.8114C98.3565 96.8114 96.6724 97.7191 96.6724 99.7886H96.6966Z" fill="#006F3D"></path><path d="M91.8014 93.1263V91.5288H105.171V93.1263H91.8014Z" fill="#006F3D"></path><path d="M105.135 80.4612C105.324 80.8117 105.413 81.2071 105.394 81.6048C105.394 82.4278 104.948 82.9543 103.898 82.9543C104.386 83.3756 104.774 83.9015 105.033 84.4932C105.293 85.0849 105.416 85.7273 105.394 86.3732C105.394 88.1341 104.61 89.5803 102.678 89.5803C100.487 89.5803 100.022 87.9465 99.7025 86.2945C99.3645 84.5336 99.4792 83.0329 98.2781 83.0329C96.8958 83.0329 96.6725 84.1766 96.6725 85.1871C96.6725 86.5426 97.0829 87.535 98.4833 87.6076V89.1991C96.0689 89.1022 95.2419 87.2445 95.2419 85.0903C95.2419 83.3415 95.6343 81.4596 97.8978 81.4596H102.884C103.632 81.4596 103.964 81.4596 103.964 80.9513C103.962 80.7859 103.932 80.622 103.873 80.4672L105.135 80.4612ZM100.197 83.0511C100.644 83.6562 100.662 84.8664 100.849 85.9375C101.037 87.0085 101.411 87.892 102.594 87.892C103.638 87.892 104.012 86.9904 104.012 86.0161C104.012 83.9103 102.702 83.0511 101.827 83.0511H100.197Z" fill="#006F3D"></path><path d="M95.4894 78.9786V77.4779H97.0286V77.4416C96.467 77.1375 96.0032 76.6798 95.6912 76.1216C95.3791 75.5634 95.2317 74.9279 95.2661 74.289C95.2661 71.7354 96.7268 70.9487 98.8031 70.9487H105.171V72.5402H98.616C98.3535 72.5198 98.0897 72.557 97.843 72.6492C97.5963 72.7415 97.3727 72.8866 97.1876 73.0744C97.0026 73.2622 96.8607 73.4882 96.7717 73.7366C96.6827 73.9851 96.6488 74.25 96.6724 74.5129C96.6724 76.4432 97.9641 77.3872 99.6904 77.3872H105.159V78.9786H95.4894Z" fill="#006F3D"></path><path d="M95.4894 66.3317V64.3893H96.8958V66.3196H102.932C103.656 66.3196 103.789 66.1139 103.789 65.1094V64.3893H105.195V65.5995C105.195 67.2515 104.857 67.9111 103.077 67.9111H96.9199V69.563H95.4894V67.9292H92.5921V66.3317H95.4894Z" fill="#006F3D"></path><path d="M102.099 54.3625C104.236 54.7921 105.394 56.3291 105.394 58.5075C105.394 61.6057 103.258 63.1064 100.3 63.1609C97.3424 63.2154 95.2661 61.2487 95.2661 58.6044C95.2661 55.1673 98.4651 54.1144 100.807 54.2112V61.4726C102.491 61.5331 103.988 60.571 103.988 58.447C104.045 57.8651 103.883 57.2828 103.533 56.8147C103.183 56.3467 102.672 56.0267 102.099 55.9177V54.3625ZM99.4067 55.9177C98.6766 55.9319 97.9812 56.2327 97.4699 56.7555C96.9586 57.2782 96.6723 57.9812 96.6724 58.7133C96.6701 59.0757 96.7389 59.4349 96.875 59.7706C97.0111 60.1063 97.2119 60.4118 97.4658 60.6698C97.7197 60.9277 98.0218 61.1329 98.3548 61.2738C98.6878 61.4147 99.0453 61.4884 99.4067 61.4908V55.9177Z" fill="#006F3D"></path><path d="M95.4894 52.5592V51.0767H97.0286V51.0404C96.4665 50.7369 96.0023 50.2792 95.6902 49.7209C95.3781 49.1626 95.231 48.5268 95.2661 47.8877C95.2661 45.3341 96.7268 44.5475 98.8032 44.5475H105.171V46.1268H98.6161C98.3541 46.1065 98.0909 46.1436 97.8446 46.2355C97.5984 46.3275 97.3751 46.472 97.1901 46.6591C97.0052 46.8462 96.8631 47.0714 96.7737 47.3191C96.6843 47.5668 96.6498 47.831 96.6725 48.0935C96.6725 50.0298 97.9642 50.9678 99.6905 50.9678H105.159V52.5592H95.4894Z" fill="#006F3D"></path><path d="M110.76 46.4779V44.5415H138.526V46.4779H125.748V80.909H123.515V46.4779H110.76Z" fill="#808080"></path><path d="M134.844 68.0684C134.741 74.2345 137.995 79.8379 144.441 79.8379C149.373 79.8379 152.892 76.8849 153.791 72.044H155.729C154.715 78.1557 150.646 81.5201 144.447 81.5201C136.83 81.5201 132.919 75.5052 132.919 68.2741C132.919 61.043 136.57 54.1023 144.441 54.1023C152.626 54.1023 156.284 60.571 155.91 68.0563L134.844 68.0684ZM153.996 66.3922C153.918 60.8917 150.441 55.7966 144.441 55.7966C138.653 55.7966 135.248 61.1943 134.844 66.3922H153.996Z" fill="#808080"></path><path d="M162.368 60.5347H162.519C163.575 57.1279 167.801 54.3685 172.539 54.5743V56.5228C171.217 56.3599 169.876 56.505 168.62 56.9469C167.364 57.3888 166.226 58.1154 165.296 59.0703C163.316 61.0551 162.35 62.701 162.35 66.604V80.9089H160.419V54.7074H162.368V60.5347Z" fill="#808080"></path><path d="M174.621 54.7074H176.553V60.0566H176.655C177.458 56.7648 180.923 54.1023 184.834 54.1023C189.814 54.1023 192.15 56.9584 192.681 59.6573H192.777C194.359 56.0992 196.876 54.1023 201.095 54.1023C205.815 54.1023 209.274 56.8556 209.274 63.0157V80.9089H207.342V62.9793C207.342 56.3231 202.616 55.7966 201.095 55.7966C196.369 55.7966 192.91 59.155 192.91 65.424V80.9089H190.979V62.9793C190.979 56.4078 186.512 55.7966 184.834 55.7966C181.122 55.7966 176.553 58.7012 176.553 65.424V80.9089H174.621V54.7074Z" fill="#808080"></path><path d="M215.775 68.0684C215.672 74.2345 218.925 79.8379 225.378 79.8379C230.303 79.8379 233.828 76.8849 234.722 72.044H236.653C235.639 78.1557 231.577 81.5201 225.378 81.5201C217.754 81.5201 213.843 75.5052 213.843 68.2741C213.843 61.043 217.501 54.1023 225.378 54.1023C233.557 54.1023 237.215 60.571 236.846 68.0563L215.775 68.0684ZM234.927 66.3922C234.824 60.8917 231.372 55.7966 225.378 55.7966C219.583 55.7966 216.179 61.1943 215.775 66.3922H234.927Z" fill="#808080"></path><path d="M262.059 80.9089H260.151V75.2813H260.049C258.703 79.2267 254.719 81.5201 250.675 81.5201C241.482 81.5201 241.379 74.1316 241.379 70.9245V54.7074H243.311V71.2815C243.311 73.9803 243.613 79.8379 250.729 79.8379C256.572 79.8379 260.127 75.3055 260.127 68.8853V54.7074H262.059V80.9089Z" fill="#808080"></path><path d="M270.135 44.5415V80.909H268.203V44.5415H270.135Z" fill="#808080"></path><path d="M277.052 68.0684C276.949 74.2345 280.197 79.8379 286.655 79.8379C291.581 79.8379 295.106 76.8849 295.999 72.044H297.93C296.916 78.1557 292.848 81.5201 286.655 81.5201C279.032 81.5201 275.12 75.5052 275.12 68.2741C275.12 61.043 278.772 54.1023 286.649 54.1023C294.828 54.1023 298.486 60.571 298.118 68.0563L277.052 68.0684ZM296.204 66.3922C296.102 60.8917 292.649 55.7966 286.655 55.7966C280.861 55.7966 277.456 61.1943 277.052 66.3922H296.204Z" fill="#808080"></path><path d="M302.651 54.7074H304.582V60.3108H304.685C306.025 56.4078 309.966 54.1023 314.029 54.1023C323.227 54.1023 323.33 61.4908 323.33 64.6979V80.9089H321.398V64.353C321.398 61.6541 321.091 55.7966 313.98 55.7966C308.137 55.7966 304.582 60.3289 304.582 66.7492V80.9089H302.651V54.7074Z" fill="#808080"></path><path d="M123.569 87.7588V85.1387H124.535V87.7588H123.569ZM123.569 103.316V90.2277H124.535V103.316H123.569Z" fill="#808080"></path><path d="M131.524 90.2277H132.49V93.0294H132.538C132.898 92.089 133.542 91.2846 134.379 90.7282C135.216 90.1718 136.206 89.891 137.21 89.9251C141.81 89.9251 141.858 93.6163 141.858 95.2199V103.316H140.892V95.0444C140.892 93.689 140.741 90.7662 137.186 90.7662C134.265 90.7662 132.49 93.0294 132.49 96.2123V103.292H131.524V90.2277Z" fill="#808080"></path><path d="M148.667 85.1387H149.632V97.1805L157.684 90.2277H159.079L153.369 95.117L159.489 103.316H158.143L152.602 95.8553L149.632 98.3786V103.316H148.667V85.1387Z" fill="#808080"></path><path d="M169.672 89.9252C173.511 89.9252 175.671 93.0536 175.671 96.7751C175.671 100.497 173.511 103.619 169.672 103.619C165.833 103.619 163.684 100.49 163.684 96.7751C163.684 93.0597 165.839 89.9252 169.672 89.9252ZM169.672 102.784C172.949 102.784 174.706 99.9035 174.706 96.7751C174.706 93.6466 172.949 90.7663 169.672 90.7663C166.394 90.7663 164.65 93.6406 164.65 96.7751C164.65 99.9096 166.4 102.784 169.672 102.784Z" fill="#808080"></path><path d="M187.23 89.9252C191.063 89.9252 193.218 93.0536 193.218 96.7751C193.218 100.497 191.063 103.619 187.23 103.619C183.398 103.619 181.237 100.49 181.237 96.7751C181.237 93.0597 183.392 89.9252 187.23 89.9252ZM187.23 102.784C190.502 102.784 192.258 99.9035 192.258 96.7751C192.258 93.6466 190.502 90.7663 187.23 90.7663C183.959 90.7663 182.202 93.6406 182.202 96.7751C182.202 99.9096 183.953 102.784 187.23 102.784Z" fill="#808080"></path><path d="M200.588 93.2352H200.642C200.977 92.247 201.619 91.3923 202.474 90.7966C203.329 90.201 204.352 89.8955 205.393 89.9252C209.401 89.9252 211.254 93.1081 211.254 96.7993C211.254 100.769 209.376 103.619 205.393 103.619C203.232 103.619 201.403 102.705 200.642 100.593H200.588V108H199.622V90.2277H200.588V93.2352ZM210.294 96.7993C210.294 93.8161 208.894 90.7481 205.393 90.7481C201.892 90.7481 200.618 93.6709 200.618 96.7993C200.618 99.9278 201.705 102.784 205.393 102.784C208.791 102.784 210.294 100.031 210.294 96.7993Z" fill="#808080"></path><path d="M228.867 98.9595C229.018 101.38 230.816 102.784 233.182 102.784C234.885 102.784 237.317 102.27 237.317 100.006C237.317 97.7432 235.084 97.4588 232.85 96.9808C230.617 96.5027 228.354 95.94 228.354 93.2654C228.354 90.5908 230.871 89.907 233.08 89.907C235.85 89.907 237.909 91.1172 237.909 94.0823H236.943C236.943 91.7163 235.271 90.7481 233.086 90.7481C231.305 90.7481 229.325 91.4077 229.325 93.2654C229.325 95.353 231.559 95.6858 233.671 96.1457C236.261 96.654 238.289 97.241 238.289 99.9882C238.289 102.735 235.47 103.619 233.188 103.619C230.213 103.619 227.979 102.015 227.907 98.9595H228.867Z" fill="#808080"></path><path d="M244.916 96.9022C244.868 99.9823 246.492 102.784 249.715 102.784C250.839 102.834 251.942 102.462 252.807 101.74C253.672 101.018 254.238 99.9985 254.393 98.881H255.353C254.846 101.907 252.812 103.613 249.715 103.613C245.906 103.613 243.951 100.587 243.951 96.993C243.951 93.3986 245.761 89.9192 249.715 89.9192C253.807 89.9192 255.636 93.1505 255.455 96.8962L244.916 96.9022ZM254.49 96.0611C254.441 93.3078 252.715 90.7663 249.715 90.7663C246.824 90.7663 245.122 93.4652 244.916 96.0611H254.49Z" fill="#808080"></path><path d="M262.596 93.1323H262.674C263.181 91.4258 265.312 90.0522 267.678 90.1551V91.1233C267.018 91.0403 266.347 91.1118 265.719 91.3323C265.09 91.5528 264.521 91.9162 264.057 92.394C263.067 93.3864 262.584 94.2094 262.584 96.1639V103.316H261.618V90.2277H262.584L262.596 93.1323Z" fill="#808080"></path><path d="M277.583 103.316H276.376L271.131 90.2278H272.223L276.949 102.197H277.052L281.47 90.2278H282.484L277.583 103.316Z" fill="#808080"></path><path d="M288.025 87.7588V85.1387H288.991V87.7588H288.025ZM288.025 103.316V90.2277H288.991V103.316H288.025Z" fill="#808080"></path><path d="M305.801 94.276C305.626 91.9584 303.743 90.7663 301.383 90.7663C298.112 90.7663 296.355 93.6648 296.355 96.648C296.355 100.182 298.009 102.784 301.383 102.784C302.514 102.804 303.611 102.395 304.454 101.639C305.297 100.882 305.823 99.8346 305.928 98.7054H306.894C306.779 100.076 306.143 101.351 305.117 102.265C304.092 103.18 302.755 103.664 301.383 103.619C297.158 103.619 295.389 100.285 295.389 96.648C295.389 93.0113 297.526 89.9252 301.383 89.9252C304.202 89.9252 306.49 91.2988 306.767 94.276H305.801Z" fill="#808080"></path><path d="M313.449 96.9022C313.401 99.9823 315.024 102.784 318.278 102.784C319.398 102.828 320.493 102.452 321.352 101.731C322.211 101.01 322.772 99.9937 322.926 98.881H323.891C323.384 101.907 321.35 103.613 318.254 103.613C314.445 103.613 312.483 100.587 312.483 96.993C312.483 93.3986 314.294 89.9192 318.254 89.9192C322.34 89.9192 324.169 93.1505 323.994 96.8962L313.449 96.9022ZM323.028 96.0611C322.974 93.3078 321.248 90.7663 318.254 90.7663C315.356 90.7663 313.654 93.4652 313.425 96.0611H323.028Z" fill="#808080"></path><path d="M46.4108 43.0106C46.1995 45.31 46.1029 47.555 45.0527 49.915C44.1775 48.2025 42.252 45.8788 41.3647 43.7428C37.743 44.7377 34.4723 46.7313 31.9246 49.497C29.3768 52.2627 27.6542 55.6894 26.9525 59.3878C26.2507 63.0861 26.5981 66.9077 27.955 70.418C29.312 73.9282 31.6241 76.9865 34.6285 79.2449C35.1332 78.8996 35.5934 78.4931 35.9987 78.0347C37.2421 76.4977 37.9604 74.4585 39.0167 72.8246C39.1797 75.7897 38.8537 78.7608 38.8356 81.6957C41.0525 82.6552 43.4251 83.2027 45.8374 83.3113V103.298H49.4952V83.1479C51.1364 82.9182 52.7424 82.4832 54.2757 81.853C54.0624 79.8575 54.0139 77.8477 54.1308 75.8442C55.4386 77.1987 56.8693 78.4284 58.4043 79.5172C61.864 77.0346 64.4484 73.515 65.7852 69.4656C67.1219 65.4162 67.142 61.0459 65.8425 56.9843C64.5431 52.9227 61.9911 49.3795 58.5543 46.865C55.1176 44.3505 50.9733 42.9945 46.7186 42.9924C46.616 42.9924 46.5134 42.9924 46.4108 42.9924" fill="#008C44"></path><path d="M1321.46 861.212C1321.25 863.512 1321.15 865.757 1320.1 868.117C1319.23 866.404 1317.3 864.081 1316.41 861.945C1312.79 862.939 1309.52 864.933 1306.97 867.699C1304.42 870.464 1302.7 873.891 1302 877.59C1301.3 881.288 1301.65 885.109 1303 888.62C1304.36 892.13 1306.67 895.188 1309.68 897.447C1310.18 897.101 1310.64 896.695 1311.05 896.236C1312.29 894.699 1313.01 892.66 1314.06 891.026C1314.23 893.991 1313.9 896.963 1313.88 899.897C1316.1 900.857 1318.47 901.404 1320.88 901.513V921.5H1324.54V901.35C1326.18 901.12 1327.79 900.685 1329.32 900.055C1329.11 898.059 1329.06 896.049 1329.18 894.046C1330.49 895.4 1331.92 896.63 1333.45 897.719C1336.91 895.236 1339.5 891.717 1340.83 887.667C1342.17 883.618 1342.19 879.248 1340.89 875.186C1339.59 871.125 1337.04 867.581 1333.6 865.067C1330.17 862.552 1326.02 861.196 1321.77 861.194C1321.66 861.194 1321.56 861.194 1321.46 861.194" fill="#008C44"></path><path d="M75.9751 82.7061C77.4411 82.4154 78.8461 81.8729 80.1278 81.1026L76.0897 80.9694L75.9751 82.7061ZM77.472 75.2329L76.4579 79.5535L81.3712 80.2494C83.7275 78.4287 85.3894 75.8528 86.0793 72.9517L77.472 75.2329ZM79.494 69.1092L77.9307 73.7383L86.1578 72.6249C86.6158 70.4635 86.5181 68.2209 85.8741 66.1078L79.494 69.1092ZM79.9528 67.7779L85.7594 65.7689C85.1688 64.0316 84.2208 62.438 82.9768 61.0914L79.9528 67.7779ZM60.4203 69.9321C60.4225 72.9209 61.4472 75.8185 63.3235 78.1411C65.1998 80.4637 67.8141 82.0708 70.7298 82.694V103.298H74.3936V83.4141V83.281V82.93L74.6532 79.9044L65.2672 74.5613L74.9248 78.1314L76.1924 74.1921L66.4925 66.6766L76.6571 73.224L78.1842 69.6961L71.5628 62.5739L78.6732 68.855L82.8319 60.9098C81.0377 59.0231 78.7203 57.7191 76.1791 57.1662C73.638 56.6134 70.9899 56.8371 68.5769 57.8085C66.1639 58.7799 64.0969 60.4544 62.6429 62.6155C61.1889 64.7767 60.4147 67.3253 60.4203 69.9321Z" fill="#A6CE39"></path></g><defs><clipPath id="clip0"><rect width="324" height="150" fill="white"></rect></clipPath></defs></svg> 