<?xml version="1.0" encoding="utf-8"?>
<svg id="Layer_1" data-name="Layer 1" xmlns="http://www.w3.org/2000/svg" viewBox="0 0 241 44.83"><defs><style>.cls-1{fill:#a1a250;}.cls-2{fill:#003565;}</style></defs><title>241W_2020_Waterdrinker Aalsmeer logo_KLEUR</title><path class="cls-1" d="M20.56,20.33c.1-.11.2-.23.29-.35h-.09Z"/><path class="cls-1" d="M32.22.9H5.54a.73.73,0,0,0-.75.75V21.87a.73.73,0,0,0,.75.75H32.22a.73.73,0,0,0,.75-.75V1.65A.73.73,0,0,0,32.22.9ZM31,9.79c-.62,3.45-3,6.18-5.78,8.36A48.56,48.56,0,0,1,18.65,22c.35-1,.61-1.66.77-2.22a31.8,31.8,0,0,1-4.48-.9C11.86,17.94,9,16.37,7.4,13.68A5.85,5.85,0,0,1,8.56,5.89C8.59,6,9.25,7,9.25,7c-.49,1.3-1.41,6.56.14,8.66A20.12,20.12,0,0,1,9,11c.19-1.62.55-3.56.55-3.56l1.5,2.34c-.25,1.09-1.09,5.16.56,7.51A15.48,15.48,0,0,1,11,13.94a15.15,15.15,0,0,1,.46-3.47L13.28,13a10.69,10.69,0,0,0-.21,2.31,8.79,8.79,0,0,0,1.06,3.11,7.94,7.94,0,0,1-.7-2.77,7.3,7.3,0,0,1,.14-2.29l1.8,2.24A5.34,5.34,0,0,0,16,19a9,9,0,0,1-.28-1.67A11.72,11.72,0,0,1,15.61,16c0-.07.28.22.41.36a16.35,16.35,0,0,0,3.53,2.9v0c-.33-.27-1.71-1.4-2.23-1.85a15.69,15.69,0,0,1-1.46-1.69,22.26,22.26,0,0,1,2.37.82c.56.3,1.21.69,1.21.69a5.72,5.72,0,0,0-2.71-1.55l-1.12-.33-1.68-2.13a18.54,18.54,0,0,1,4.86,2.08c-.56-1-4.6-2.56-5-2.41l-1.87-2.72a16.47,16.47,0,0,1,5.21,1.75c.66.43,1.09.7,1.37.87a1.42,1.42,0,0,0,0-.2,10.78,10.78,0,0,0-1.68-1.26,11.27,11.27,0,0,0-2.69-1.15,7.54,7.54,0,0,0-2.57-.5L9.93,7a7.2,7.2,0,0,1,2,0,10.49,10.49,0,0,1,2,.47A26.79,26.79,0,0,1,18,9.59c.07-.28-2.12-1.75-4-2.57a9.08,9.08,0,0,0-4.27-.47l-.43-1a7.26,7.26,0,0,1,5.08-.7A6,6,0,0,1,17.73,8a8.59,8.59,0,0,1,.4.87c0-.39.05-.78.1-1.16a6.68,6.68,0,0,1,2.32-4.66,7.8,7.8,0,0,1,5.5-1.18L26,3.11a9.81,9.81,0,0,0-4.23,2.12c-1.68,1.6-3.37,4-3.19,4.24A30.22,30.22,0,0,1,22,5.63a12.7,12.7,0,0,1,1.85-1.24,8.12,8.12,0,0,1,2-.7l-.59,3.38a8.16,8.16,0,0,0-2.47,1.5,12.52,12.52,0,0,0-2.33,2.23,12.73,12.73,0,0,0-1.31,2.07l0,.2c.22-.28.57-.74,1.14-1.51A17.77,17.77,0,0,1,25,7.74l-.89,3.57c-.5,0-4.07,3.17-4.26,4.46a20.73,20.73,0,0,1,4.21-4l-.92,2.89-1,.77a6.18,6.18,0,0,0-2.11,2.48l0,0c.18-.22.53-.66.86-1a24,24,0,0,1,2.14-1.76,16.77,16.77,0,0,1-.87,2.33c-.22.42-.69,1.24-1.07,1.9l.12.13a22.53,22.53,0,0,0,1.9-3.61c.08-.2.25-.6.29-.53a14.8,14.8,0,0,1,.44,1.44,10.8,10.8,0,0,1,.35,1.87,6.25,6.25,0,0,0-.68-3.79l1-3.05a8.48,8.48,0,0,1,1,2.36,9.53,9.53,0,0,1,.34,3.2,10.17,10.17,0,0,0-.1-3.69,12.27,12.27,0,0,0-1.09-2.36l.95-3.38a16.82,16.82,0,0,1,1.79,3.49A18,18,0,0,1,28,15.25c.81-3.11-1.61-7.08-2.27-8.14l.65-3S27.53,6,28.34,7.62a23.19,23.19,0,0,1,1.37,5c.8-2.81-2.15-8-3.15-9.2A14,14,0,0,0,26.86,2,6.63,6.63,0,0,1,31,9.79Z"/><path class="cls-2" d="M70.14,1H66.56L58.38,22.63h5.08l.22-.63c.15-.42.31-.86.49-1.34s.36-1,.54-1.46.37-1,.55-1.46q.15-.4.3-.78h5.52l2.08,5.67h5.06Zm-.77,11.4H67.25l.27-.78L68,10.3c0-.12.1-.25.14-.38l.11-.29v0l.06-.16Z"/><polygon class="cls-2" points="76.06 0.96 76.06 5.56 81.33 5.56 81.33 22.63 86.05 22.63 86.05 5.56 91.28 5.56 91.28 0.96 76.06 0.96"/><polygon class="cls-2" points="97.91 18.03 97.91 14.01 104.66 14.01 104.66 9.42 97.91 9.42 97.91 5.56 105.17 5.56 105.17 0.96 93.2 0.96 93.2 22.63 105.6 22.63 105.6 18.03 97.91 18.03"/><path class="cls-2" d="M122.42,21.14a1.3,1.3,0,0,1-.1-.18l-.21-.39-.23-.4-.17-.3,0,0c-.13-.2-.25-.41-.36-.62l-.37-.67L120.07,17c-.29-.49-.56-1-.83-1.44h0a3.61,3.61,0,0,0-.22-.39c-.06-.11-.12-.2-.18-.32-.16-.28-.32-.55-.46-.82l-.37-.65c.21-.11.41-.23.6-.35A6.46,6.46,0,0,0,120,11.85a6,6,0,0,0,1.17-2,7.35,7.35,0,0,0,.38-2.39,7.13,7.13,0,0,0-.46-2.6,6,6,0,0,0-1.43-2.1,7.05,7.05,0,0,0-5-1.77h-6.78V22.63h4.71V14.5h.76l4.59,8.13h5.59ZM112.55,5.56h1.67a3,3,0,0,1,2,.54,1.78,1.78,0,0,1,.57,1.45,2.56,2.56,0,0,1-.2,1,2.38,2.38,0,0,1-.45.73,2.81,2.81,0,0,1-.88.45,4.23,4.23,0,0,1-1.27.19h-1.42Z"/><path class="cls-2" d="M139.2,3.68C137.32,1.88,134.59,1,131.07,1h-6.3V22.63h6a11,11,0,0,0,8.21-3.1,11,11,0,0,0,3-8C142,8.14,141.08,5.49,139.2,3.68ZM134.75,17a7.74,7.74,0,0,1-1.2.52,8.69,8.69,0,0,1-1.4.35,9.47,9.47,0,0,1-1.53.13h-1.14V5.56h1.38c4.38,0,6.42,1.91,6.42,6a8.25,8.25,0,0,1-.46,2.86,6.13,6.13,0,0,1-1.16,2A6.3,6.3,0,0,1,134.75,17Z"/><path class="cls-2" d="M158.85,21.14a1.3,1.3,0,0,1-.1-.18l-.22-.38-.22-.41c-.08-.12-.13-.23-.18-.31l0,0-.36-.62c-.12-.23-.24-.45-.37-.67-.29-.52-.59-1-.89-1.54l-.83-1.44h0c-.07-.14-.15-.27-.22-.39s-.12-.2-.18-.32L154.8,14l-.36-.65c.21-.11.41-.23.6-.35a6.73,6.73,0,0,0,1.35-1.18,6.15,6.15,0,0,0,1.17-2,7.35,7.35,0,0,0,.37-2.39,6.92,6.92,0,0,0-.46-2.6,6,6,0,0,0-1.42-2.1,7.07,7.07,0,0,0-5-1.77h-6.78V22.63H149V14.5h.76l4.59,8.13h5.59ZM149,5.56h1.66a3,3,0,0,1,2,.54,1.81,1.81,0,0,1,.56,1.45,2.56,2.56,0,0,1-.19,1,2.61,2.61,0,0,1-.46.73,2.7,2.7,0,0,1-.88.45,4.16,4.16,0,0,1-1.26.19H149Z"/><rect class="cls-2" x="161.21" y="0.96" width="4.71" height="21.67"/><polygon class="cls-2" points="181.05 0.96 181.05 13.08 172.11 0.96 168.54 0.96 168.54 22.63 173.25 22.63 173.25 10.42 182.29 22.63 185.75 22.63 185.75 0.96 181.05 0.96"/><path class="cls-2" d="M203.66,21l-.57-.6c-.24-.25-.48-.52-.73-.8l-.77-.83c-.24-.26-.42-.46-.55-.62l0,0c-.24-.25-.48-.51-.71-.77l-.72-.79-.71-.8c-.24-.26-.48-.52-.71-.79-.64-.69-1.26-1.38-1.88-2.06L195,11.51,204.55,1h-6.28l-.28.31-1.41,1.56L195.07,4.5l-1.54,1.7-.49.55V1h-4.71V22.63H193V16.32l5.61,6.31h6.62Z"/><polygon class="cls-2" points="210.81 18.03 210.81 14.01 217.56 14.01 217.56 9.42 210.81 9.42 210.81 5.56 218.07 5.56 218.07 0.96 206.1 0.96 206.1 22.63 218.49 22.63 218.49 18.03 210.81 18.03"/><path class="cls-2" d="M235.32,21.14l-.11-.18-.21-.39-.23-.4c-.07-.12-.12-.22-.16-.3l0,0-.36-.62c-.12-.23-.25-.45-.37-.67L233,17l-.83-1.44h0c-.07-.14-.15-.27-.22-.39s-.12-.2-.18-.32l-.47-.82-.36-.65c.21-.11.41-.23.6-.35a6.73,6.73,0,0,0,1.35-1.18,6.15,6.15,0,0,0,1.17-2,7.35,7.35,0,0,0,.37-2.39,6.92,6.92,0,0,0-.46-2.6,6,6,0,0,0-1.42-2.1,7.08,7.08,0,0,0-5-1.77h-6.77V22.63h4.71V14.5h.76l4.59,8.13h5.59ZM225.45,5.56h1.66a3,3,0,0,1,2,.54,1.81,1.81,0,0,1,.56,1.45,2.56,2.56,0,0,1-.19,1,2.61,2.61,0,0,1-.46.73,2.7,2.7,0,0,1-.88.45,4.16,4.16,0,0,1-1.26.19h-1.42Z"/><path class="cls-2" d="M56.58.87l-.74,2.68-.57,2.06c-.19.7-.39,1.4-.58,2.09s-.36,1.35-.55,2h0c-.07.23-.13.47-.2.72s-.12.46-.18.65-.15.51-.21.77-.09.34-.13.51L50.18.87H46.87l-.17.72-.09.29a2.46,2.46,0,0,1-.09.31c-.14.44-.29.9-.43,1.4L45.66,5c-.06.18-.12.39-.18.61s-.13.43-.21.66l-.64,2.13c-.22.73-.41,1.38-.59,1.93-.12.34-.22.69-.33,1s-.21.68-.31,1a2.41,2.41,0,0,1-.08.25L40,.87H34.94l6.45,21.67h3.67l.18-.71a2.19,2.19,0,0,1,.08-.27c0-.13.08-.24.11-.32s.1-.32.14-.47a3.18,3.18,0,0,1,.1-.33v0c.07-.23.16-.49.25-.77s.17-.56.25-.79l1.73-5.5,0-.15s0-.06,0-.08L48,13l.06-.21,0-.08,0-.12c.08-.28.17-.56.26-.85l3.17,10.83h3.67L61.6.87Z"/><path class="cls-1" d="M226.89,38s-.34.42-1,1.22c-.53.64-1,1.17-1.4,1.63-1.25,1.25-2.2,1.85-3.07,1.85s-1.25-.45-1.25-1.32a8.93,8.93,0,0,1,1.1-3.83,14,14,0,0,1,1.55-2.69.9.9,0,0,0-.26-.68.82.82,0,0,0-.61-.27c-.19,0-.49.27-.91.76a1.75,1.75,0,0,1-1.32.72c-.65,0-1.1-.38-1.33-1.18A5.3,5.3,0,0,0,220,31.42a2.65,2.65,0,0,0-.26-1c-.23-.45-.46-.68-.72-.68-.42,0-.76.5-1,1.44a7.46,7.46,0,0,0-.34,2,4.48,4.48,0,0,0,.08.83,32.75,32.75,0,0,1-3,5.2l0,.06c-1.18,1.5-2.7,3.16-4.62,3.16-1.22,0-1.75-1.14-1.75-2.31a4.06,4.06,0,0,1,.15-1.14,9.59,9.59,0,0,0,2.92-2c1.18-1.1,1.78-2.05,1.78-2.84a1,1,0,0,0-.94-1.07c-2.47,0-5,3.71-5.32,6.42-1.15,1.43-2.61,2.91-4.42,2.91-1.22,0-1.75-1.14-1.75-2.31a4.06,4.06,0,0,1,.15-1.14,9.59,9.59,0,0,0,2.92-2c1.18-1.1,1.78-2.05,1.78-2.84a1,1,0,0,0-.94-1.07c-2.48,0-5.05,3.73-5.32,6.44-1.18,1.49-2.19,2.24-3,2.24s-1-.64-1-2a15.78,15.78,0,0,1,.19-1.82,13,13,0,0,0,.19-1.78c0-.49-.19-.72-.56-.72a1.58,1.58,0,0,0-1.22.72c-1.51,1.93-2.57,3.41-3.29,4.44.22-1.86.41-3.3.6-4.29a11.39,11.39,0,0,0,.27-1.93c0-.45-.19-.68-.61-.68a1.55,1.55,0,0,0-1.17.68l-1.37,1.82L185.51,40c1.17-3.6,1.78-5.49,1.78-5.76S187.21,34,187,34a1.49,1.49,0,0,0-.75.27c-.27.19-.46.34-.5.53a15.13,15.13,0,0,0-.3,1.52c-.18.74-.37,1.43-.55,2.08a5.82,5.82,0,0,1-3.62,2.08,8,8,0,0,0-.49-2.57l-.95-2.47a2.21,2.21,0,0,1-.11-.64,1.68,1.68,0,0,1,.72-1.4,2.76,2.76,0,0,1,1.59-.53c.57,0,.87-.12.87-.31a1,1,0,0,0-.57-.83,2.31,2.31,0,0,0-1.06-.34c-1.89-.15-3.52,2.54-4.81,4.7-.38.67-.71,1.22-1,1.66a.76.76,0,0,0-.14.16c-.2.3-.41.6-.62.87l-.1.11a1.1,1.1,0,0,0-.79-.53c-.42,0-.61.38-.61,1.1a3.52,3.52,0,0,0,.14,1c-1.26,1.35-2.43,2.12-3.36,2.17-1.48,0-1.93-1-2-2.2a7.92,7.92,0,0,1,.08-1.67,78.66,78.66,0,0,0,7.16-7.88c3.26-4.09,4.89-7,4.89-8.75a1.73,1.73,0,0,0-.42-1,1.12,1.12,0,0,0-.87-.49c-.95,0-2.12.53-3.53,2.05a38.91,38.91,0,0,0-4.85,6.82c-1.4,2.63-3.38,6-3.76,9.1-.45.63-1,1.35-1.31,1.73-1.07,1.18-1.75,1.67-2.32,1.67-.79,0-1.17-.91-1.17-2.73a8.57,8.57,0,0,1,.91-4.43.59.59,0,0,1,.38-.27c.19,0,.26-.07.26-.11a.55.55,0,0,0-.11-.26,2.14,2.14,0,0,0-2-.95,3.88,3.88,0,0,0-1.25.26,8.38,8.38,0,0,0-3.68,3.41,14.31,14.31,0,0,0-1.41,2.57c-.25.34-.49.64-.67.84-1.06,1.18-1.74,1.67-2.31,1.67-.8,0-1.18-.91-1.18-2.73a8.67,8.67,0,0,1,.91-4.43.62.62,0,0,1,.38-.27c.19,0,.27-.07.27-.11a.6.6,0,0,0-.12-.26,2.13,2.13,0,0,0-2-.95,4,4,0,0,0-1.25.26,8.42,8.42,0,0,0-3.67,3.41,9,9,0,0,0-1.9,4.74c0,.87.38,1.29,1.18,1.29,1.32,0,2.8-1.52,4.51-4.51,0,.42-.08.8-.08,1.14,0,2.16.76,3.26,2.31,3.26a3,3,0,0,0,1.37-.35,7.1,7.1,0,0,0,1.82-1.65,4.83,4.83,0,0,0-.08.82c0,.87.38,1.29,1.17,1.29,1.33,0,2.81-1.52,4.51-4.51,0,.42-.07.8-.07,1.14,0,2.16.75,3.26,2.31,3.26a3,3,0,0,0,1.36-.35,10.65,10.65,0,0,0,2.81-2.88h0a8,8,0,0,0,.15,1.37c.3,1.44.91,2.54,2.73,2.46a6.05,6.05,0,0,0,3.52-1.82,6.08,6.08,0,0,0,.52-.5,4.55,4.55,0,0,0,1.11,1.41,4.73,4.73,0,0,0,3.22,1.29,3.55,3.55,0,0,0,2.12-.68,2.9,2.9,0,0,0,1.14-1.82,6.78,6.78,0,0,0,3.32-1.51c-.28.89-.55,1.66-.82,2.31a.68.68,0,0,0,0,.3c0,.45.11.68.3.68s.23-.11.38-.34c1.18-1.86,2.31-3.45,3.34-4.81a22.31,22.31,0,0,1,2.08-2.47c.08,0,.12.12.12.31s-.12.91-.27,1.89a27.13,27.13,0,0,0-.49,4,4.42,4.42,0,0,0,.11,1.06.38.38,0,0,0,.34.15c.46,0,.87-.34,1.25-1.06a16.9,16.9,0,0,1,3.07-4.36c0,.5,0,1,0,1.37,0,2.61.61,3.94,1.79,3.94a4.4,4.4,0,0,0,2.72-1.52c.33-.31.63-.63.93-1a2.86,2.86,0,0,0,3.13,2.87c1.9,0,3.33-1.27,4.46-2.66A2.85,2.85,0,0,0,210,43.13c2.76,0,4.54-2.69,5.83-4.55v0c.2-.29.43-.62.67-1a20.48,20.48,0,0,0,1.56-2.69c0,.34.23.64.68.94a2.26,2.26,0,0,0,1.18.38,2.41,2.41,0,0,0,.49-.07,10.75,10.75,0,0,0-1.71,5c0,1.36.57,2.39,2.2,2.43a5.1,5.1,0,0,0,3.6-1.71,16.57,16.57,0,0,0,2.31-3,1.19,1.19,0,0,0,.23-.64C227,38.05,227,38,226.89,38Zm-17-2.08c.72-1.18,1.29-1.74,1.67-1.74a.4.4,0,0,1,.46.45,3.26,3.26,0,0,1-1.25,2.12,6.53,6.53,0,0,1-2.05,1.48A8.67,8.67,0,0,1,209.87,35.89Zm-7.58,0c.72-1.18,1.29-1.74,1.67-1.74a.4.4,0,0,1,.46.45,3.26,3.26,0,0,1-1.25,2.12,6.53,6.53,0,0,1-2,1.48A8.67,8.67,0,0,1,202.29,35.89Zm-31.41-5.08a55.39,55.39,0,0,1,4.47-7.16c1.06-1.4,2-2.12,2.69-2.12.34,0,.5.22.5.72a6.18,6.18,0,0,1-.34,1.63c-.5,1.51-2,4-4.4,7.35a41.81,41.81,0,0,1-5.61,6.67A26.7,26.7,0,0,1,170.88,30.81ZM147.54,40c-.91,1.14-1.59,1.74-2.16,1.74-.34,0-.53-.26-.53-.79,0-1.18.76-2.73,2.31-4.59a4.32,4.32,0,0,1,3.15-1.93,1,1,0,0,1,.34,0A23.13,23.13,0,0,1,147.54,40Zm11,0c-.91,1.14-1.59,1.74-2.16,1.74-.34,0-.53-.26-.53-.79,0-1.18.75-2.73,2.31-4.59a4.32,4.32,0,0,1,3.14-1.93,1,1,0,0,1,.34,0A22.77,22.77,0,0,1,158.57,40Zm21.41.64a2.9,2.9,0,0,0,0,.72,2.44,2.44,0,0,1-2.5,1.33,3.36,3.36,0,0,1-3.17-2.37l.21-.24a17.26,17.26,0,0,0,1-1.41c.92-1.19,2-2.89,3.16-4.66a11.94,11.94,0,0,0,.64,3.26,12.69,12.69,0,0,1,.69,3Z"/><polyline class="cls-2" points="137.66 43.95 137.66 31.39 135.88 31.39 135.88 43.95"/><polygon class="cls-2" points="74.11 42.65 75.89 42.65 75.89 38.51 79.18 38.51 79.18 36.79 75.89 36.79 75.89 34.32 79.43 34.32 79.43 32.6 74.11 32.6 74.11 42.65"/><polygon class="cls-2" points="82.38 32.6 80.6 32.6 80.6 42.65 85.94 42.65 85.94 40.93 82.38 40.93 82.38 32.6"/><path class="cls-2" d="M94.08,33.5v0A4,4,0,0,0,93,32.8a4.9,4.9,0,0,0-1.87-.35,5.17,5.17,0,0,0-2,.38,4.5,4.5,0,0,0-1.58,1.1,5.45,5.45,0,0,0-1,1.68,6.5,6.5,0,0,0-.34,2.12,6.1,6.1,0,0,0,.32,2,5.16,5.16,0,0,0,1,1.63,4.44,4.44,0,0,0,3.44,1.44,4.52,4.52,0,0,0,3.48-1.45,5.61,5.61,0,0,0,1.3-3.87,5.2,5.2,0,0,0-1.28-3.62Zm-.18,4.08a5,5,0,0,1-.22,1.51,3.13,3.13,0,0,1-.55,1l0,.06a2.59,2.59,0,0,1-.94.66,3,3,0,0,1-1.24.24,2.74,2.74,0,0,1-1.16-.24,2.88,2.88,0,0,1-.92-.66,3.19,3.19,0,0,1-.61-1.1,5,5,0,0,1,0-2.89,2.89,2.89,0,0,1,1.59-1.79A2.82,2.82,0,0,1,91,34.16a3.28,3.28,0,0,1,1.22.22,2.77,2.77,0,0,1,.91.65,2.7,2.7,0,0,1,.59,1.08A5.07,5.07,0,0,1,93.9,37.58Z"/><path class="cls-2" d="M106,34.72c-.1.34-.19.68-.28,1s-.16.55-.23.81l0,.16-.09.35-.09.33c0,.12-.07.24-.1.36l-.09.32-.21.76,0,.08-1.78-6.31h-1.21l0,.15,0,.15,0,.16c-.07.21-.14.43-.21.67s-.14.46-.21.68l-.09.3c0,.1-.06.21-.1.32-.1.34-.21.68-.31,1s-.21.67-.29,1-.11.33-.16.5l-.15.49c0,.15-.1.3-.14.45s-.08.28-.13.43l0,.09L98.1,32.6H96.17l3,10h1.39l0-.14s0-.09.05-.18l0-.13c0-.08,0-.15.07-.22s0-.12.06-.19.07-.24.12-.38.08-.27.12-.38l.86-2.72a.2.2,0,0,1,0-.07v-.06a.36.36,0,0,0,0-.11.24.24,0,0,1,0-.1c.09-.31.19-.62.28-.93,0-.11.07-.22.1-.32l1.74,5.93h1.4l2.95-10h-1.9Z"/><polygon class="cls-2" points="111.32 38.44 114.61 38.44 114.61 36.73 111.32 36.73 111.32 34.32 114.86 34.32 114.86 32.6 109.54 32.6 109.54 42.65 115.07 42.65 115.07 40.93 111.32 40.93 111.32 38.44"/><path class="cls-2" d="M122.9,42.32l-.3-.54-.18-.31-.18-.32c-.15-.25-.29-.5-.43-.75s-.24-.4-.35-.6l-.06-.12-.1-.18a1.19,1.19,0,0,1-.09-.15l-.23-.41-.23-.4-.06-.11,0,0a3.63,3.63,0,0,0,.52-.27,3.37,3.37,0,0,0,.6-.54,2.39,2.39,0,0,0,.52-.9,3.14,3.14,0,0,0,.17-1.08,3.3,3.3,0,0,0-.2-1.17,2.65,2.65,0,0,0-.63-.93,3.21,3.21,0,0,0-2.27-.8h-3.05V42.75h1.78v-4h.79l2.24,4h2.07l-.23-.31Zm-2.22-6.67a1.63,1.63,0,0,1-.11.59,1.58,1.58,0,0,1-.28.45,1.9,1.9,0,0,1-.53.28,2.3,2.3,0,0,1-.71.1h-1V34.41h1.08a1.76,1.76,0,0,1,1.14.33A1.15,1.15,0,0,1,120.68,35.65Z"/><path class="cls-2" d="M125.93,34.58a1.62,1.62,0,0,1,1.06-.32,1.87,1.87,0,0,1,.71.17,3.78,3.78,0,0,1,.87.57l.16.12,1.11-1.38-.16-.12a5.19,5.19,0,0,0-1.28-.77,3.69,3.69,0,0,0-1.33-.31,3.85,3.85,0,0,0-1.3.21,3.31,3.31,0,0,0-1,.61,2.59,2.59,0,0,0-.93,2,2.83,2.83,0,0,0,.47,1.57,6.66,6.66,0,0,0,1.9,1.48c.35.21.66.4.9.57a4.94,4.94,0,0,1,.52.41,1,1,0,0,1,.16.31,1.25,1.25,0,0,1,.06.4.92.92,0,0,1-.36.77,1.93,1.93,0,0,1-1.15.29,2,2,0,0,1-.75-.18,4.06,4.06,0,0,1-.87-.56l-.16-.13-1.11,1.39.16.12a5.32,5.32,0,0,0,1.27.77,3.47,3.47,0,0,0,1.32.3h.07a4.54,4.54,0,0,0,1.39-.19,3,3,0,0,0,1.08-.6,2.74,2.74,0,0,0,.9-2.09,2.53,2.53,0,0,0-.53-1.61c-.09-.1-.19-.21-.32-.33a5.44,5.44,0,0,0-.43-.36l-.52-.37-.56-.35-.46-.29-.42-.27-.34-.25-.23-.19h0a1.13,1.13,0,0,1-.13-.27,1.25,1.25,0,0,1-.06-.4.87.87,0,0,1,.09-.4A1.27,1.27,0,0,1,125.93,34.58Z"/><path class="cls-2" d="M67.37,42.05l-.57-.53-.62-.58c-.17-.15-.32-.3-.45-.43a7.63,7.63,0,0,0,.59-1.44,7.4,7.4,0,0,0,.27-1.83V37H64.86v.19a6,6,0,0,1-.38,2.06l-.42-.4-.5-.49L63.13,38l-.19-.21a4.85,4.85,0,0,0,.5-.34A3.48,3.48,0,0,0,64,36.9a2.81,2.81,0,0,0,.47-.8,2.67,2.67,0,0,0,.16-1A2.22,2.22,0,0,0,64,33.5a2.38,2.38,0,0,0-1.75-.67,2.7,2.7,0,0,0-1.93.75,2.55,2.55,0,0,0-.58.83,2.64,2.64,0,0,0-.18,1,2.84,2.84,0,0,0,.2,1,3.75,3.75,0,0,0,.46.85A3.72,3.72,0,0,0,59,38.36,2.9,2.9,0,0,0,58.49,40a3,3,0,0,0,.22,1.15,2.72,2.72,0,0,0,.67.94,3,3,0,0,0,1,.6,4.15,4.15,0,0,0,1.34.2,4.52,4.52,0,0,0,1.62-.28,4.23,4.23,0,0,0,1.26-.78l.91.91,2.62,0-.39-.35Zm-5.15-5.81a3,3,0,0,1-.46.28,2,2,0,0,1-.52-1.11.87.87,0,0,1,.25-.66.84.84,0,0,1,.67-.26.76.76,0,0,1,.55.2.46.46,0,0,1,.13.2,1.09,1.09,0,0,1,0,.33,1.21,1.21,0,0,1-.06.38,1.05,1.05,0,0,1-.18.31A3.89,3.89,0,0,1,62.22,36.24Zm-1.7,2.94a2.92,2.92,0,0,1,.77-.63l.87.87,1.27,1.24a2.54,2.54,0,0,1-1.63.58,2.5,2.5,0,0,1-.69-.1,1.79,1.79,0,0,1-.5-.25,1.77,1.77,0,0,1-.28-.43,1.25,1.25,0,0,1-.11-.5A1.19,1.19,0,0,1,60.52,39.18Z"/><path class="cls-2" d="M9.06,32.69H6.33V42.75H8.1V39.19h.69A4.35,4.35,0,0,0,10.3,39a3.36,3.36,0,0,0,1.17-.73,3.29,3.29,0,0,0,1-2.45,2.91,2.91,0,0,0-.89-2.3A3.66,3.66,0,0,0,9.06,32.69Zm1.6,3.15A1.51,1.51,0,0,1,10.2,37a2.08,2.08,0,0,1-1.42.43H8.1V34.41H9C10.12,34.41,10.66,34.87,10.66,35.84Z"/><polygon class="cls-2" points="15.38 32.69 13.61 32.69 13.61 42.75 18.95 42.75 18.95 41.03 15.38 41.03 15.38 32.69"/><path class="cls-2" d="M23.87,32.69,20.08,42.75H22l.05-.13q.11-.32.24-.66c.09-.23.17-.47.26-.71l.27-.72L23,40h3.06l1,2.77H29L25.26,32.69Zm.67,3.12.91,2.45h-1.8l0-.11c.08-.2.15-.41.23-.62l.22-.63a1.34,1.34,0,0,1,.07-.18l.06-.16Z"/><polygon class="cls-2" points="36.33 39.15 31.57 32.69 30.22 32.69 30.22 42.75 32 42.75 32 36.25 36.81 42.75 38.1 42.75 38.1 32.69 36.33 32.69 36.33 39.15"/><polygon class="cls-2" points="39.2 34.41 41.77 34.41 41.77 42.75 43.55 42.75 43.55 34.41 46.1 34.41 46.1 32.69 39.2 32.69 39.2 34.41"/><path class="cls-2" d="M51.72,38.07a5.44,5.44,0,0,0-.43-.36l-.51-.37c-.19-.12-.37-.24-.57-.35l-.46-.29a4.86,4.86,0,0,1-.41-.27L49,36.18,48.76,36a1.46,1.46,0,0,1-.13-.28,1.25,1.25,0,0,1-.06-.4.87.87,0,0,1,.09-.4,1.31,1.31,0,0,1,.25-.33A1.59,1.59,0,0,1,50,34.26a1.87,1.87,0,0,1,.71.17,3.58,3.58,0,0,1,.87.57l.16.12,1.11-1.38-.16-.12a5.32,5.32,0,0,0-1.27-.77,3.47,3.47,0,0,0-2.63-.1,3.25,3.25,0,0,0-1,.61,2.59,2.59,0,0,0-.93,2A2.83,2.83,0,0,0,47.24,37a6.66,6.66,0,0,0,1.9,1.48c.35.21.66.4.91.57a4.35,4.35,0,0,1,.51.41,1,1,0,0,1,.17.31,1.25,1.25,0,0,1,.06.4.9.9,0,0,1-.37.77,1.93,1.93,0,0,1-1.15.29,1.9,1.9,0,0,1-.75-.18,4.06,4.06,0,0,1-.87-.56l-.15-.13L46.39,41.7l.15.12a5.32,5.32,0,0,0,1.27.77,3.47,3.47,0,0,0,1.32.3h.07a4.54,4.54,0,0,0,1.39-.19,3,3,0,0,0,1.08-.6,2.8,2.8,0,0,0,.67-.93A2.76,2.76,0,0,0,52.57,40,2.53,2.53,0,0,0,52,38.4,3.19,3.19,0,0,0,51.72,38.07Z"/></svg>